<svg width="270" height="422" viewBox="0 0 270 422" fill="none" xmlns="http://www.w3.org/2000/svg">
<g clip-path="url(#clip0)">
<rect width="270" height="350" transform="translate(0 72)" fill="#FBFBFD"/>
<path d="M-121 167.395C-50.2159 180.337 -6.184 214.783 11.0956 270.732C37.015 354.655 86.7706 396.521 146.894 380.159C207.018 363.797 235.034 305.613 210.5 233.5C185.966 161.387 259.903 113.92 299.861 115.833C339.818 117.747 373.938 137.981 389.674 167.596C424.474 233.091 349.898 321.345 387.082 379.929C424.267 438.513 482.5 436 532.5 384.5C532.5 384.5 559.613 347.802 561 344.5C588.889 278.118 770 92 846 108C926.037 124.85 952.619 223.769 886 300" stroke="url(#paint0_linear)" stroke-opacity="0.3" stroke-width="50" stroke-linecap="round"/>
<path d="M123.441 308.19H123.371C123.311 308.181 123.254 308.16 123.202 308.129C123.15 308.098 123.104 308.056 123.068 308.008C123.032 307.959 123.006 307.903 122.992 307.844C122.977 307.785 122.975 307.724 122.984 307.664C123.011 307.48 125.923 288.833 141.077 277.915C151.192 270.629 164.352 268.359 180.188 271.164C180.311 271.185 180.42 271.254 180.492 271.355C180.564 271.456 180.592 271.582 180.571 271.704C180.551 271.827 180.482 271.936 180.381 272.007C180.28 272.079 180.154 272.108 180.032 272.087C164.449 269.319 151.528 271.543 141.626 278.672C126.786 289.354 123.925 307.632 123.897 307.812C123.878 307.919 123.821 308.015 123.738 308.084C123.654 308.153 123.549 308.191 123.441 308.19Z" fill="#231F20"/>
<path d="M92.3257 342.909L87.0146 341.298L85.0488 344.939L90.0047 346.725L92.3257 342.909Z" fill="white"/>
<path d="M90.0048 346.956H89.9263L84.9705 345.17C84.9436 345.156 84.92 345.136 84.901 345.112C84.8819 345.088 84.8679 345.061 84.8597 345.032C84.845 345.001 84.8374 344.968 84.8374 344.935C84.8374 344.901 84.845 344.868 84.8597 344.838L86.8255 341.197C86.8515 341.15 86.8927 341.114 86.9422 341.094C86.9916 341.074 87.0465 341.071 87.0977 341.086L92.4089 342.697C92.4415 342.709 92.4714 342.727 92.4968 342.751C92.5222 342.775 92.5425 342.803 92.5565 342.835C92.5714 342.867 92.5791 342.902 92.5791 342.937C92.5791 342.972 92.5714 343.006 92.5565 343.038L90.2493 346.854C90.2235 346.894 90.1863 346.925 90.1427 346.943C90.0991 346.961 90.051 346.965 90.0048 346.956ZM85.3904 344.815L89.9171 346.444L91.9843 343.043L87.1392 341.571L85.3904 344.815Z" fill="#231F20"/>
<path d="M122.624 358.759L119.971 362.885L125.102 364.361L128.701 360.056L122.624 358.759Z" fill="white"/>
<path d="M125.102 364.592C125.082 364.596 125.061 364.596 125.042 364.592L119.929 363.111C119.895 363.1 119.863 363.081 119.837 363.056C119.81 363.032 119.79 363.001 119.777 362.968C119.762 362.935 119.754 362.9 119.754 362.864C119.754 362.828 119.762 362.793 119.777 362.76L122.43 358.635C122.456 358.595 122.493 358.564 122.537 358.546C122.58 358.528 122.628 358.524 122.674 358.533L128.752 359.83C128.79 359.838 128.826 359.856 128.855 359.883C128.885 359.91 128.906 359.944 128.918 359.982C128.931 360.019 128.935 360.059 128.929 360.098C128.922 360.137 128.906 360.173 128.881 360.204L125.282 364.509C125.26 364.535 125.232 364.556 125.201 364.571C125.17 364.585 125.136 364.592 125.102 364.592ZM120.335 362.746L125.005 364.098L128.262 360.204L122.725 359.018L120.335 362.746Z" fill="#231F20"/>
<path d="M119.971 362.889C119.971 362.889 117.493 365.778 117.613 366.119C117.733 366.461 128.226 370.424 128.687 369.658C129.149 368.892 125.088 364.347 125.088 364.347L119.971 362.889Z" fill="#231F20"/>
<path d="M128.355 370C128.249 369.998 128.142 369.991 128.037 369.977C126.03 369.746 117.576 366.747 117.396 366.202C117.355 366.087 117.235 365.741 119.796 362.737C119.825 362.704 119.863 362.68 119.906 362.668C119.948 362.656 119.993 362.656 120.035 362.668L125.167 364.14C125.208 364.153 125.244 364.177 125.273 364.209C126.533 365.593 129.426 368.966 128.9 369.792C128.812 369.949 128.641 370 128.355 370ZM117.857 366.041C118.965 366.77 127.834 369.875 128.535 369.52C128.678 369.179 127.063 366.899 124.977 364.564L120.049 363.148C119.242 364.051 118.508 365.019 117.857 366.041Z" fill="#231F20"/>
<path d="M124.82 332.725C124.82 332.725 136.407 343.799 136.73 346.42C137.053 349.041 127.824 362.299 127.824 362.299L120.903 359.341C120.903 359.341 128.673 349.494 127.072 346.568C125.471 343.643 116.833 338.373 116.833 338.373C116.833 338.373 111.272 350.666 107.604 352.571C103.935 354.477 88.6572 347.496 88.6572 347.496L91.795 341.169C91.795 341.169 101.914 344.893 103.816 343.283C105.717 341.672 108.771 326.842 108.771 326.842L124.82 332.725Z" fill="#231F20"/>
<path d="M127.825 362.529C127.794 362.534 127.763 362.534 127.732 362.529L120.852 359.553C120.82 359.539 120.791 359.518 120.769 359.49C120.746 359.463 120.73 359.431 120.723 359.396C120.714 359.362 120.712 359.326 120.72 359.292C120.727 359.257 120.742 359.225 120.765 359.198C122.901 356.494 128.148 348.972 126.911 346.679C125.499 344.095 118.328 339.55 116.976 338.705C116.159 340.477 111.208 350.979 107.747 352.774C104.033 354.708 89.2251 347.971 88.5976 347.699C88.5696 347.685 88.5446 347.667 88.524 347.644C88.5034 347.621 88.4876 347.594 88.4776 347.565C88.465 347.536 88.4585 347.506 88.4585 347.475C88.4585 347.444 88.465 347.413 88.4776 347.385L91.6154 341.063C91.6419 341.014 91.6854 340.975 91.7379 340.955C91.7904 340.934 91.8484 340.934 91.9015 340.952C94.6701 341.972 102.219 344.349 103.696 343.103C105.172 341.857 107.729 330.898 108.573 326.791C108.58 326.759 108.594 326.729 108.614 326.702C108.634 326.676 108.659 326.654 108.688 326.639C108.717 326.623 108.749 326.614 108.781 326.611C108.814 326.609 108.847 326.613 108.878 326.625L124.899 332.522C124.929 332.533 124.955 332.55 124.977 332.573C125.439 333.034 136.624 343.721 136.975 346.416C137.326 349.111 128.406 361.906 128.028 362.451C128.003 362.48 127.971 362.502 127.936 362.516C127.9 362.529 127.862 362.534 127.825 362.529ZM121.314 359.248L127.774 362.017C130.399 358.238 136.79 348.515 136.541 346.453C136.292 344.39 128.697 336.726 124.701 332.923L108.975 327.132C108.541 329.19 105.818 341.898 103.996 343.44C102.173 344.981 93.6273 342.055 91.943 341.437L89.0129 347.362C90.8586 348.202 104.24 354.076 107.544 352.364C111.088 350.518 116.607 338.401 116.662 338.276C116.675 338.247 116.695 338.221 116.718 338.199C116.742 338.178 116.77 338.161 116.801 338.151C116.831 338.139 116.863 338.132 116.895 338.132C116.928 338.132 116.96 338.139 116.99 338.151C117.345 338.368 125.697 343.486 127.308 346.457C128.83 349.258 122.495 357.689 121.314 359.248Z" fill="#231F20"/>
<path d="M150.384 304.628C151.203 304.052 152.084 303.569 153.009 303.188C154.075 302.837 155.423 302.602 155.118 302.145C154.814 301.688 152.29 302.348 152.29 302.348C152.29 302.348 153.762 300.092 154.597 299.644C155.432 299.197 156.609 299.234 156.023 298.804C155.437 298.375 153.674 298.306 153.056 298.625C152.437 298.943 148.903 302.824 148.718 303.031C148.533 303.239 150.384 304.628 150.384 304.628Z" fill="white"/>
<path d="M150.384 304.859C150.334 304.858 150.286 304.842 150.246 304.813C149.092 303.95 148.497 303.373 148.465 303.101C148.46 303.061 148.464 303.021 148.476 302.983C148.488 302.945 148.508 302.909 148.534 302.879C148.566 302.838 152.225 298.782 152.941 298.417C153.656 298.052 155.483 298.122 156.171 298.62C156.24 298.671 156.457 298.832 156.415 299.081C156.374 299.331 156.083 299.418 155.649 299.543C155.33 299.62 155.021 299.731 154.726 299.875C154.219 300.147 153.37 301.259 152.844 302.012C153.827 301.795 155.049 301.624 155.335 302.044C155.377 302.1 155.404 302.166 155.415 302.235C155.425 302.304 155.419 302.375 155.395 302.441C155.271 302.787 154.74 302.958 153.813 303.225C153.577 303.29 153.351 303.359 153.107 303.437C152.202 303.801 151.342 304.266 150.541 304.822C150.495 304.853 150.439 304.866 150.384 304.859ZM148.958 303.096C149.398 303.553 149.876 303.969 150.389 304.342C151.182 303.784 152.036 303.319 152.936 302.958C153.171 302.879 153.397 302.81 153.656 302.741C154.117 302.602 154.856 302.39 154.934 302.242C154.759 302.113 153.55 302.242 152.345 302.561C152.3 302.572 152.253 302.57 152.209 302.554C152.165 302.538 152.128 302.509 152.101 302.471C152.074 302.433 152.059 302.388 152.058 302.341C152.057 302.295 152.071 302.249 152.096 302.21C152.156 302.118 153.61 299.903 154.477 299.441C154.806 299.277 155.153 299.151 155.511 299.068L155.848 298.971C155.289 298.602 153.679 298.56 153.153 298.828C152.627 299.095 149.563 302.436 148.972 303.096H148.958Z" fill="#231F20"/>
<path d="M127.095 306.1C127.095 306.1 141.538 309.168 142.936 308.813L148.381 302.69L151.584 304.78C151.584 304.78 149.923 309.81 147.615 312.731C145.308 315.652 130.205 316.261 130.205 316.261L127.095 306.1Z" fill="#AAC0DA"/>
<path d="M129.37 303.04C128.952 302.624 128.676 302.086 128.581 301.504C128.152 299.566 128 297.48 128.775 295.657C129.55 293.835 131.47 292.386 133.431 292.69C134.354 292.833 135.152 293.323 135.992 293.692C136.831 294.061 137.805 294.324 138.668 294.001C139.083 293.844 139.476 293.539 139.914 293.599C140.143 293.641 140.354 293.752 140.519 293.917C140.684 294.082 140.795 294.293 140.837 294.522C140.921 294.986 140.881 295.463 140.721 295.907C140.185 297.872 138.902 299.549 137.145 300.581C135.539 301.504 134.247 302.999 132.402 303.433C131.142 303.714 130.081 303.696 129.37 303.04Z" fill="white"/>
<path d="M131.003 303.834C130.348 303.868 129.705 303.649 129.208 303.221C128.756 302.77 128.455 302.189 128.35 301.559C127.81 299.128 127.889 297.166 128.558 295.561C129.305 293.803 131.276 292.114 133.458 292.46C134.16 292.602 134.836 292.847 135.465 293.189C135.673 293.286 135.876 293.387 136.084 293.475C137.108 293.936 137.93 294.029 138.58 293.779C138.695 293.738 138.806 293.683 138.922 293.632C139.226 293.452 139.574 293.36 139.928 293.364C140.206 293.408 140.464 293.536 140.668 293.731C140.871 293.925 141.011 294.177 141.067 294.453C141.154 294.952 141.113 295.465 140.947 295.944C140.397 297.971 139.071 299.7 137.256 300.756C136.683 301.094 136.134 301.47 135.613 301.882C134.658 302.598 133.67 303.34 132.448 303.627C131.976 303.751 131.491 303.821 131.003 303.834ZM132.891 292.889C131.142 292.889 129.605 294.273 128.987 295.754C128.368 297.236 128.29 299.123 128.802 301.462C128.89 301.999 129.143 302.494 129.527 302.879C130.108 303.41 131.008 303.511 132.355 303.193C133.486 302.93 134.39 302.27 135.35 301.527C135.888 301.103 136.454 300.716 137.044 300.369C138.75 299.369 139.994 297.738 140.509 295.828C140.654 295.427 140.693 294.994 140.624 294.573C140.591 294.391 140.502 294.222 140.371 294.091C140.241 293.959 140.073 293.87 139.891 293.835C139.62 293.844 139.357 293.922 139.125 294.061C139 294.121 138.875 294.181 138.751 294.227C137.976 294.518 137.044 294.416 135.899 293.913C135.692 293.821 135.479 293.719 135.272 293.618C134.682 293.299 134.049 293.068 133.394 292.93C133.227 292.903 133.059 292.889 132.891 292.889Z" fill="#231F20"/>
<path d="M137.219 300.983C137.219 300.983 138.1 303.696 137.653 304.083C137.205 304.471 136.269 303.867 136.269 303.867" fill="white"/>
<path d="M137.256 304.448C136.855 304.415 136.468 304.283 136.13 304.065C136.104 304.049 136.081 304.029 136.063 304.004C136.045 303.979 136.032 303.951 136.025 303.922C136.018 303.892 136.018 303.861 136.023 303.831C136.028 303.801 136.04 303.772 136.056 303.747C136.09 303.695 136.141 303.659 136.201 303.645C136.26 303.632 136.323 303.641 136.375 303.673C136.638 303.839 137.261 304.134 137.501 303.913C137.667 303.723 137.432 302.385 137.002 301.052C136.992 301.023 136.988 300.993 136.99 300.962C136.992 300.932 137.001 300.902 137.014 300.875C137.028 300.848 137.047 300.824 137.071 300.804C137.094 300.785 137.121 300.77 137.15 300.761C137.208 300.743 137.271 300.749 137.325 300.776C137.379 300.804 137.421 300.851 137.441 300.909C137.718 301.772 138.313 303.82 137.805 304.259C137.652 304.388 137.456 304.455 137.256 304.448Z" fill="#231F20"/>
<path d="M137.736 297.858C138.484 298.915 137.736 300.503 137.431 301.587C136.998 303.107 136.529 304.616 136.024 306.114C135.706 307.064 133.195 306.391 132.836 305.98L132.18 309.238C132.18 309.238 131.105 310.839 129.347 309.344C127.589 307.849 127.474 306.427 127.474 306.427L128.858 302.071C128.858 302.071 130.51 302.533 132.033 300.844C133.555 299.155 134.34 296.114 134.34 296.114C134.34 296.114 137.002 296.829 137.736 297.858Z" fill="white"/>
<path d="M130.801 310.211C130.2 310.18 129.63 309.934 129.195 309.519C127.386 307.983 127.248 306.511 127.243 306.446C127.239 306.417 127.239 306.387 127.243 306.358L128.627 302.002C128.636 301.974 128.65 301.947 128.669 301.924C128.687 301.901 128.71 301.882 128.737 301.868C128.763 301.854 128.791 301.845 128.821 301.842C128.851 301.839 128.88 301.842 128.909 301.85C128.969 301.85 130.445 302.251 131.848 300.692C133.311 299.058 134.109 296.077 134.119 296.077C134.135 296.019 134.173 295.969 134.226 295.939C134.279 295.909 134.341 295.9 134.4 295.916C134.511 295.944 137.141 296.663 137.907 297.762C138.594 298.731 138.165 300.069 137.819 301.102C137.75 301.306 137.685 301.499 137.635 301.679C137.201 303.202 136.712 304.729 136.223 306.22C136.162 306.385 136.055 306.528 135.916 306.635C135.776 306.741 135.609 306.805 135.434 306.82C134.59 306.913 133.737 306.766 132.974 306.395L132.388 309.284C132.381 309.313 132.371 309.341 132.356 309.367C132.038 309.806 131.561 310.104 131.027 310.197C130.952 310.206 130.876 310.211 130.801 310.211ZM127.709 306.451C127.746 306.681 128.004 307.899 129.495 309.168C129.687 309.365 129.919 309.517 130.176 309.616C130.432 309.715 130.707 309.757 130.981 309.741C131.372 309.67 131.722 309.456 131.964 309.141L132.61 305.911C132.618 305.869 132.639 305.83 132.668 305.8C132.697 305.769 132.735 305.746 132.776 305.735C132.818 305.725 132.861 305.725 132.903 305.738C132.944 305.75 132.982 305.773 133.011 305.805C133.72 306.224 134.546 306.4 135.364 306.308C135.461 306.306 135.554 306.278 135.636 306.227C135.717 306.175 135.783 306.103 135.826 306.017C136.324 304.536 136.795 303.013 137.21 301.499C137.266 301.315 137.33 301.112 137.399 300.904C137.713 299.944 138.101 298.754 137.547 297.969C137.039 297.249 135.355 296.627 134.52 296.377C134.298 297.125 133.523 299.511 132.213 300.992C130.902 302.473 129.555 302.404 129.024 302.325L127.709 306.451Z" fill="#231F20"/>
<path d="M133.528 300.152C133.588 299.759 133.54 299.357 133.389 298.989C133.312 298.691 133.191 298.407 133.029 298.145C132.945 298.018 132.834 297.911 132.704 297.831C132.574 297.751 132.429 297.701 132.277 297.683C132.141 297.681 132.006 297.707 131.88 297.761C131.755 297.814 131.642 297.893 131.548 297.992C131.364 298.194 131.227 298.433 131.147 298.694C130.963 299.26 130.931 299.865 131.055 300.447C131.179 301.03 131.454 301.569 131.853 302.012L131.793 301.901" fill="white"/>
<path d="M131.853 302.224C131.821 302.224 131.789 302.218 131.759 302.205C131.73 302.193 131.703 302.174 131.682 302.15C131.258 301.676 130.965 301.098 130.833 300.476C130.701 299.853 130.734 299.207 130.93 298.602C131.021 298.306 131.179 298.036 131.391 297.812C131.508 297.686 131.651 297.587 131.811 297.522C131.97 297.458 132.142 297.429 132.314 297.439C132.502 297.459 132.682 297.521 132.842 297.621C133.002 297.721 133.137 297.856 133.237 298.016C133.415 298.301 133.547 298.612 133.629 298.938C133.795 299.348 133.843 299.795 133.768 300.23C133.76 300.261 133.747 300.289 133.728 300.314C133.709 300.339 133.686 300.361 133.659 300.377C133.632 300.393 133.603 300.403 133.572 300.408C133.541 300.413 133.509 300.411 133.479 300.403C133.449 300.396 133.42 300.382 133.395 300.364C133.37 300.345 133.349 300.322 133.333 300.295C133.317 300.268 133.306 300.239 133.302 300.208C133.297 300.177 133.299 300.145 133.306 300.115C133.354 299.763 133.308 299.405 133.172 299.077C133.104 298.802 132.993 298.539 132.845 298.297C132.783 298.195 132.699 298.107 132.599 298.041C132.499 297.975 132.386 297.931 132.268 297.914C132.165 297.913 132.062 297.934 131.968 297.975C131.873 298.017 131.788 298.078 131.719 298.154C131.559 298.33 131.44 298.54 131.373 298.768C131.214 299.258 131.178 299.78 131.266 300.288C131.355 300.797 131.566 301.275 131.88 301.684C131.932 301.703 131.975 301.741 132 301.79L132.06 301.905C132.086 301.955 132.094 302.012 132.081 302.066C132.068 302.12 132.036 302.168 131.991 302.201C131.948 302.222 131.9 302.23 131.853 302.224Z" fill="#231F20"/>
<path d="M132.849 305.98C132.171 305.535 131.636 304.904 131.308 304.162C131.308 304.162 130.75 306.506 132.554 307.729L132.849 305.98Z" fill="#231F20"/>
<path d="M132.54 307.959C132.492 307.959 132.445 307.945 132.406 307.918C130.496 306.621 131.045 304.226 131.072 304.106C131.084 304.058 131.111 304.015 131.15 303.984C131.188 303.952 131.235 303.934 131.285 303.931C131.335 303.929 131.384 303.943 131.426 303.972C131.467 304 131.499 304.041 131.515 304.088C131.826 304.78 132.327 305.369 132.96 305.786C132.998 305.81 133.028 305.845 133.046 305.886C133.064 305.927 133.069 305.973 133.061 306.017L132.766 307.766C132.759 307.804 132.743 307.84 132.719 307.871C132.695 307.901 132.663 307.926 132.628 307.941C132.599 307.951 132.57 307.958 132.54 307.959ZM131.465 304.942C131.438 305.379 131.507 305.818 131.666 306.227C131.826 306.635 132.072 307.004 132.388 307.309L132.595 306.086C132.159 305.768 131.777 305.381 131.465 304.942Z" fill="#231F20"/>
<path d="M135.618 301.195L135.696 300.969C135.622 300.923 135.549 300.874 135.479 300.821C135.352 300.732 135.258 300.602 135.212 300.454C135.166 300.305 135.171 300.145 135.226 300L135.687 300.152C135.664 300.23 135.667 300.313 135.696 300.389C135.726 300.465 135.779 300.529 135.849 300.572L136.052 299.967C135.973 299.912 135.89 299.861 135.812 299.801C135.726 299.739 135.655 299.658 135.604 299.566C135.554 299.464 135.538 299.35 135.558 299.238C135.575 299.102 135.629 298.972 135.715 298.865C135.778 298.787 135.857 298.724 135.947 298.68C136.037 298.636 136.136 298.612 136.236 298.611C136.316 298.604 136.396 298.604 136.476 298.611H136.508L136.61 298.311L137.021 298.449V298.477C136.993 298.565 136.965 298.652 136.933 298.735C136.901 298.818 136.933 298.768 136.933 298.777C137.065 298.853 137.176 298.961 137.256 299.091C137.343 299.228 137.374 299.393 137.344 299.552C137.344 299.594 137.344 299.64 137.321 299.686L136.859 299.529C136.878 299.467 136.879 299.402 136.862 299.339C136.845 299.277 136.81 299.221 136.762 299.178L136.573 299.741L136.615 299.769C136.729 299.831 136.835 299.909 136.928 300C137.002 300.064 137.056 300.148 137.085 300.242C137.113 300.336 137.115 300.436 137.09 300.53C137.077 300.622 137.045 300.711 136.996 300.79C136.948 300.869 136.884 300.938 136.808 300.992C136.688 301.08 136.543 301.129 136.393 301.13C136.296 301.13 136.204 301.13 136.107 301.13L136.033 301.352L135.618 301.195ZM136.421 300.198L136.245 300.72C136.313 300.738 136.385 300.738 136.453 300.72C136.488 300.707 136.519 300.687 136.545 300.66C136.571 300.633 136.59 300.601 136.601 300.566C136.612 300.531 136.615 300.493 136.61 300.457C136.604 300.42 136.59 300.385 136.568 300.355C136.528 300.298 136.483 300.244 136.435 300.193L136.421 300.198ZM136.185 299.52L136.356 299.017C136.294 299.021 136.232 299.03 136.172 299.044C136.135 299.055 136.102 299.075 136.075 299.102C136.048 299.129 136.028 299.163 136.017 299.199C136.006 299.236 136.004 299.275 136.012 299.312C136.019 299.349 136.036 299.384 136.061 299.414C136.105 299.45 136.151 299.484 136.199 299.515L136.185 299.52Z" fill="#231F20"/>
<path d="M135.471 305.112C135.237 305.117 135.004 305.075 134.786 304.99C134.569 304.904 134.37 304.777 134.202 304.614C134.017 304.384 133.889 304.114 133.825 303.826C133.762 303.538 133.766 303.239 133.837 302.953C133.842 302.923 133.852 302.894 133.868 302.868C133.883 302.842 133.904 302.819 133.928 302.801C133.953 302.783 133.981 302.77 134.01 302.763C134.04 302.756 134.07 302.755 134.1 302.759C134.16 302.769 134.214 302.802 134.25 302.852C134.286 302.901 134.302 302.962 134.294 303.022C134.237 303.24 134.229 303.468 134.271 303.689C134.314 303.91 134.405 304.119 134.539 304.3C134.81 304.543 135.167 304.669 135.531 304.651C135.592 304.647 135.652 304.667 135.698 304.707C135.745 304.747 135.773 304.804 135.777 304.866C135.782 304.927 135.762 304.987 135.721 305.033C135.681 305.08 135.624 305.108 135.563 305.112H135.471Z" fill="#231F20"/>
<path d="M133.818 303.258C133.711 303.255 133.604 303.24 133.5 303.211C133.47 303.203 133.441 303.189 133.416 303.17C133.392 303.151 133.371 303.127 133.355 303.1C133.339 303.073 133.329 303.043 133.325 303.011C133.321 302.98 133.323 302.949 133.332 302.918C133.34 302.888 133.354 302.86 133.373 302.835C133.392 302.81 133.416 302.789 133.443 302.773C133.47 302.758 133.5 302.748 133.531 302.744C133.563 302.74 133.594 302.742 133.625 302.75C133.702 302.773 133.783 302.778 133.863 302.767C133.942 302.755 134.018 302.726 134.086 302.682C134.153 302.639 134.211 302.581 134.254 302.513C134.297 302.445 134.324 302.368 134.335 302.288C134.353 302.23 134.393 302.182 134.447 302.152C134.5 302.123 134.563 302.116 134.621 302.132C134.68 302.148 134.73 302.186 134.76 302.239C134.79 302.292 134.798 302.354 134.783 302.413C134.699 302.697 134.516 302.942 134.266 303.101C134.134 303.192 133.979 303.247 133.818 303.258Z" fill="#231F20"/>
<path d="M126.32 305.542C126.32 305.542 132.614 310.202 132.568 314.069C132.522 317.936 125.517 332.397 125.356 332.573C125.194 332.748 108.804 326.842 108.804 326.842C108.804 326.842 110.617 320.654 113.653 316.616C116.81 312.398 122.301 302.893 126.32 305.542Z" fill="#AAC0DA"/>
<path d="M149.323 315.818L151.773 313.769C152.548 313.127 153.3 311.379 154.002 311.388C154.703 311.397 153.448 313.474 153.448 313.474C153.448 313.474 156.055 311.476 156.867 311.416C157.679 311.356 158.132 312.726 157.929 313.151C157.726 313.575 155.52 314.613 154.699 315.43C153.583 316.379 152.415 317.265 151.201 318.083" fill="white"/>
<path d="M151.205 318.314C151.155 318.315 151.106 318.299 151.065 318.27C151.025 318.24 150.995 318.199 150.98 318.151C150.966 318.103 150.967 318.051 150.984 318.004C151.002 317.957 151.034 317.917 151.076 317.89C152.278 317.082 153.434 316.207 154.537 315.269C155.129 314.757 155.773 314.307 156.456 313.926C156.91 313.686 157.335 313.393 157.721 313.054C157.774 312.684 157.68 312.307 157.458 312.006C157.403 311.901 157.321 311.811 157.221 311.748C157.12 311.685 157.004 311.65 156.885 311.646C156.341 311.683 154.578 312.901 153.591 313.658C153.549 313.692 153.497 313.71 153.443 313.71C153.389 313.71 153.337 313.692 153.295 313.658C153.255 313.623 153.228 313.574 153.22 313.521C153.212 313.468 153.222 313.414 153.249 313.367C153.711 312.601 154.052 311.78 153.978 311.605C153.701 311.628 153.249 312.274 152.885 312.791C152.613 313.219 152.289 313.613 151.92 313.963L149.461 315.993L149.166 315.642L151.616 313.594C151.952 313.268 152.248 312.904 152.497 312.509C152.986 311.812 153.448 311.157 153.988 311.157C154.064 311.154 154.14 311.172 154.207 311.209C154.274 311.247 154.329 311.302 154.366 311.369C154.523 311.646 154.366 312.182 154.121 312.68C154.98 312.071 156.262 311.226 156.839 311.185C157.039 311.181 157.236 311.231 157.409 311.329C157.583 311.427 157.727 311.57 157.827 311.743C157.985 311.957 158.094 312.203 158.145 312.464C158.196 312.725 158.188 312.994 158.122 313.252C158.002 313.511 157.522 313.81 156.682 314.323C156.026 314.685 155.408 315.111 154.837 315.596C153.713 316.556 152.534 317.45 151.307 318.273C151.277 318.295 151.242 318.309 151.205 318.314Z" fill="#231F20"/>
<path d="M130.081 309.741C130.215 309.907 136.73 320.303 136.73 320.303L149.697 314.074L152.862 317.724C152.862 317.724 141.935 325.965 137.69 327.372C133.445 328.78 123.621 313.529 123.75 311.877C123.879 310.225 128.235 307.424 130.081 309.741Z" fill="#AAC0DA"/>
<path d="M136.744 320.534C136.705 320.534 136.666 320.524 136.631 320.506C136.596 320.487 136.567 320.46 136.545 320.428L130.653 311.042C130.624 310.991 130.615 310.93 130.629 310.873C130.643 310.815 130.679 310.765 130.729 310.734C130.778 310.702 130.838 310.69 130.896 310.701C130.954 310.712 131.006 310.745 131.04 310.793L136.827 319.998L143.665 316.422C143.72 316.396 143.782 316.391 143.839 316.409C143.897 316.427 143.945 316.467 143.975 316.519C143.989 316.546 143.998 316.576 144.001 316.606C144.004 316.636 144.001 316.667 143.992 316.696C143.983 316.726 143.968 316.753 143.948 316.776C143.929 316.8 143.905 316.819 143.878 316.833L136.85 320.525C136.816 320.537 136.779 320.54 136.744 320.534Z" fill="#231F20"/>
<path d="M137.399 327.414C134.668 327.414 131.719 325.107 128.632 320.529C128.615 320.504 128.602 320.476 128.596 320.447C128.59 320.417 128.589 320.387 128.595 320.357C128.6 320.328 128.612 320.299 128.628 320.274C128.645 320.249 128.667 320.227 128.692 320.211C128.717 320.193 128.745 320.181 128.775 320.175C128.805 320.168 128.836 320.168 128.866 320.173C128.896 320.179 128.925 320.19 128.95 320.207C128.976 320.224 128.998 320.245 129.015 320.271C132.383 325.24 135.517 327.455 138.322 326.86C141.128 326.265 146.808 321.812 146.863 321.784C146.912 321.746 146.973 321.729 147.034 321.736C147.095 321.744 147.151 321.775 147.189 321.823C147.227 321.872 147.244 321.933 147.236 321.994C147.229 322.055 147.198 322.111 147.149 322.149C146.914 322.333 141.368 326.703 138.419 327.331C138.083 327.394 137.741 327.422 137.399 327.414Z" fill="#231F20"/>
<path d="M132.461 308.781L132 309.635L132.563 310.751C132.563 310.751 129.656 318.056 119.486 309.902L115.605 310.53L117.215 313.871C117.215 313.871 129.836 321.65 132.932 310.917L133.352 309.736L132.461 308.781Z" fill="#231F20"/>
<path d="M125.854 316.828C121.627 316.828 117.308 314.207 117.087 314.06C117.049 314.037 117.018 314.003 116.999 313.963L115.389 310.617C115.374 310.586 115.366 310.551 115.366 310.516C115.366 310.481 115.374 310.446 115.389 310.414C115.405 310.382 115.428 310.355 115.457 310.334C115.486 310.313 115.52 310.3 115.555 310.294L119.436 309.667C119.467 309.66 119.5 309.661 119.531 309.669C119.562 309.677 119.591 309.692 119.616 309.713C123.445 312.786 126.657 314.009 129.163 313.354C129.838 313.164 130.467 312.834 131.006 312.385C131.545 311.935 131.983 311.377 132.291 310.747L131.779 309.731C131.762 309.698 131.753 309.661 131.753 309.623C131.753 309.585 131.762 309.548 131.779 309.515L132.24 308.661C132.257 308.629 132.281 308.602 132.311 308.582C132.341 308.562 132.375 308.549 132.411 308.546C132.447 308.54 132.484 308.544 132.519 308.556C132.554 308.568 132.585 308.588 132.61 308.615L133.491 309.57C133.519 309.602 133.537 309.64 133.546 309.681C133.554 309.723 133.551 309.765 133.537 309.805L133.117 310.987C132.337 313.7 130.865 315.499 128.757 316.312C127.829 316.662 126.845 316.837 125.854 316.828ZM117.382 313.709C118.037 314.097 124.179 317.608 128.614 315.892C130.51 315.163 131.844 313.584 132.619 311.143C132.276 311.791 131.804 312.361 131.232 312.818C130.659 313.275 129.999 313.61 129.292 313.801C126.657 314.498 123.335 313.271 119.412 310.147L115.938 310.705L117.382 313.709ZM132.25 309.639L132.757 310.645V310.673L133.066 309.791L132.494 309.173L132.25 309.639Z" fill="#231F20"/>
<path d="M87.0146 341.299C87.0146 341.299 82.7694 339.647 82.534 339.803C82.2987 339.96 77.3844 347.339 78.3257 347.473C79.2671 347.606 85.0489 344.939 85.0489 344.939L87.0146 341.299Z" fill="#231F20"/>
<path d="M78.3995 347.703H78.3211C78.2461 347.696 78.1756 347.664 78.12 347.614C78.0643 347.563 78.0264 347.496 78.0119 347.422C77.735 346.25 82.3771 339.651 82.4279 339.614C82.4786 339.577 82.7647 339.393 87.1207 341.086C87.1517 341.098 87.1797 341.117 87.2028 341.141C87.2259 341.165 87.2435 341.193 87.2545 341.225C87.2681 341.254 87.2752 341.285 87.2752 341.317C87.2752 341.349 87.2681 341.38 87.2545 341.409L85.2888 345.055C85.2655 345.098 85.228 345.132 85.1827 345.152C84.5643 345.415 79.5393 347.703 78.3995 347.703ZM82.6586 340.025C82.4463 340.288 81.3896 341.838 80.3514 343.5C78.6764 346.236 78.4595 347.034 78.441 347.246C79.2578 347.21 82.7509 345.742 84.9012 344.764L86.71 341.418C85.3805 340.874 84.02 340.409 82.6355 340.025H82.6586Z" fill="#231F20"/>
<path d="M172.16 300.406C172.135 300.411 172.11 300.411 172.086 300.406C172.028 300.387 171.979 300.346 171.952 300.291C171.924 300.236 171.919 300.173 171.938 300.115C177.798 282.419 178.117 271.727 178.121 271.621C178.121 271.56 178.146 271.501 178.189 271.458C178.232 271.415 178.291 271.391 178.352 271.391C178.413 271.391 178.472 271.415 178.515 271.458C178.558 271.501 178.583 271.56 178.583 271.621C178.583 271.727 178.255 282.488 172.376 300.23C172.364 300.279 172.337 300.323 172.298 300.355C172.258 300.386 172.21 300.404 172.16 300.406Z" fill="#231F20"/>
<path d="M164.8 317.304L165.303 315.822C164.813 315.49 164.324 315.199 163.881 314.858C163.003 314.208 162.369 313.282 162.082 312.228C161.856 311.31 161.911 310.346 162.239 309.459L165.132 310.442C164.981 310.951 165.001 311.495 165.19 311.991C165.378 312.487 165.724 312.907 166.175 313.188L167.508 309.256C166.987 308.892 166.461 308.536 165.949 308.162C165.38 307.77 164.914 307.246 164.592 306.635C164.263 305.973 164.152 305.223 164.274 304.494C164.386 303.594 164.746 302.743 165.312 302.035C165.719 301.525 166.235 301.112 166.821 300.825C167.408 300.539 168.051 300.386 168.703 300.378C169.236 300.387 169.767 300.425 170.295 300.493L170.485 300.521L171.149 298.555L173.853 299.478L173.788 299.672C173.599 300.23 173.415 300.793 173.216 301.352C173.165 301.49 173.216 301.55 173.322 301.619C174.186 302.113 174.915 302.812 175.445 303.654C175.999 304.551 176.206 305.619 176.026 306.658C175.985 306.94 175.911 307.221 175.851 307.516L172.907 306.52C173.038 306.115 173.047 305.68 172.933 305.27C172.819 304.86 172.587 304.492 172.266 304.213L171.024 307.876L171.315 308.056C172.057 308.484 172.748 308.995 173.373 309.579C173.846 310.008 174.193 310.556 174.378 311.166C174.563 311.777 174.58 312.426 174.425 313.044C174.215 314.225 173.553 315.278 172.579 315.979C171.784 316.552 170.828 316.859 169.848 316.856C169.243 316.856 168.634 316.791 168.002 316.754L167.513 318.19L164.8 317.304ZM170.046 310.77L168.888 314.18C169.352 314.267 169.831 314.226 170.272 314.06C171.075 313.755 171.735 312.546 171.006 311.674C170.704 311.354 170.384 311.052 170.046 310.77ZM168.5 306.349L169.617 303.054C169.211 303.089 168.807 303.147 168.408 303.23C167.485 303.479 166.895 304.826 167.693 305.638C167.919 305.888 168.219 306.104 168.5 306.349Z" fill="#AAC0DA"/>
<path d="M167.508 318.448C167.484 318.453 167.459 318.453 167.434 318.448L164.726 317.525C164.668 317.506 164.62 317.464 164.592 317.41C164.571 317.352 164.571 317.288 164.592 317.23L165.053 315.919L164.739 315.716C164.398 315.495 164.075 315.287 163.761 315.043C162.84 314.358 162.178 313.383 161.883 312.274C161.65 311.32 161.704 310.318 162.04 309.395C162.061 309.338 162.102 309.29 162.155 309.261C162.214 309.24 162.277 309.24 162.335 309.261L165.229 310.239C165.282 310.257 165.328 310.294 165.356 310.344C165.384 310.393 165.393 310.451 165.381 310.507C165.261 310.918 165.263 311.355 165.387 311.765C165.512 312.175 165.753 312.539 166.082 312.814L167.254 309.348L166.917 309.113C166.553 308.864 166.193 308.61 165.833 308.347C165.234 307.935 164.744 307.382 164.407 306.737C164.06 306.031 163.941 305.234 164.066 304.457C164.183 303.516 164.56 302.626 165.155 301.887C165.584 301.352 166.125 300.919 166.741 300.619C167.357 300.318 168.032 300.157 168.717 300.147C169.095 300.142 169.473 300.166 169.848 300.217L170.337 300.267L170.946 298.482C170.955 298.453 170.97 298.426 170.99 298.403C171.01 298.381 171.034 298.362 171.061 298.349C171.088 298.335 171.117 298.328 171.148 298.326C171.178 298.324 171.208 298.328 171.236 298.338L173.94 299.261C173.97 299.27 173.997 299.285 174.02 299.304C174.043 299.324 174.062 299.348 174.076 299.375C174.09 299.402 174.098 299.432 174.1 299.462C174.102 299.493 174.098 299.523 174.088 299.552L173.871 300.189C173.733 300.6 173.594 301.01 173.451 301.421C174.348 301.933 175.104 302.659 175.652 303.534C176.236 304.476 176.456 305.598 176.271 306.691C176.238 306.889 176.197 307.083 176.151 307.277L176.091 307.563C176.084 307.594 176.07 307.624 176.051 307.65C176.032 307.677 176.008 307.699 175.98 307.715C175.95 307.728 175.918 307.735 175.885 307.735C175.853 307.735 175.821 307.728 175.791 307.715L172.847 306.718C172.791 306.699 172.744 306.659 172.717 306.607C172.689 306.555 172.683 306.494 172.699 306.437C172.799 306.135 172.821 305.813 172.764 305.5C172.706 305.187 172.572 304.894 172.372 304.646L171.315 307.77C171.356 307.799 171.399 307.825 171.444 307.849C172.203 308.282 172.908 308.804 173.544 309.404C174.047 309.86 174.418 310.444 174.615 311.094C174.813 311.745 174.83 312.436 174.665 313.095C174.46 314.218 173.868 315.234 172.991 315.964C172.113 316.695 171.007 317.094 169.866 317.091C169.451 317.091 169.026 317.064 168.588 317.031L168.172 317.004L167.739 318.268C167.73 318.297 167.715 318.324 167.695 318.347C167.675 318.37 167.651 318.389 167.623 318.402C167.591 318.429 167.55 318.446 167.508 318.448ZM165.095 317.156L167.365 317.927L167.776 316.708C167.791 316.66 167.822 316.619 167.864 316.59C167.906 316.562 167.956 316.548 168.006 316.552L168.606 316.593C169.035 316.625 169.437 316.648 169.848 316.653C170.78 316.655 171.689 316.363 172.445 315.818C173.373 315.153 174.003 314.151 174.199 313.026C174.344 312.449 174.328 311.843 174.154 311.274C173.98 310.705 173.654 310.194 173.211 309.796C172.6 309.222 171.923 308.722 171.195 308.306L170.987 308.176L170.9 308.121C170.855 308.094 170.821 308.053 170.804 308.004C170.786 307.956 170.786 307.902 170.803 307.853L172.049 304.19C172.059 304.152 172.08 304.118 172.108 304.091C172.137 304.064 172.172 304.046 172.21 304.037C172.248 304.029 172.288 304.029 172.325 304.039C172.363 304.048 172.398 304.067 172.427 304.093C172.746 304.375 172.985 304.738 173.117 305.144C173.249 305.55 173.271 305.983 173.179 306.4L175.68 307.249V307.212C175.722 307.023 175.763 306.838 175.791 306.654C175.957 305.669 175.761 304.657 175.237 303.807C174.729 302.996 174.026 302.325 173.193 301.855C173.093 301.808 173.016 301.725 172.978 301.622C172.94 301.519 172.944 301.405 172.99 301.306C173.133 300.899 173.271 300.484 173.41 300.074L173.553 299.654L171.292 298.888L170.687 300.618C170.67 300.668 170.635 300.711 170.59 300.739C170.544 300.766 170.491 300.778 170.438 300.77H170.369H170.263L169.76 300.72C169.408 300.669 169.053 300.647 168.699 300.655C168.077 300.663 167.466 300.808 166.908 301.081C166.349 301.353 165.858 301.744 165.468 302.228C164.929 302.903 164.587 303.715 164.481 304.573C164.368 305.255 164.473 305.956 164.781 306.575C165.083 307.156 165.523 307.654 166.064 308.024C166.419 308.283 166.779 308.532 167.139 308.781L167.6 309.113C167.641 309.142 167.671 309.183 167.685 309.231C167.7 309.278 167.7 309.329 167.683 309.376L166.354 313.308C166.342 313.341 166.322 313.371 166.297 313.396C166.271 313.42 166.24 313.439 166.207 313.451C166.174 313.462 166.139 313.466 166.104 313.461C166.07 313.456 166.037 313.443 166.008 313.423C165.549 313.14 165.189 312.722 164.978 312.226C164.766 311.731 164.714 311.181 164.827 310.654L162.381 309.778C162.134 310.553 162.106 311.382 162.303 312.172C162.576 313.175 163.179 314.056 164.015 314.673C164.315 314.904 164.629 315.107 164.965 315.324C165.118 315.426 165.275 315.522 165.427 315.629C165.469 315.657 165.501 315.699 165.518 315.747C165.534 315.795 165.535 315.848 165.519 315.896L165.095 317.156ZM169.368 314.452C169.195 314.452 169.022 314.438 168.851 314.41C168.818 314.405 168.786 314.392 168.758 314.373C168.73 314.354 168.707 314.329 168.69 314.3C168.673 314.271 168.662 314.239 168.659 314.205C168.655 314.172 168.66 314.138 168.671 314.106L169.824 310.696C169.838 310.659 169.86 310.627 169.889 310.601C169.918 310.575 169.953 310.557 169.991 310.548C170.028 310.539 170.067 310.539 170.104 310.548C170.141 310.558 170.175 310.577 170.203 310.604C170.304 310.7 170.41 310.788 170.512 310.88C170.749 311.078 170.969 311.294 171.172 311.526C171.339 311.722 171.455 311.956 171.509 312.207C171.564 312.458 171.556 312.719 171.486 312.966C171.407 313.256 171.263 313.524 171.065 313.75C170.868 313.976 170.622 314.154 170.346 314.272C170.033 314.391 169.702 314.452 169.368 314.452ZM169.197 313.991C169.533 314.015 169.87 313.967 170.184 313.847C170.392 313.756 170.577 313.619 170.725 313.446C170.873 313.274 170.98 313.07 171.038 312.851C171.089 312.675 171.095 312.489 171.057 312.311C171.018 312.132 170.936 311.965 170.817 311.826C170.631 311.611 170.427 311.412 170.207 311.231L170.152 311.18L169.197 313.991ZM168.5 306.607C168.444 306.607 168.391 306.588 168.348 306.552L168.085 306.326C167.889 306.171 167.703 306.004 167.526 305.828C167.332 305.629 167.195 305.383 167.129 305.113C167.062 304.844 167.069 304.562 167.148 304.296C167.224 304.001 167.374 303.73 167.584 303.51C167.794 303.289 168.057 303.126 168.348 303.036C168.626 302.97 168.908 302.925 169.192 302.902L169.589 302.856C169.627 302.851 169.667 302.856 169.703 302.869C169.739 302.883 169.771 302.905 169.797 302.934C169.821 302.965 169.838 303.001 169.845 303.04C169.852 303.079 169.85 303.118 169.838 303.156L168.722 306.451C168.708 306.487 168.686 306.519 168.658 306.545C168.63 306.572 168.597 306.591 168.56 306.603L168.5 306.607ZM169.285 303.377H169.243C168.982 303.398 168.722 303.44 168.468 303.502C168.257 303.571 168.067 303.691 167.914 303.853C167.762 304.014 167.652 304.21 167.596 304.425C167.538 304.613 167.531 304.813 167.576 305.005C167.622 305.196 167.718 305.372 167.854 305.514C168.016 305.675 168.191 305.828 168.38 305.975L169.285 303.377Z" fill="#231F20"/>
<path d="M163.872 290.342C163.811 290.342 163.752 290.318 163.709 290.274C163.665 290.231 163.641 290.172 163.641 290.111V288.468C163.641 288.407 163.665 288.349 163.709 288.305C163.752 288.262 163.811 288.238 163.872 288.238C163.933 288.238 163.992 288.262 164.035 288.305C164.078 288.349 164.103 288.407 164.103 288.468V290.12C164.1 290.18 164.075 290.236 164.032 290.278C163.989 290.319 163.931 290.342 163.872 290.342Z" fill="#E6E7E8"/>
<path d="M163.872 293.812C163.811 293.812 163.752 293.787 163.709 293.744C163.665 293.701 163.641 293.642 163.641 293.581V291.92C163.641 291.859 163.665 291.8 163.709 291.757C163.752 291.713 163.811 291.689 163.872 291.689C163.933 291.689 163.992 291.713 164.035 291.757C164.078 291.8 164.103 291.859 164.103 291.92V293.563C164.105 293.594 164.101 293.626 164.091 293.657C164.08 293.687 164.064 293.714 164.042 293.738C164.02 293.761 163.994 293.78 163.965 293.793C163.935 293.805 163.904 293.812 163.872 293.812Z" fill="#E6E7E8"/>
<path d="M166.419 291.246H164.777C164.715 291.246 164.657 291.222 164.613 291.179C164.57 291.135 164.546 291.077 164.546 291.015C164.546 290.954 164.57 290.896 164.613 290.852C164.657 290.809 164.715 290.785 164.777 290.785H166.419C166.481 290.785 166.539 290.809 166.582 290.852C166.626 290.896 166.65 290.954 166.65 291.015C166.65 291.077 166.626 291.135 166.582 291.179C166.539 291.222 166.481 291.246 166.419 291.246Z" fill="#E6E7E8"/>
<path d="M162.967 291.246H161.32C161.259 291.246 161.2 291.222 161.157 291.179C161.114 291.135 161.089 291.077 161.089 291.015C161.089 290.954 161.114 290.896 161.157 290.852C161.2 290.809 161.259 290.785 161.32 290.785H162.967C163.029 290.785 163.087 290.809 163.131 290.852C163.174 290.896 163.198 290.954 163.198 291.015C163.198 291.077 163.174 291.135 163.131 291.179C163.087 291.222 163.029 291.246 162.967 291.246Z" fill="#E6E7E8"/>
<path d="M184.443 300.046C184.381 300.046 184.323 300.022 184.279 299.978C184.236 299.935 184.212 299.876 184.212 299.815V298.172C184.212 298.111 184.236 298.052 184.279 298.009C184.323 297.966 184.381 297.942 184.443 297.942C184.504 297.942 184.563 297.966 184.606 298.009C184.649 298.052 184.673 298.111 184.673 298.172V299.81C184.674 299.841 184.668 299.872 184.657 299.9C184.646 299.929 184.629 299.955 184.607 299.977C184.586 299.999 184.56 300.016 184.532 300.028C184.504 300.04 184.473 300.046 184.443 300.046Z" fill="#E6E7E8"/>
<path d="M184.443 303.502C184.381 303.502 184.323 303.478 184.279 303.434C184.236 303.391 184.212 303.332 184.212 303.271V301.624C184.212 301.563 184.236 301.504 184.279 301.461C184.323 301.417 184.381 301.393 184.443 301.393C184.503 301.394 184.561 301.419 184.604 301.462C184.647 301.505 184.672 301.563 184.673 301.624V303.271C184.672 303.332 184.647 303.39 184.604 303.433C184.561 303.476 184.503 303.501 184.443 303.502Z" fill="#E6E7E8"/>
<path d="M186.99 300.95H185.347C185.286 300.95 185.228 300.926 185.184 300.883C185.141 300.839 185.117 300.781 185.117 300.72C185.117 300.658 185.141 300.6 185.184 300.556C185.228 300.513 185.286 300.489 185.347 300.489H186.99C187.051 300.489 187.11 300.513 187.153 300.556C187.197 300.6 187.221 300.658 187.221 300.72C187.221 300.781 187.197 300.839 187.153 300.883C187.11 300.926 187.051 300.95 186.99 300.95Z" fill="#E6E7E8"/>
<path d="M183.539 300.95H181.891C181.83 300.95 181.771 300.926 181.728 300.883C181.685 300.839 181.661 300.781 181.661 300.72C181.662 300.659 181.687 300.601 181.73 300.558C181.773 300.515 181.831 300.49 181.891 300.489H183.539C183.6 300.49 183.658 300.515 183.701 300.558C183.744 300.601 183.768 300.659 183.769 300.72C183.769 300.781 183.745 300.839 183.702 300.883C183.659 300.926 183.6 300.95 183.539 300.95Z" fill="#E6E7E8"/>
<path d="M163.872 326.149C163.811 326.149 163.752 326.125 163.709 326.082C163.665 326.039 163.641 325.98 163.641 325.919V324.267C163.641 324.206 163.665 324.147 163.709 324.104C163.752 324.06 163.811 324.036 163.872 324.036C163.933 324.036 163.992 324.06 164.035 324.104C164.078 324.147 164.103 324.206 164.103 324.267V325.909C164.104 325.941 164.099 325.972 164.088 326.001C164.077 326.03 164.06 326.056 164.038 326.079C164.017 326.101 163.991 326.119 163.962 326.131C163.934 326.143 163.903 326.149 163.872 326.149Z" fill="#E6E7E8"/>
<path d="M163.872 329.606C163.811 329.606 163.752 329.581 163.709 329.538C163.665 329.495 163.641 329.436 163.641 329.375V327.728C163.641 327.666 163.665 327.608 163.709 327.564C163.752 327.521 163.811 327.497 163.872 327.497C163.933 327.498 163.991 327.523 164.034 327.566C164.077 327.609 164.101 327.667 164.103 327.728V329.375C164.103 329.436 164.078 329.495 164.035 329.538C163.992 329.581 163.933 329.606 163.872 329.606Z" fill="#E6E7E8"/>
<path d="M166.419 327.035H164.777C164.715 327.035 164.657 327.011 164.613 326.968C164.57 326.924 164.546 326.866 164.546 326.805C164.546 326.743 164.57 326.685 164.613 326.641C164.657 326.598 164.715 326.574 164.777 326.574H166.419C166.481 326.574 166.539 326.598 166.582 326.641C166.626 326.685 166.65 326.743 166.65 326.805C166.65 326.866 166.626 326.924 166.582 326.968C166.539 327.011 166.481 327.035 166.419 327.035Z" fill="#E6E7E8"/>
<path d="M162.967 327.035H161.32C161.259 327.035 161.2 327.011 161.157 326.968C161.114 326.924 161.089 326.866 161.089 326.805C161.091 326.744 161.115 326.686 161.158 326.643C161.201 326.6 161.259 326.575 161.32 326.574H162.967C163.028 326.575 163.086 326.6 163.129 326.643C163.172 326.686 163.197 326.744 163.198 326.805C163.198 326.866 163.174 326.924 163.131 326.968C163.087 327.011 163.029 327.035 162.967 327.035Z" fill="#E6E7E8"/>
</g>
<path d="M27.9375 95H81.6973V81.2305H50.9844V80.6445L64.7539 68.9258C76.4238 58.8184 80.7695 53.3984 80.7695 44.4141V44.3164C80.7695 31.8164 70.0273 23.2715 54.0117 23.2715C38.1426 23.2715 26.9121 32.793 26.9121 46.6113V47.0508H43.3184L43.3672 46.5137C43.6602 40.8496 47.7129 36.7969 54.0605 36.7969C59.5781 36.7969 63.4355 40.3613 63.4355 45.3418V45.4395C63.4355 49.834 61.7266 53.0566 52.8887 60.8691L27.9375 82.793V95Z" fill="#B6C9DE"/>
<defs>
<linearGradient id="paint0_linear" x1="-121" y1="167.395" x2="868.85" y2="811.45" gradientUnits="userSpaceOnUse">
<stop stop-color="#AAC0DA"/>
<stop offset="0.895833" stop-color="#EDF0F3"/>
</linearGradient>
<clipPath id="clip0">
<rect width="270" height="350" fill="white" transform="translate(0 72)"/>
</clipPath>
</defs>
</svg>
