<svg width="270" height="421" viewBox="0 0 270 421" fill="none" xmlns="http://www.w3.org/2000/svg">
<g clip-path="url(#clip0)">
<rect width="270" height="350" transform="translate(0 71)" fill="#FBFBFD"/>
<path d="M-682 167.395C-611.216 180.337 -567.184 214.783 -549.904 270.732C-523.985 354.655 -474.229 396.521 -414.106 380.159C-353.982 363.797 -325.966 305.613 -350.5 233.5C-375.034 161.387 -301.097 113.92 -261.139 115.833C-221.182 117.747 -187.062 137.981 -171.326 167.596C-136.526 233.091 -211.102 321.345 -173.918 379.929C-136.733 438.513 -78.5 436 -28.5 384.5C-28.5 384.5 -1.38722 347.802 -2.9658e-05 344.5C27.8893 278.118 209 92 285 108C365.037 124.85 391.619 223.769 325 300" stroke="url(#paint0_linear)" stroke-opacity="0.3" stroke-width="50" stroke-linecap="round"/>
<path d="M209.021 298.365H140.588V371.753H209.021V298.365Z" fill="white"/>
<path d="M209.021 372H140.589C140.523 372 140.46 371.974 140.414 371.928C140.368 371.881 140.342 371.819 140.342 371.753V298.365C140.342 298.299 140.368 298.237 140.414 298.19C140.46 298.144 140.523 298.118 140.589 298.118H209.021C209.086 298.118 209.149 298.144 209.195 298.19C209.242 298.237 209.268 298.299 209.268 298.365V371.753C209.268 371.819 209.242 371.881 209.195 371.928C209.149 371.974 209.086 372 209.021 372ZM140.835 371.506H208.774V298.612H140.835V371.506Z" fill="#231F20"/>
<path d="M209.021 298.365H140.588V306.49H209.021V298.365Z" fill="white"/>
<path d="M209.021 306.737H140.589C140.523 306.737 140.46 306.711 140.414 306.665C140.368 306.618 140.342 306.556 140.342 306.49V298.365C140.342 298.299 140.368 298.237 140.414 298.19C140.46 298.144 140.523 298.118 140.589 298.118H209.021C209.086 298.118 209.149 298.144 209.195 298.19C209.242 298.237 209.268 298.299 209.268 298.365V306.49C209.268 306.556 209.242 306.618 209.195 306.665C209.149 306.711 209.086 306.737 209.021 306.737ZM140.835 306.243H208.774V298.612H140.835V306.243Z" fill="#231F20"/>
<path d="M144.246 303.331C144.821 303.331 145.288 302.864 145.288 302.289C145.288 301.714 144.821 301.248 144.246 301.248C143.671 301.248 143.205 301.714 143.205 302.289C143.205 302.864 143.671 303.331 144.246 303.331Z" fill="#AAC0DA"/>
<path d="M147.988 303.331C148.563 303.331 149.029 302.864 149.029 302.289C149.029 301.714 148.563 301.248 147.988 301.248C147.413 301.248 146.946 301.714 146.946 302.289C146.946 302.864 147.413 303.331 147.988 303.331Z" fill="#D1D3D4"/>
<path d="M151.73 303.331C152.305 303.331 152.771 302.864 152.771 302.289C152.771 301.714 152.305 301.248 151.73 301.248C151.154 301.248 150.688 301.714 150.688 302.289C150.688 302.864 151.154 303.331 151.73 303.331Z" fill="#D1D3D4"/>
<path d="M170.488 338.463C170.488 338.463 155.229 340.639 153.181 338.463C151.132 336.286 146.438 323.866 146.438 323.866L141.008 328.348C141.008 328.348 145.085 351.598 152.001 351.475C158.917 351.351 174.407 345.694 174.407 345.694L170.488 338.463Z" fill="white"/>
<path d="M151.942 351.722C144.932 351.722 140.929 329.345 140.761 328.388C140.755 328.345 140.759 328.302 140.774 328.261C140.789 328.221 140.813 328.184 140.845 328.156L146.275 323.673C146.306 323.649 146.342 323.631 146.38 323.623C146.419 323.614 146.459 323.615 146.497 323.624C146.534 323.636 146.569 323.656 146.598 323.682C146.627 323.709 146.65 323.741 146.665 323.777C146.709 323.901 151.364 336.177 153.354 338.295C154.963 339.998 166.237 338.818 170.448 338.216C170.498 338.21 170.548 338.219 170.593 338.242C170.638 338.265 170.675 338.301 170.7 338.344L174.624 345.556C174.641 345.587 174.652 345.621 174.654 345.656C174.657 345.691 174.652 345.726 174.64 345.759C174.628 345.791 174.608 345.821 174.584 345.846C174.559 345.871 174.529 345.89 174.496 345.902C174.338 345.961 158.877 351.598 152.001 351.722H151.942ZM141.274 328.447C141.63 330.377 145.618 351.228 151.937 351.228H151.991C158.29 351.114 171.963 346.292 174.056 345.536L170.354 338.729C169.564 338.838 166.173 339.287 162.619 339.524C157.14 339.889 153.901 339.588 152.998 338.631C151.103 336.616 147.099 326.29 146.329 324.276L141.274 328.447Z" fill="#231F20"/>
<path d="M129.679 272.242H61.2466V345.63H129.679V272.242Z" fill="white"/>
<path d="M129.704 345.882H61.2468C61.1814 345.882 61.1186 345.856 61.0723 345.81C61.026 345.763 61 345.701 61 345.635V272.247C61 272.181 61.026 272.119 61.0723 272.072C61.1186 272.026 61.1814 272 61.2468 272H129.704C129.769 272 129.832 272.026 129.878 272.072C129.925 272.119 129.951 272.181 129.951 272.247V345.635C129.951 345.701 129.925 345.763 129.878 345.81C129.832 345.856 129.769 345.882 129.704 345.882ZM61.5183 345.388H129.432V272.494H61.4936L61.5183 345.388Z" fill="#231F20"/>
<path d="M129.679 272.242H61.2466V280.367H129.679V272.242Z" fill="white"/>
<path d="M129.704 280.619H61.2468C61.1818 280.618 61.1197 280.591 61.0737 280.545C61.0277 280.499 61.0013 280.437 61 280.372V272.247C61 272.181 61.026 272.119 61.0723 272.072C61.1186 272.026 61.1814 272 61.2468 272H129.704C129.769 272 129.832 272.026 129.878 272.072C129.925 272.119 129.951 272.181 129.951 272.247V280.372C129.951 280.437 129.925 280.5 129.878 280.547C129.832 280.593 129.769 280.619 129.704 280.619ZM61.5183 280.125H129.432V272.494H61.4936L61.5183 280.125Z" fill="#231F20"/>
<path d="M64.9048 277.208C65.4801 277.208 65.9464 276.741 65.9464 276.166C65.9464 275.591 65.4801 275.125 64.9048 275.125C64.3296 275.125 63.8633 275.591 63.8633 276.166C63.8633 276.741 64.3296 277.208 64.9048 277.208Z" fill="#AAC0DA"/>
<path d="M68.6461 277.208C69.2213 277.208 69.6876 276.741 69.6876 276.166C69.6876 275.591 69.2213 275.125 68.6461 275.125C68.0708 275.125 67.6045 275.591 67.6045 276.166C67.6045 276.741 68.0708 277.208 68.6461 277.208Z" fill="#D1D3D4"/>
<path d="M72.3882 277.208C72.9635 277.208 73.4298 276.741 73.4298 276.166C73.4298 275.591 72.9635 275.125 72.3882 275.125C71.813 275.125 71.3467 275.591 71.3467 276.166C71.3467 276.741 71.813 277.208 72.3882 277.208Z" fill="#D1D3D4"/>
<path d="M79.4715 337.248L77.8623 345.635H103.99L102.554 341.375L79.4715 337.248Z" fill="#231F20"/>
<path d="M103.99 345.882H77.8724C77.8365 345.882 77.801 345.874 77.7686 345.859C77.7361 345.843 77.7075 345.821 77.6848 345.793C77.6608 345.766 77.6435 345.733 77.6341 345.698C77.6247 345.663 77.6234 345.626 77.6305 345.591L79.2397 337.199C79.2517 337.135 79.2886 337.078 79.3422 337.041C79.3958 337.004 79.4619 336.99 79.5261 337.001L102.603 341.128C102.647 341.136 102.688 341.155 102.721 341.184C102.755 341.212 102.781 341.249 102.796 341.291L104.232 345.551C104.245 345.588 104.248 345.628 104.243 345.666C104.237 345.705 104.222 345.742 104.2 345.773C104.177 345.805 104.147 345.831 104.112 345.849C104.078 345.867 104.039 345.877 104 345.877L103.99 345.882ZM78.1636 345.388H103.645L102.366 341.592L79.6593 337.535L78.1636 345.388Z" fill="#231F20"/>
<path d="M112.767 313.51L127.586 331.364L121.06 334.035L105.185 317.143L112.767 313.51Z" fill="white"/>
<path d="M121.06 334.282C121.027 334.282 120.994 334.275 120.963 334.261C120.932 334.248 120.905 334.228 120.883 334.203L105.022 317.311C104.995 317.283 104.975 317.249 104.964 317.212C104.953 317.175 104.951 317.136 104.958 317.098C104.965 317.06 104.981 317.023 105.005 316.992C105.029 316.961 105.061 316.937 105.096 316.921L112.678 313.288C112.728 313.264 112.784 313.257 112.838 313.269C112.891 313.28 112.939 313.31 112.975 313.352L127.784 331.206C127.809 331.236 127.826 331.271 127.835 331.309C127.843 331.347 127.843 331.386 127.833 331.424C127.823 331.461 127.804 331.496 127.779 331.525C127.753 331.554 127.721 331.577 127.685 331.591L121.164 334.262C121.132 334.278 121.096 334.284 121.06 334.282ZM105.6 317.222L121.124 333.744L127.181 331.275L112.703 313.83L105.6 317.222Z" fill="#231F20"/>
<path d="M108.315 304.204L115.823 313.988L105.59 319.601L108.315 304.204Z" fill="#AAC0DA"/>
<path d="M108.315 304.229C107.688 303.242 93.4516 298.76 88.7818 302.047C84.1121 305.335 79.1609 330.757 77.8726 338.626L106.326 345.941C106.326 345.941 111.765 309.783 108.315 304.229Z" fill="#AAC0DA"/>
<path d="M107.722 339.563H107.692C107.66 339.558 107.63 339.546 107.602 339.529C107.574 339.512 107.55 339.489 107.532 339.463C107.513 339.436 107.499 339.406 107.492 339.374C107.485 339.342 107.484 339.309 107.49 339.277C107.515 339.055 110.037 317.064 109.223 311.555C109.218 311.522 109.219 311.489 109.227 311.458C109.235 311.426 109.249 311.396 109.269 311.369C109.288 311.343 109.313 311.321 109.341 311.304C109.369 311.287 109.4 311.276 109.433 311.271C109.465 311.266 109.498 311.268 109.53 311.276C109.562 311.283 109.592 311.298 109.618 311.317C109.644 311.337 109.667 311.361 109.683 311.389C109.7 311.417 109.711 311.448 109.716 311.481C110.541 317.064 108.092 338.428 107.989 339.331C107.984 339.397 107.953 339.459 107.903 339.502C107.853 339.546 107.788 339.568 107.722 339.563Z" fill="#231F20"/>
<path d="M100.426 298.074C98.8577 297.624 97.4424 296.754 96.3341 295.556C95.8181 295.033 95.4738 294.365 95.3468 293.641C95.2968 293.278 95.366 292.908 95.5441 292.588C95.7221 292.267 95.9993 292.013 96.3341 291.864C96.0018 291.638 95.7281 291.336 95.5358 290.983C95.3435 290.63 95.2381 290.237 95.2283 289.835C95.2187 289.029 95.4286 288.235 95.8355 287.54C96.3291 286.621 97.1436 285.748 98.1803 285.718C97.8051 284.909 97.4299 283.971 97.8002 283.161C98.0115 282.765 98.3166 282.426 98.6887 282.174C99.3817 281.635 100.124 281.162 100.905 280.762C101.325 280.55 101.858 280.362 102.233 280.644C102.465 279.828 102.92 279.093 103.547 278.521C104.174 277.95 104.948 277.565 105.782 277.41C106.609 277.241 107.469 277.352 108.226 277.726C108.934 278.248 109.595 278.831 110.2 279.469C111.41 279.118 113.33 279.469 114.223 280.362C114.61 280.769 114.88 281.273 115.005 281.82C115.13 282.367 115.105 282.938 114.934 283.472C115.804 283.963 116.556 284.637 117.141 285.447C117.428 285.853 117.622 286.319 117.707 286.81C117.793 287.301 117.768 287.805 117.634 288.285C117.487 288.76 117.187 289.172 116.781 289.458C116.374 289.744 115.885 289.887 115.388 289.865C115.785 290.289 116.014 290.843 116.033 291.423C116.051 292.004 115.857 292.571 115.487 293.019C115.096 293.448 114.585 293.751 114.02 293.888C113.455 294.025 112.863 293.991 112.318 293.789C112.164 293.715 111.995 293.68 111.824 293.685C111.638 293.748 111.47 293.853 111.331 293.991C110.837 294.381 110.195 294.248 109.647 294.485C108.905 294.92 108.2 295.415 107.54 295.966C106.854 296.428 106.146 296.854 105.417 297.244C104.612 297.679 103.847 298.34 102.949 298.602C102.159 298.834 101.725 298.488 100.974 298.256L100.426 298.074Z" fill="white"/>
<path d="M102.445 298.918C102.081 298.903 101.724 298.816 101.394 298.661C101.241 298.607 101.083 298.543 100.9 298.488L100.338 298.306C98.7309 297.839 97.2809 296.945 96.1417 295.719C95.5873 295.161 95.2229 294.443 95.1002 293.666C95.0616 293.32 95.1111 292.971 95.244 292.65C95.3769 292.328 95.589 292.046 95.8604 291.829C95.3188 291.311 94.9986 290.604 94.9669 289.855C94.9613 289.008 95.1847 288.176 95.6136 287.446C95.89 286.923 96.6354 285.767 97.8102 285.535C97.4696 284.746 97.208 283.877 97.5733 283.067C97.8019 282.638 98.1303 282.271 98.5309 281.996C99.2382 281.443 99.9931 280.954 100.787 280.535C101.172 280.304 101.627 280.216 102.07 280.288C102.352 279.491 102.839 278.783 103.482 278.234C104.125 277.686 104.902 277.316 105.733 277.163C106.612 276.982 107.526 277.1 108.33 277.499C109.027 278.014 109.687 278.578 110.304 279.187C111.543 278.896 113.468 279.212 114.416 280.175C114.811 280.591 115.094 281.1 115.239 281.655C115.384 282.21 115.386 282.793 115.245 283.349C116.084 283.838 116.807 284.501 117.368 285.294C117.676 285.737 117.88 286.244 117.964 286.778C118.049 287.311 118.012 287.857 117.857 288.374C117.712 288.812 117.452 289.203 117.105 289.507C116.758 289.811 116.336 290.016 115.882 290.102C116.167 290.574 116.298 291.124 116.259 291.674C116.219 292.225 116.01 292.75 115.66 293.177C115.237 293.651 114.681 293.986 114.064 294.137C113.446 294.287 112.798 294.247 112.205 294.021H112.15C112.056 293.978 111.953 293.954 111.849 293.952C111.737 293.985 111.635 294.046 111.553 294.13L111.454 294.209C111.134 294.424 110.763 294.551 110.378 294.579C110.152 294.6 109.931 294.655 109.722 294.742C109.222 295.001 108.754 295.316 108.325 295.68C108.093 295.857 107.866 296.03 107.648 296.173C106.962 296.639 106.25 297.066 105.516 297.452C105.254 297.6 104.993 297.768 104.721 297.945C104.199 298.321 103.625 298.62 103.018 298.834C102.832 298.888 102.639 298.916 102.445 298.918ZM101.769 280.757C101.503 280.776 101.245 280.856 101.014 280.989C100.246 281.384 99.5156 281.848 98.832 282.376C98.496 282.606 98.2174 282.91 98.0175 283.265C97.6917 283.971 98.0472 284.849 98.4026 285.609C98.422 285.646 98.4322 285.687 98.4322 285.728C98.4322 285.769 98.422 285.81 98.4026 285.846C98.3801 285.88 98.3502 285.909 98.3151 285.929C98.28 285.95 98.2407 285.962 98.2002 285.965C97.0698 285.995 96.3293 287.155 96.0628 287.653C95.6795 288.311 95.48 289.059 95.4852 289.82C95.4927 290.183 95.5862 290.538 95.7578 290.857C95.9294 291.176 96.1744 291.45 96.4725 291.656C96.513 291.68 96.5458 291.714 96.5672 291.756C96.5885 291.797 96.5973 291.844 96.5926 291.891C96.5879 291.937 96.5699 291.981 96.5407 292.017C96.5115 292.054 96.4724 292.081 96.4281 292.096C96.147 292.228 95.9161 292.447 95.7694 292.721C95.6227 292.995 95.5681 293.309 95.6136 293.616C95.7293 294.29 96.0519 294.911 96.5366 295.393C97.6142 296.564 98.9919 297.418 100.52 297.861C100.698 297.926 100.886 297.985 101.073 298.044C101.261 298.103 101.429 298.167 101.567 298.227C101.967 298.444 102.435 298.501 102.875 298.385C103.435 298.184 103.964 297.905 104.445 297.555C104.716 297.383 104.993 297.2 105.279 297.062C106 296.677 106.7 296.255 107.377 295.798C107.589 295.65 107.806 295.482 108.033 295.304C108.489 294.921 108.985 294.59 109.514 294.317C109.766 294.212 110.032 294.144 110.304 294.115C110.606 294.098 110.899 294.003 111.153 293.838L111.247 293.769C111.394 293.624 111.582 293.526 111.785 293.488C111.969 293.473 112.154 293.505 112.323 293.582H112.372C112.873 293.767 113.418 293.799 113.936 293.674C114.455 293.548 114.925 293.27 115.285 292.876C115.612 292.475 115.784 291.969 115.77 291.452C115.755 290.934 115.555 290.439 115.206 290.057C115.168 290.022 115.142 289.976 115.133 289.925C115.123 289.875 115.129 289.822 115.152 289.776C115.173 289.728 115.209 289.689 115.254 289.663C115.299 289.638 115.352 289.627 115.403 289.633C115.845 289.657 116.283 289.532 116.646 289.278C117.008 289.023 117.275 288.655 117.402 288.231C117.526 287.786 117.549 287.319 117.468 286.865C117.388 286.411 117.207 285.98 116.938 285.605C116.376 284.825 115.65 284.178 114.811 283.709C114.763 283.68 114.727 283.635 114.708 283.582C114.689 283.529 114.689 283.471 114.707 283.418C114.867 282.923 114.89 282.394 114.774 281.886C114.659 281.379 114.409 280.912 114.051 280.535C113.212 279.671 111.365 279.385 110.279 279.706C110.248 279.717 110.215 279.722 110.181 279.72C110.148 279.719 110.115 279.71 110.085 279.695C110.055 279.681 110.028 279.66 110.007 279.635C109.985 279.609 109.968 279.58 109.959 279.548C109.372 278.972 108.749 278.434 108.093 277.938C107.388 277.585 106.584 277.48 105.812 277.642C105.024 277.789 104.293 278.152 103.7 278.691C103.108 279.23 102.676 279.923 102.455 280.693C102.445 280.732 102.425 280.769 102.398 280.799C102.37 280.829 102.336 280.852 102.297 280.866C102.259 280.88 102.217 280.884 102.177 280.878C102.136 280.872 102.098 280.856 102.065 280.831C101.976 280.778 101.873 280.752 101.769 280.757Z" fill="#231F20"/>
<path d="M111.78 294.312C111.78 294.312 112.89 298.261 112.234 298.755C111.577 299.248 110.259 298.37 110.259 298.37" fill="white"/>
<path d="M111.706 299.189C111.128 299.133 110.574 298.929 110.097 298.597C110.044 298.558 110.008 298.501 109.997 298.436C109.986 298.372 110.001 298.305 110.038 298.251C110.075 298.198 110.131 298.162 110.195 298.15C110.259 298.138 110.324 298.151 110.378 298.187C110.684 298.4 111.657 298.923 112.076 298.582C112.397 298.325 112.076 296.203 111.543 294.376C111.526 294.314 111.534 294.247 111.566 294.19C111.597 294.133 111.649 294.09 111.711 294.07C111.775 294.054 111.842 294.062 111.899 294.095C111.956 294.127 111.999 294.18 112.017 294.243C112.289 295.201 113.118 298.38 112.387 298.967C112.194 299.12 111.952 299.199 111.706 299.189Z" fill="#231F20"/>
<path d="M113.35 286.992C113.52 287.17 113.621 287.402 113.636 287.648C113.741 288.515 113.684 289.394 113.468 290.24C113.099 291.913 112.626 293.562 112.052 295.176C111.344 297.328 110.59 299.467 109.791 301.593C109.297 302.936 105.728 301.84 105.235 301.233L104.065 306.811C104.065 306.811 102.218 306.737 99.7799 304.506C97.3413 302.275 97.5339 301.588 97.5339 301.588L99.7552 295.423C99.7552 295.423 102.09 296.183 104.366 293.838C104.726 293.463 105.032 292.792 105.457 292.511C105.975 292.16 106.572 292.244 107.036 291.721C107.247 291.475 107.397 291.184 107.476 290.871C107.555 290.557 107.56 290.23 107.49 289.914C107.461 289.776 107.426 289.608 107.53 289.514C107.598 289.466 107.679 289.44 107.762 289.44C107.992 289.4 108.212 289.314 108.408 289.188C108.605 289.062 108.775 288.899 108.908 288.707C109.041 288.515 109.135 288.299 109.184 288.07C109.233 287.842 109.236 287.606 109.193 287.377C110.087 287.663 110.971 286.952 111.662 286.301C111.449 286.508 113.039 286.794 113.064 286.794C113.17 286.843 113.266 286.91 113.35 286.992Z" fill="white"/>
<path d="M104.065 307.058C103.986 307.058 102.09 306.954 99.622 304.683C97.2575 302.516 97.2477 301.721 97.302 301.519L99.5233 295.344C99.5446 295.283 99.5892 295.232 99.6474 295.203C99.7056 295.175 99.7727 295.17 99.8343 295.191C99.9231 295.22 102.056 295.867 104.188 293.67C104.334 293.507 104.466 293.332 104.583 293.147C104.777 292.827 105.026 292.543 105.319 292.308C105.545 292.167 105.791 292.061 106.049 291.992C106.354 291.933 106.635 291.783 106.854 291.563C107.04 291.347 107.174 291.092 107.246 290.816C107.317 290.54 107.323 290.252 107.263 289.973C107.222 289.866 107.211 289.75 107.232 289.638C107.253 289.525 107.305 289.421 107.382 289.336C107.479 289.255 107.601 289.208 107.727 289.203C107.927 289.173 108.118 289.101 108.288 288.992C108.459 288.883 108.604 288.74 108.715 288.571C108.835 288.412 108.92 288.23 108.964 288.036C109.009 287.842 109.011 287.641 108.971 287.446C108.962 287.403 108.963 287.359 108.976 287.317C108.989 287.276 109.013 287.238 109.045 287.209C109.077 287.178 109.116 287.156 109.159 287.147C109.201 287.137 109.246 287.14 109.287 287.154C110.057 287.396 110.872 286.735 111.494 286.133C111.517 286.109 111.544 286.091 111.574 286.079C111.604 286.066 111.637 286.06 111.669 286.06C111.702 286.06 111.734 286.066 111.764 286.079C111.794 286.091 111.821 286.109 111.844 286.133C111.875 286.168 111.897 286.21 111.909 286.256C112.278 286.395 112.66 286.499 113.049 286.567L113.162 286.597C113.293 286.647 113.415 286.719 113.523 286.809C113.73 287.025 113.857 287.305 113.883 287.604C113.996 288.501 113.939 289.412 113.715 290.289C113.382 291.816 112.952 293.319 112.427 294.791L112.269 295.285C111.568 297.432 110.788 299.594 110.008 301.702C109.914 301.918 109.76 302.104 109.566 302.239C109.371 302.373 109.143 302.45 108.907 302.462C107.68 302.554 106.453 302.284 105.378 301.687L104.292 306.885C104.277 306.934 104.247 306.977 104.206 307.008C104.166 307.039 104.116 307.057 104.065 307.058ZM97.766 301.667C97.766 301.667 97.8301 302.378 99.9478 304.323C101.819 306.036 103.339 306.446 103.872 306.539L104.993 301.178C105.002 301.133 105.025 301.09 105.057 301.057C105.09 301.023 105.132 301 105.177 300.989C105.223 300.978 105.27 300.98 105.315 300.996C105.359 301.011 105.398 301.038 105.427 301.075C105.709 301.42 107.619 302.151 108.843 301.953C108.992 301.951 109.137 301.907 109.263 301.828C109.389 301.749 109.492 301.637 109.559 301.504C110.359 299.401 111.119 297.244 111.815 295.087L111.973 294.593C112.484 293.14 112.902 291.657 113.227 290.151C113.43 289.345 113.487 288.509 113.394 287.683C113.383 287.49 113.31 287.307 113.187 287.159C113.122 287.107 113.048 287.065 112.97 287.036H112.92C112.471 286.961 112.032 286.834 111.612 286.656C111.01 287.209 110.265 287.737 109.475 287.673C109.475 288.09 109.346 288.497 109.105 288.838C108.956 289.062 108.762 289.253 108.535 289.397C108.308 289.542 108.053 289.637 107.787 289.677H107.678C107.702 289.728 107.719 289.783 107.727 289.84C107.811 290.197 107.809 290.569 107.72 290.925C107.632 291.282 107.46 291.612 107.219 291.888C106.943 292.178 106.587 292.379 106.197 292.466C105.985 292.518 105.781 292.603 105.595 292.718C105.357 292.92 105.153 293.16 104.993 293.428C104.859 293.634 104.708 293.829 104.544 294.011C102.569 296.035 100.594 295.852 99.9133 295.719L97.766 301.672V301.667Z" fill="#231F20"/>
<path d="M106.153 293.147C106.268 292.588 106.223 292.009 106.024 291.474C105.921 291.042 105.755 290.628 105.531 290.245C105.426 290.059 105.282 289.897 105.109 289.772C104.936 289.647 104.738 289.561 104.529 289.519C104.334 289.507 104.138 289.536 103.955 289.605C103.772 289.674 103.606 289.781 103.467 289.919C103.191 290.198 102.982 290.535 102.855 290.906C102.56 291.707 102.482 292.571 102.627 293.412C102.773 294.252 103.138 295.04 103.685 295.694L103.606 295.527" fill="white"/>
<path d="M103.659 295.941C103.624 295.941 103.588 295.933 103.556 295.918C103.523 295.903 103.495 295.88 103.472 295.852C102.9 295.162 102.518 294.334 102.365 293.451C102.211 292.568 102.292 291.66 102.598 290.817C102.739 290.412 102.971 290.044 103.274 289.741C103.438 289.578 103.634 289.452 103.851 289.372C104.067 289.292 104.298 289.26 104.528 289.277C104.783 289.315 105.027 289.409 105.24 289.554C105.454 289.698 105.632 289.889 105.762 290.111C105.989 290.518 106.155 290.955 106.256 291.41C106.469 291.989 106.513 292.617 106.384 293.221C106.365 293.287 106.321 293.342 106.261 293.375C106.202 293.408 106.131 293.415 106.066 293.396C106 293.378 105.945 293.333 105.912 293.274C105.879 293.214 105.872 293.144 105.891 293.078C105.984 292.562 105.936 292.03 105.752 291.538C105.663 291.132 105.515 290.741 105.313 290.378C105.222 290.218 105.097 290.081 104.947 289.975C104.797 289.869 104.625 289.798 104.444 289.766C104.285 289.758 104.125 289.783 103.976 289.841C103.828 289.899 103.693 289.988 103.58 290.101C103.338 290.356 103.156 290.661 103.047 290.995C102.789 291.706 102.707 292.469 102.81 293.218C102.914 293.967 103.198 294.68 103.64 295.295C103.672 295.304 103.702 295.321 103.728 295.343C103.753 295.365 103.774 295.392 103.788 295.423L103.867 295.591C103.892 295.645 103.897 295.706 103.88 295.763C103.864 295.82 103.828 295.869 103.778 295.902C103.742 295.924 103.702 295.938 103.659 295.941Z" fill="#231F20"/>
<path d="M105.234 301.233C105.234 301.233 103.581 300.078 103.126 298.543C103.126 298.543 102.198 301.87 104.711 303.716L105.234 301.233Z" fill="#231F20"/>
<path d="M104.711 303.963C104.66 303.962 104.61 303.947 104.568 303.918C101.947 301.988 102.88 298.488 102.885 298.488C102.899 298.436 102.929 298.39 102.972 298.357C103.015 298.324 103.067 298.306 103.121 298.306C103.175 298.306 103.226 298.324 103.269 298.356C103.311 298.388 103.343 298.433 103.358 298.483C103.778 299.91 105.333 301.026 105.372 301.04C105.412 301.068 105.442 301.107 105.459 301.152C105.477 301.196 105.481 301.245 105.471 301.292L104.948 303.76C104.94 303.801 104.922 303.84 104.895 303.872C104.869 303.904 104.834 303.928 104.795 303.943C104.768 303.954 104.74 303.961 104.711 303.963ZM103.23 299.416C103.135 300.117 103.205 300.83 103.434 301.5C103.662 302.169 104.044 302.776 104.548 303.272L104.953 301.337C104.264 300.81 103.682 300.159 103.235 299.416H103.23Z" fill="#231F20"/>
<path d="M111.126 292.229C111.278 291.808 111.268 291.42 111.104 291.36C110.94 291.301 110.684 291.594 110.532 292.014C110.38 292.434 110.389 292.823 110.553 292.882C110.717 292.942 110.974 292.649 111.126 292.229Z" fill="#231F20"/>
<path d="M110.24 298.39L108.127 296.711C108.127 296.711 106.493 299.382 107.303 300.789C108.112 302.195 109.712 299.787 110.24 298.39Z" fill="white"/>
<path d="M107.91 301.465C107.734 301.46 107.564 301.405 107.418 301.307C107.272 301.21 107.157 301.073 107.085 300.912C106.217 299.397 107.846 296.697 107.92 296.583C107.938 296.553 107.962 296.527 107.991 296.508C108.02 296.488 108.053 296.475 108.088 296.469C108.121 296.463 108.156 296.464 108.189 296.472C108.223 296.481 108.254 296.497 108.28 296.519L110.393 298.197C110.433 298.23 110.462 298.275 110.476 298.326C110.49 298.376 110.489 298.429 110.472 298.479C110.131 299.377 109.04 301.376 108.004 301.44L107.91 301.465ZM108.201 297.086C107.836 297.753 106.923 299.634 107.515 300.67C107.678 300.957 107.836 300.976 107.939 300.971C108.532 300.922 109.47 299.624 109.944 298.474L108.201 297.086Z" fill="#231F20"/>
<path d="M161.205 330.191L141.648 304.686L93.1171 341.898L112.674 367.404L161.205 330.191Z" fill="white"/>
<path d="M112.673 367.646C112.636 367.646 112.599 367.637 112.565 367.62C112.532 367.602 112.503 367.578 112.481 367.547L92.923 342.046C92.9032 342.021 92.8886 341.991 92.8801 341.96C92.8717 341.929 92.8695 341.896 92.8736 341.864C92.8834 341.798 92.9167 341.739 92.9674 341.696L141.496 304.486C141.522 304.466 141.551 304.451 141.582 304.442C141.614 304.433 141.646 304.431 141.679 304.435C141.711 304.439 141.742 304.449 141.77 304.466C141.798 304.482 141.823 304.504 141.842 304.53L161.4 330.036C161.42 330.062 161.434 330.091 161.443 330.123C161.451 330.154 161.453 330.187 161.449 330.219C161.439 330.283 161.406 330.341 161.355 330.382L112.826 367.592C112.783 367.626 112.729 367.645 112.673 367.646ZM93.466 341.938L112.718 367.054L160.852 330.14L141.6 305.029L93.466 341.938Z" fill="#231F20"/>
<path d="M116.805 359.546H116.761C116.727 359.541 116.695 359.529 116.667 359.51C116.638 359.491 116.615 359.466 116.598 359.437L116.489 359.289C115.693 358.253 114.518 357.575 113.222 357.404C111.927 357.233 110.617 357.582 109.578 358.376C109.553 358.396 109.524 358.411 109.492 358.42C109.461 358.429 109.428 358.431 109.396 358.427C109.364 358.423 109.333 358.412 109.305 358.396C109.277 358.379 109.252 358.357 109.233 358.331L100.994 347.585C100.954 347.533 100.937 347.468 100.945 347.403C100.953 347.338 100.987 347.279 101.038 347.239C102.074 346.443 102.752 345.268 102.923 343.973C103.095 342.677 102.745 341.367 101.952 340.329C101.917 340.279 101.879 340.231 101.838 340.185C101.814 340.161 101.795 340.132 101.784 340.099C101.773 340.067 101.769 340.032 101.774 339.998C101.776 339.964 101.786 339.931 101.802 339.901C101.818 339.871 101.841 339.845 101.868 339.825L137.38 312.596C137.406 312.574 137.437 312.559 137.47 312.55C137.504 312.541 137.538 312.54 137.572 312.546C137.606 312.552 137.638 312.566 137.666 312.585C137.694 312.605 137.718 312.631 137.735 312.66L137.839 312.804C138.634 313.84 139.809 314.519 141.104 314.691C142.4 314.863 143.711 314.515 144.75 313.722C144.803 313.684 144.867 313.666 144.932 313.672C144.996 313.682 145.054 313.716 145.095 313.766L153.334 324.513C153.374 324.564 153.391 324.63 153.383 324.694C153.375 324.759 153.341 324.818 153.289 324.858C152.253 325.655 151.576 326.829 151.404 328.125C151.233 329.42 151.583 330.731 152.376 331.769L152.495 331.912C152.519 331.936 152.537 331.966 152.548 331.998C152.559 332.031 152.563 332.066 152.559 332.1C152.556 332.134 152.546 332.168 152.53 332.198C152.514 332.229 152.492 332.256 152.465 332.277L116.953 359.516C116.908 359.542 116.856 359.553 116.805 359.546ZM112.57 356.86C113.396 356.859 114.211 357.047 114.953 357.409C115.696 357.771 116.346 358.297 116.854 358.948L151.962 332.031C151.13 330.923 150.753 329.539 150.908 328.163C151.063 326.786 151.739 325.521 152.796 324.626L144.853 314.26C143.71 315.049 142.308 315.37 140.935 315.157C139.562 314.944 138.324 314.213 137.473 313.115L102.361 340.037C103.193 341.145 103.57 342.529 103.415 343.905C103.26 345.282 102.584 346.547 101.527 347.442L109.47 357.808C110.382 357.184 111.464 356.853 112.57 356.86Z" fill="#D1D3D4"/>
<path d="M101.231 318.762C101.231 318.762 116.306 337.179 119.031 337.836C121.756 338.492 126.248 337.688 125.942 339.129C125.636 340.57 121.292 340.575 121.292 340.575C121.292 340.575 126.614 342.895 125.957 344.46C125.3 346.025 122.788 347.304 120.527 346.341C118.266 345.378 117.017 343.69 115.053 342.728C113.088 341.765 94.6558 324.7 94.6558 324.7L101.231 318.762Z" fill="white"/>
<path d="M122.166 346.924C121.569 346.924 120.978 346.803 120.429 346.568C119.309 346.045 118.266 345.373 117.329 344.569C116.595 343.944 115.796 343.401 114.944 342.95C112.97 341.963 95.2385 325.579 94.4833 324.878C94.4584 324.854 94.4386 324.826 94.425 324.795C94.4114 324.763 94.4044 324.729 94.4043 324.695C94.4047 324.661 94.4124 324.626 94.4268 324.595C94.4413 324.564 94.4622 324.535 94.4882 324.513L101.063 318.589C101.089 318.568 101.118 318.551 101.149 318.541C101.181 318.531 101.214 318.527 101.247 318.53C101.28 318.533 101.312 318.542 101.342 318.557C101.371 318.572 101.397 318.593 101.419 318.619C105.6 323.723 116.919 337.085 119.091 337.604C120.254 337.823 121.436 337.929 122.62 337.92C124.284 337.964 125.582 337.999 126.036 338.556C126.105 338.646 126.152 338.75 126.175 338.86C126.198 338.97 126.196 339.084 126.17 339.193C125.908 340.353 123.677 340.674 122.304 340.793C123.933 341.592 126.747 343.206 126.17 344.569C125.716 345.502 124.918 346.222 123.943 346.578C123.379 346.807 122.775 346.924 122.166 346.924ZM95.0164 324.71C96.9909 326.556 113.365 341.632 115.162 342.515C116.041 342.984 116.869 343.545 117.63 344.189C118.532 344.97 119.539 345.621 120.621 346.124C121.117 346.332 121.65 346.439 122.188 346.439C122.727 346.439 123.259 346.332 123.756 346.124C124.615 345.819 125.323 345.193 125.73 344.376C126.12 343.448 123.311 341.735 121.194 340.812C121.142 340.79 121.099 340.75 121.073 340.7C121.047 340.649 121.039 340.591 121.051 340.536C121.061 340.48 121.091 340.429 121.135 340.393C121.18 340.357 121.235 340.337 121.292 340.338C122.887 340.338 125.498 339.998 125.701 339.09C125.714 339.052 125.717 339.011 125.711 338.972C125.705 338.932 125.69 338.895 125.666 338.862C125.37 338.482 123.973 338.448 122.625 338.413C121.405 338.421 120.186 338.311 118.987 338.083C116.336 337.451 102.949 321.24 101.216 319.132L95.0164 324.71Z" fill="#231F20"/>
<path d="M96.1517 309.447L102.342 317.572L93.5305 325.697L88.2388 319.601" fill="#AAC0DA"/>
<path d="M93.5302 325.949C93.4638 325.945 93.4016 325.915 93.3574 325.865L88.0657 319.769C88.0204 319.723 87.9951 319.661 87.9951 319.596C87.9951 319.531 88.0204 319.469 88.0657 319.423C88.0886 319.4 88.1159 319.382 88.146 319.369C88.1761 319.357 88.2083 319.35 88.2409 319.35C88.2735 319.35 88.3058 319.357 88.3358 319.369C88.3659 319.382 88.3932 319.4 88.4161 319.423L93.54 325.347L102.011 317.557L95.9539 309.61C95.914 309.557 95.8965 309.491 95.9053 309.426C95.9141 309.361 95.9484 309.302 96.0008 309.262C96.0532 309.222 96.1193 309.204 96.1845 309.213C96.2498 309.222 96.3089 309.256 96.3488 309.309L102.554 317.419C102.59 317.469 102.607 317.531 102.602 317.592C102.596 317.654 102.569 317.712 102.524 317.755L93.7128 325.88C93.6626 325.925 93.5975 325.949 93.5302 325.949Z" fill="#231F20"/>
<path d="M187.286 320.519C188.747 320.614 190.173 321.007 191.477 321.674C193.748 322.76 195.919 324.547 196.413 327.015C196.823 328.99 196.063 331.073 195.1 332.875C194.137 334.676 192.953 336.394 192.415 338.364C191.877 340.334 192.128 342.703 193.688 344.021C191.63 343.108 189.532 342.165 187.873 340.644C186.886 339.751 186.067 338.596 185.973 337.283C185.976 336.195 186.24 335.123 186.743 334.158C187.375 332.677 188.051 331.172 188.15 329.567C188.248 327.963 187.656 326.201 186.264 325.391C185.05 324.68 181.076 324.75 181.698 322.518C182.201 320.746 185.864 320.44 187.286 320.519Z" fill="white"/>
<path d="M193.708 344.243C193.675 344.251 193.642 344.251 193.609 344.243C191.556 343.33 189.433 342.387 187.725 340.822C186.516 339.712 185.834 338.492 185.751 337.293C185.751 336.166 186.022 335.055 186.54 334.055L186.624 333.862C187.217 332.475 187.834 331.038 187.927 329.548C188.036 327.84 187.345 326.29 186.165 325.599C185.669 325.371 185.147 325.205 184.61 325.105C183.435 324.829 182.103 324.513 181.604 323.673C181.498 323.486 181.433 323.279 181.411 323.064C181.39 322.85 181.414 322.634 181.481 322.43C182.024 320.485 185.864 320.193 187.296 320.253C188.792 320.346 190.252 320.747 191.585 321.432C193.224 322.217 196.063 323.975 196.68 326.946C197.035 328.679 196.61 330.594 195.342 332.969C195.095 333.438 194.848 333.897 194.567 334.361C193.771 335.626 193.136 336.986 192.676 338.408C192.222 340.052 192.266 342.451 193.871 343.838C193.917 343.876 193.948 343.93 193.957 343.989C193.966 344.049 193.953 344.109 193.92 344.159C193.895 344.19 193.862 344.214 193.825 344.228C193.788 344.243 193.747 344.248 193.708 344.243ZM186.965 320.731C185.311 320.731 182.359 321.146 181.969 322.558C181.92 322.698 181.9 322.847 181.912 322.995C181.924 323.143 181.967 323.287 182.038 323.417C182.428 324.078 183.653 324.365 184.734 324.621C185.318 324.722 185.886 324.901 186.422 325.154C187.765 325.934 188.554 327.667 188.431 329.558C188.332 331.137 187.7 332.613 187.083 334.035L186.999 334.232C186.55 335.289 186.18 336.246 186.254 337.238C186.353 338.591 187.296 339.707 188.076 340.437C189.484 341.634 191.071 342.602 192.78 343.305C191.793 341.79 191.793 339.746 192.207 338.275C192.676 336.81 193.328 335.411 194.147 334.109C194.409 333.65 194.67 333.196 194.917 332.732C196.127 330.466 196.536 328.654 196.206 327.04C195.633 324.276 192.938 322.597 191.383 321.872C190.111 321.217 188.718 320.832 187.291 320.741L186.965 320.731Z" fill="#231F20"/>
<path d="M185.509 321.013C185.989 321.846 186.173 322.816 186.032 323.767C185.99 324.409 185.758 325.025 185.366 325.534C185.106 325.825 184.783 326.05 184.422 326.193C184.06 326.336 183.67 326.393 183.282 326.359C182.933 326.354 182.599 326.218 182.345 325.979C182.161 325.751 182.041 325.478 181.999 325.189C181.574 323.165 183.016 317.093 185.509 321.013Z" fill="#231F20"/>
<path d="M183.48 326.596H183.263C182.851 326.586 182.459 326.422 182.162 326.137C181.948 325.876 181.808 325.562 181.757 325.228C181.446 323.747 182.078 320.144 183.515 319.556C184.235 319.265 184.995 319.705 185.716 320.87C186.227 321.751 186.425 322.779 186.279 323.787C186.232 324.476 185.981 325.136 185.558 325.682C185.297 325.974 184.976 326.206 184.618 326.363C184.259 326.521 183.871 326.6 183.48 326.596ZM183.934 319.961C183.854 319.961 183.775 319.978 183.702 320.011C182.626 320.45 181.94 323.713 182.221 325.125C182.256 325.369 182.353 325.6 182.503 325.796C182.718 325.987 182.995 326.094 183.283 326.097C183.631 326.128 183.982 326.078 184.307 325.95C184.633 325.823 184.924 325.621 185.158 325.362C185.52 324.89 185.733 324.321 185.77 323.728C185.903 322.831 185.729 321.917 185.277 321.131C184.946 320.573 184.443 319.961 183.934 319.961Z" fill="#231F20"/>
<path d="M172.482 334.104C173.074 334.79 173.963 335.18 175.444 335.027C176.669 334.86 177.834 334.388 178.83 333.655C180.778 332.277 182.303 330.383 183.234 328.187C184.165 325.99 184.466 323.578 184.102 321.22C183.292 316.452 178.534 311.713 173.415 313.544C172.552 313.86 171.768 314.361 171.119 315.011C170.471 315.662 169.972 316.447 169.658 317.31C169.314 317.197 168.945 317.186 168.594 317.278C168.244 317.369 167.928 317.561 167.684 317.829C166.361 319.152 166.415 320.559 167.126 322.143C168.296 324.745 169.732 327.223 170.784 329.878C171.381 331.428 171.618 333.092 172.482 334.104Z" fill="white"/>
<path d="M174.817 335.328C174.345 335.358 173.872 335.279 173.434 335.098C172.997 334.916 172.607 334.637 172.295 334.282C171.701 333.454 171.28 332.516 171.056 331.522C170.898 331.029 170.735 330.495 170.562 329.987C169.945 328.432 169.18 326.912 168.439 325.436C167.946 324.404 167.388 323.338 166.909 322.267C166.065 320.386 166.257 318.93 167.516 317.671C167.771 317.401 168.089 317.2 168.442 317.087C168.795 316.973 169.171 316.95 169.535 317.019C169.877 316.171 170.395 315.404 171.053 314.769C171.711 314.133 172.496 313.644 173.356 313.332C174.355 312.973 175.422 312.845 176.477 312.956C177.533 313.067 178.55 313.415 179.452 313.974C180.736 314.764 181.839 315.816 182.69 317.061C183.54 318.307 184.119 319.717 184.389 321.2C184.739 323.603 184.419 326.056 183.462 328.288C182.506 330.52 180.95 332.444 178.968 333.847C177.937 334.602 176.735 335.089 175.469 335.264C175.253 335.297 175.035 335.319 174.817 335.328ZM172.65 333.941C173.252 334.647 174.131 334.928 175.4 334.78C176.585 334.617 177.71 334.159 178.672 333.447C180.575 332.092 182.066 330.237 182.978 328.086C183.89 325.936 184.189 323.574 183.841 321.265C183.586 319.852 183.038 318.509 182.231 317.323C181.424 316.137 180.376 315.133 179.156 314.378C178.315 313.859 177.369 313.535 176.386 313.431C175.404 313.327 174.41 313.445 173.479 313.776C172.65 314.077 171.897 314.557 171.273 315.181C170.65 315.806 170.171 316.56 169.871 317.39C169.859 317.421 169.842 317.45 169.819 317.475C169.796 317.499 169.768 317.519 169.738 317.533C169.707 317.547 169.673 317.555 169.639 317.555C169.605 317.555 169.571 317.547 169.54 317.533C169.236 317.441 168.912 317.438 168.606 317.526C168.301 317.613 168.027 317.787 167.817 318.026C166.697 319.147 166.544 320.356 167.324 322.069C167.817 323.13 168.311 324.192 168.849 325.219C169.589 326.699 170.36 328.24 170.986 329.809C171.194 330.333 171.357 330.866 171.515 331.384C171.729 332.31 172.117 333.186 172.66 333.966L172.65 333.941Z" fill="#231F20"/>
<path d="M168.661 323.096C168.661 323.096 165.561 325.742 165.813 326.551C166.065 327.361 167.679 327.336 167.679 327.336" fill="white"/>
<path d="M167.649 327.578C167.358 327.578 165.862 327.534 165.576 326.62C165.29 325.707 167.743 323.555 168.498 322.908C168.549 322.866 168.614 322.846 168.679 322.852C168.745 322.857 168.806 322.888 168.849 322.938C168.87 322.962 168.886 322.991 168.896 323.022C168.906 323.052 168.91 323.085 168.907 323.117C168.904 323.149 168.895 323.18 168.88 323.209C168.865 323.238 168.844 323.263 168.819 323.283C167.383 324.513 165.926 326.082 166.05 326.472C166.213 326.966 167.299 327.094 167.674 327.084C167.738 327.084 167.8 327.11 167.847 327.155C167.893 327.2 167.919 327.262 167.921 327.326C167.921 327.391 167.895 327.454 167.85 327.501C167.805 327.548 167.744 327.575 167.679 327.578H167.649Z" fill="#231F20"/>
<path d="M166.978 340.911C170.463 341.178 176.411 337.668 176.456 337.535C177.089 335.272 177.608 332.978 178.011 330.663C178.011 330.663 175.651 330.007 175.049 326.803C174.447 323.599 171.505 323.116 170.34 318.905C168.647 319.631 168.365 322.114 167.931 323.659C167.322 325.837 166.766 328.026 166.262 330.224C165.936 331.616 169.491 332.692 170.211 332.44C169.461 334.523 169.461 334.523 166.978 340.911Z" fill="white"/>
<path d="M167.343 341.173C167.215 341.173 167.087 341.173 166.958 341.173C166.92 341.17 166.884 341.158 166.851 341.138C166.819 341.118 166.791 341.091 166.771 341.059C166.752 341.025 166.743 340.987 166.743 340.948C166.743 340.909 166.752 340.871 166.771 340.837C169.096 334.844 169.239 334.474 169.905 332.741C168.681 332.644 167.514 332.187 166.548 331.428C166.358 331.289 166.211 331.099 166.124 330.88C166.037 330.661 166.013 330.421 166.055 330.189C166.548 327.998 167.121 325.786 167.728 323.619C167.797 323.362 167.866 323.076 167.94 322.775C168.301 321.25 168.755 319.354 170.28 318.703C170.312 318.688 170.347 318.68 170.382 318.68C170.416 318.68 170.451 318.688 170.483 318.703C170.514 318.719 170.543 318.741 170.566 318.768C170.589 318.795 170.606 318.827 170.616 318.861C171.198 320.978 172.23 322.099 173.222 323.185C174.215 324.271 175.029 325.159 175.325 326.773C175.873 329.775 178.001 330.416 178.09 330.441C178.149 330.457 178.2 330.495 178.233 330.547C178.266 330.599 178.278 330.662 178.267 330.723C177.865 333.052 177.343 335.358 176.702 337.633C176.569 337.979 170.813 341.173 167.343 341.173ZM167.343 340.679C170.532 340.679 175.646 337.846 176.229 337.396C176.834 335.233 177.328 333.04 177.709 330.826C177.087 330.574 175.31 329.627 174.802 326.848C174.535 325.367 173.741 324.508 172.827 323.506C171.619 322.328 170.714 320.875 170.191 319.27C169.091 319.932 168.711 321.556 168.39 322.874C168.316 323.18 168.247 323.471 168.173 323.738C167.57 325.9 167.008 328.101 166.504 330.288C166.488 330.435 166.511 330.583 166.572 330.718C166.633 330.853 166.729 330.968 166.85 331.053C167.758 331.897 169.747 332.347 170.172 332.213C170.216 332.201 170.263 332.2 170.307 332.213C170.352 332.225 170.392 332.249 170.423 332.282C170.455 332.316 170.476 332.358 170.485 332.404C170.494 332.449 170.489 332.496 170.473 332.539C169.688 334.578 169.688 334.612 167.333 340.679H167.343Z" fill="#231F20"/>
<path d="M166.795 328.63C166.795 328.63 168.182 330.15 169.574 328.664L166.795 328.63Z" fill="white"/>
<path d="M168.256 329.562C167.637 329.518 167.057 329.245 166.627 328.797C166.605 328.773 166.588 328.745 166.577 328.715C166.566 328.684 166.561 328.651 166.562 328.619C166.564 328.586 166.571 328.554 166.585 328.525C166.599 328.495 166.618 328.469 166.642 328.447C166.666 328.425 166.694 328.408 166.725 328.396C166.755 328.385 166.788 328.38 166.821 328.382C166.853 328.383 166.885 328.391 166.915 328.404C166.944 328.418 166.971 328.438 166.993 328.462C167.328 328.811 167.779 329.026 168.261 329.069C168.481 329.054 168.696 328.995 168.894 328.897C169.091 328.799 169.267 328.663 169.411 328.496C169.434 328.472 169.461 328.453 169.49 328.44C169.52 328.427 169.552 328.42 169.585 328.419C169.617 328.418 169.65 328.423 169.68 328.435C169.71 328.446 169.738 328.464 169.762 328.486C169.786 328.509 169.805 328.535 169.818 328.565C169.831 328.595 169.839 328.627 169.839 328.659C169.84 328.692 169.835 328.724 169.823 328.755C169.812 328.785 169.794 328.813 169.772 328.837C169.584 329.057 169.352 329.236 169.091 329.361C168.83 329.486 168.546 329.554 168.256 329.562Z" fill="#231F20"/>
<path d="M170.256 332.45C170.256 332.45 172.107 332.89 173.331 331.873C173.331 331.873 172.26 335.16 169.155 335.303L170.256 332.45Z" fill="#231F20"/>
<path d="M169.155 335.55C169.115 335.551 169.077 335.542 169.042 335.525C169.007 335.508 168.976 335.483 168.952 335.451C168.929 335.417 168.914 335.378 168.909 335.336C168.904 335.295 168.909 335.254 168.922 335.215L170.028 332.361C170.05 332.306 170.091 332.261 170.143 332.233C170.196 332.205 170.256 332.196 170.315 332.208C170.315 332.208 172.062 332.608 173.173 331.68C173.216 331.649 173.268 331.632 173.321 331.632C173.374 331.632 173.426 331.649 173.469 331.68C173.514 331.71 173.548 331.753 173.565 331.804C173.583 331.855 173.584 331.91 173.568 331.961C173.568 331.996 172.403 335.417 169.164 335.565L169.155 335.55ZM170.413 332.732L169.53 335.022C171.312 334.765 172.324 333.363 172.783 332.49C172.03 332.784 171.21 332.868 170.413 332.732Z" fill="#231F20"/>
<path d="M170.013 322.333C170.105 321.898 170.042 321.516 169.871 321.48C169.701 321.444 169.487 321.766 169.395 322.201C169.302 322.636 169.365 323.018 169.536 323.054C169.707 323.09 169.92 322.767 170.013 322.333Z" fill="#231F20"/>
<path d="M172.763 325.48C172.979 324.953 173.338 324.496 173.8 324.162C174.116 323.859 174.475 323.605 174.866 323.407C175.065 323.312 175.283 323.263 175.503 323.263C175.723 323.263 175.941 323.312 176.14 323.407C176.307 323.504 176.452 323.636 176.565 323.793C176.678 323.951 176.757 324.13 176.796 324.32C176.872 324.703 176.859 325.098 176.757 325.475C176.559 326.301 176.147 327.061 175.562 327.677C174.977 328.293 174.24 328.744 173.425 328.985L173.583 328.891" fill="white"/>
<path d="M173.424 329.212C173.376 329.213 173.329 329.199 173.288 329.173C173.248 329.146 173.216 329.108 173.197 329.064C173.175 329.009 173.172 328.949 173.19 328.892C173.208 328.836 173.246 328.789 173.296 328.758L173.454 328.659C173.483 328.642 173.515 328.631 173.548 328.627C173.581 328.622 173.614 328.625 173.647 328.634C174.352 328.371 174.983 327.938 175.483 327.375C175.983 326.811 176.337 326.133 176.515 325.401C176.607 325.061 176.621 324.705 176.554 324.359C176.524 324.203 176.461 324.055 176.369 323.924C176.277 323.794 176.158 323.685 176.021 323.604C175.853 323.531 175.672 323.496 175.489 323.501C175.307 323.506 175.128 323.552 174.965 323.634C174.602 323.822 174.269 324.064 173.977 324.35C173.545 324.652 173.204 325.067 172.99 325.549C172.97 325.611 172.926 325.663 172.868 325.694C172.81 325.724 172.742 325.731 172.679 325.712C172.617 325.693 172.565 325.65 172.535 325.592C172.504 325.535 172.498 325.468 172.516 325.406C172.747 324.833 173.136 324.337 173.637 323.974C173.969 323.65 174.351 323.381 174.767 323.175C174.998 323.063 175.251 323.005 175.508 323.005C175.764 323.005 176.017 323.063 176.248 323.175C176.448 323.289 176.621 323.445 176.756 323.631C176.892 323.817 176.986 324.03 177.033 324.256C177.115 324.675 177.101 325.107 176.993 325.52C176.781 326.388 176.346 327.187 175.73 327.835C175.115 328.484 174.34 328.96 173.484 329.217L173.424 329.212Z" fill="#231F20"/>
<path d="M166.395 338.319C166.395 338.319 176.959 334.055 180.262 337.776C183.564 341.498 185.395 350.117 183.998 368.786L159.287 367.908C159.287 367.908 161.262 340.615 166.395 338.319Z" fill="#AAC0DA"/>
<path d="M151.759 343.967C150.619 342.979 141.126 330.407 141.003 328.348C140.88 326.29 140.016 322.701 139.522 322.953C139.029 323.205 138.782 326.477 138.782 326.477C138.782 326.477 136.437 322.262 135.45 322.296C134.462 322.331 132.113 325.061 132.236 326.477C132.36 327.894 143.229 353.825 148.289 354.565C153.349 355.305 166.514 349.377 167.713 349.135C168.913 348.893 173.306 339.262 167.713 337.846C167.713 337.841 152.904 344.939 151.759 343.967Z" fill="white"/>
<path d="M149.252 354.871C148.921 354.873 148.591 354.852 148.264 354.807C142.977 354.037 132.137 328.072 131.974 326.497C131.895 325.564 132.735 324.251 133.455 323.407C133.732 323.096 134.689 322.074 135.43 322.049C136.313 322.049 137.784 324.32 138.579 325.673C138.708 324.438 138.949 322.948 139.389 322.711C139.443 322.681 139.504 322.665 139.566 322.665C139.629 322.665 139.69 322.681 139.744 322.711C140.43 323.106 141.126 326.62 141.225 328.299C141.339 330.189 150.535 342.579 151.892 343.74C152.598 344.233 160.422 341.015 167.585 337.584C167.611 337.573 167.638 337.567 167.666 337.567C167.694 337.567 167.722 337.573 167.748 337.584C169.722 338.078 170.764 339.647 170.71 342.081C170.636 345.161 168.691 349.16 167.748 349.357C167.501 349.406 166.593 349.762 165.438 350.216C161.499 351.776 153.586 354.871 149.252 354.871ZM135.464 322.543C135.188 322.543 134.586 322.928 133.87 323.733C132.991 324.72 132.438 325.821 132.493 326.453C132.636 328.111 143.659 353.637 148.333 354.318C152.208 354.886 161.039 351.43 165.285 349.772C166.548 349.278 167.388 348.947 167.674 348.888C168.202 348.779 170.177 345.26 170.251 342.086C170.3 339.914 169.461 338.571 167.748 338.102C167.18 338.374 163.764 339.993 160.269 341.493C152.435 344.86 151.853 344.366 151.606 344.154C150.535 343.236 140.899 330.56 140.746 328.358C140.633 326.462 139.956 323.733 139.571 323.229C139.359 323.599 139.117 325.144 139.019 326.487C139.016 326.541 138.995 326.592 138.961 326.633C138.926 326.675 138.878 326.703 138.826 326.715C138.773 326.727 138.718 326.721 138.669 326.699C138.62 326.676 138.58 326.638 138.555 326.591C137.478 324.641 135.988 322.543 135.464 322.543Z" fill="#231F20"/>
<path d="M159.287 367.927L158.714 371.753H183.998V368.786L159.287 367.927Z" fill="#231F20"/>
<path d="M184.003 372H158.714C158.679 372.001 158.644 371.993 158.612 371.979C158.579 371.964 158.551 371.943 158.528 371.916C158.505 371.889 158.488 371.857 158.478 371.823C158.469 371.789 158.467 371.754 158.472 371.719L159.04 367.888C159.046 367.827 159.076 367.772 159.123 367.733C159.171 367.694 159.231 367.675 159.292 367.681L184.003 368.54C184.067 368.542 184.127 368.569 184.171 368.615C184.215 368.661 184.24 368.723 184.24 368.786V371.748C184.241 371.813 184.217 371.876 184.173 371.923C184.129 371.97 184.068 371.997 184.003 372ZM159.006 371.506H183.756V369.038L159.499 368.194L159.006 371.506Z" fill="#231F20"/>
<path d="M81.1647 288.863H68.6462C68.5812 288.861 68.5191 288.835 68.4731 288.789C68.4271 288.743 68.4007 288.681 68.3994 288.616C68.3994 288.55 68.4254 288.487 68.4717 288.441C68.518 288.395 68.5808 288.369 68.6462 288.369H81.1647C81.2302 288.369 81.293 288.395 81.3393 288.441C81.3856 288.487 81.4116 288.55 81.4116 288.616C81.4116 288.681 81.3856 288.744 81.3393 288.79C81.293 288.837 81.2302 288.863 81.1647 288.863Z" fill="#D1D3D4"/>
<path d="M74.9104 295.897H68.6462C68.5808 295.897 68.518 295.871 68.4717 295.824C68.4254 295.778 68.3994 295.715 68.3994 295.65C68.4007 295.585 68.4271 295.523 68.4731 295.477C68.5191 295.431 68.5812 295.404 68.6462 295.403H74.9104C74.9759 295.403 75.0387 295.429 75.0849 295.475C75.1312 295.522 75.1572 295.584 75.1572 295.65C75.1572 295.715 75.1312 295.778 75.0849 295.824C75.0387 295.871 74.9759 295.897 74.9104 295.897Z" fill="#D1D3D4"/>
<path d="M201.137 352.768H192.395C192.329 352.768 192.267 352.742 192.22 352.696C192.174 352.649 192.148 352.587 192.148 352.521C192.148 352.456 192.174 352.393 192.22 352.347C192.267 352.3 192.329 352.274 192.395 352.274H201.147C201.212 352.274 201.275 352.3 201.321 352.347C201.368 352.393 201.394 352.456 201.394 352.521C201.394 352.554 201.387 352.587 201.374 352.618C201.361 352.649 201.342 352.676 201.318 352.699C201.294 352.722 201.266 352.74 201.234 352.752C201.203 352.764 201.17 352.769 201.137 352.768Z" fill="#D1D3D4"/>
<path d="M197.894 357.966H192.395C192.329 357.966 192.267 357.94 192.22 357.894C192.174 357.847 192.148 357.785 192.148 357.719C192.148 357.654 192.174 357.591 192.22 357.545C192.267 357.498 192.329 357.472 192.395 357.472H197.904C197.969 357.474 198.031 357.5 198.077 357.546C198.123 357.592 198.149 357.654 198.151 357.719C198.151 357.752 198.144 357.785 198.131 357.816C198.118 357.847 198.099 357.874 198.075 357.897C198.051 357.92 198.022 357.938 197.991 357.95C197.96 357.962 197.927 357.967 197.894 357.966Z" fill="#D1D3D4"/>
<path d="M200.426 366.239H193.831C193.383 366.238 192.953 366.059 192.636 365.742C192.318 365.425 192.139 364.995 192.138 364.546V363.465C192.139 363.016 192.318 362.587 192.636 362.269C192.953 361.952 193.383 361.773 193.831 361.772H200.426C200.875 361.773 201.305 361.952 201.622 362.269C201.939 362.587 202.118 363.016 202.119 363.465V364.531C202.121 364.755 202.078 364.976 201.993 365.183C201.909 365.39 201.785 365.578 201.627 365.737C201.47 365.895 201.283 366.021 201.077 366.108C200.871 366.194 200.65 366.239 200.426 366.239ZM193.831 362.29C193.513 362.29 193.208 362.417 192.983 362.642C192.758 362.867 192.632 363.172 192.632 363.49V364.556C192.632 364.874 192.758 365.179 192.983 365.404C193.208 365.629 193.513 365.756 193.831 365.756H200.426C200.744 365.756 201.05 365.629 201.274 365.404C201.499 365.179 201.626 364.874 201.626 364.556V363.465C201.626 363.147 201.499 362.842 201.274 362.617C201.05 362.392 200.744 362.266 200.426 362.266L193.831 362.29Z" fill="#D1D3D4"/>
<path d="M71.7758 308.331C71.0192 308.331 70.2796 308.107 69.6504 307.686C69.0213 307.266 68.531 306.669 68.2414 305.97C67.9519 305.271 67.8761 304.501 68.0237 303.759C68.1713 303.017 68.5357 302.335 69.0707 301.8C69.6057 301.265 70.2874 300.901 71.0295 300.753C71.7716 300.606 72.5408 300.682 73.2399 300.971C73.9389 301.261 74.5364 301.751 74.9568 302.38C75.3771 303.009 75.6015 303.749 75.6015 304.506C75.6002 305.52 75.1967 306.492 74.4795 307.209C73.7624 307.926 72.7901 308.33 71.7758 308.331ZM71.7758 301.174C71.1168 301.174 70.4726 301.369 69.9247 301.735C69.3767 302.101 68.9497 302.622 68.6975 303.23C68.4453 303.839 68.3793 304.509 68.5079 305.156C68.6364 305.802 68.9538 306.396 69.4198 306.862C69.8857 307.328 70.4795 307.645 71.1258 307.774C71.7721 307.902 72.4421 307.836 73.051 307.584C73.6598 307.332 74.1802 306.905 74.5463 306.357C74.9124 305.809 75.1079 305.165 75.1079 304.506C75.1066 303.622 74.7551 302.776 74.1305 302.151C73.5059 301.526 72.6592 301.175 71.7758 301.174Z" fill="#D1D3D4"/>
<path d="M71.7758 305.769C71.7408 305.765 71.7071 305.753 71.6766 305.735C71.6461 305.718 71.6194 305.694 71.5981 305.666L70.1617 303.691C70.1425 303.665 70.1288 303.635 70.1212 303.604C70.1135 303.572 70.1122 303.539 70.1173 303.507C70.1223 303.475 70.1336 303.444 70.1505 303.417C70.1675 303.389 70.1897 303.365 70.216 303.346C70.2422 303.327 70.272 303.313 70.3036 303.305C70.3351 303.298 70.3679 303.296 70.4 303.301C70.4321 303.306 70.4629 303.318 70.4906 303.335C70.5183 303.352 70.5424 303.374 70.5615 303.4L71.8301 305.133L76.8454 300.196C76.868 300.173 76.8949 300.155 76.9245 300.143C76.9542 300.13 76.986 300.124 77.0182 300.124C77.0504 300.124 77.0823 300.13 77.1119 300.143C77.1416 300.155 77.1685 300.173 77.191 300.196C77.2141 300.219 77.2325 300.247 77.245 300.277C77.2575 300.307 77.264 300.339 77.264 300.372C77.264 300.404 77.2575 300.436 77.245 300.467C77.2325 300.497 77.2141 300.524 77.191 300.547L71.9486 305.71C71.9253 305.731 71.898 305.747 71.8683 305.758C71.8386 305.768 71.8072 305.772 71.7758 305.769Z" fill="#D1D3D4"/>
</g>
<path d="M59.1875 95H76.1309V82.9883H85.0664V69.0723H76.1309V24.541H51.2285L24.373 68.3887V82.9883H59.1875V95ZM39.3633 69.707V69.2188L59.2852 36.8945H59.6758V69.707H39.3633Z" fill="#B6C9DE"/>
<defs>
<linearGradient id="paint0_linear" x1="-682" y1="167.395" x2="307.85" y2="811.45" gradientUnits="userSpaceOnUse">
<stop stop-color="#AAC0DA"/>
<stop offset="0.895833" stop-color="#EDF0F3"/>
</linearGradient>
<clipPath id="clip0">
<rect width="270" height="350" fill="white" transform="translate(0 71)"/>
</clipPath>
</defs>
</svg>
