<svg width="270" height="422" viewBox="0 0 270 422" fill="none" xmlns="http://www.w3.org/2000/svg">
<g clip-path="url(#clip0)">
<rect width="270" height="350" transform="translate(0 72)" fill="#FBFBFD"/>
<path d="M-402 168.395C-331.216 181.337 -287.184 215.783 -269.904 271.732C-243.985 355.655 -194.229 397.521 -134.106 381.159C-73.9817 364.797 -45.9661 306.613 -70.5 234.5C-95.0339 162.387 -21.0967 114.92 18.8606 116.833C58.818 118.747 92.9379 138.981 108.674 168.596C143.474 234.091 68.898 322.345 106.082 380.929C143.267 439.513 201.5 437 251.5 385.5C251.5 385.5 278.613 348.802 280 345.5C307.889 279.118 489 93 565 109C645.037 125.85 671.619 224.769 605 301" stroke="url(#paint0_linear)" stroke-opacity="0.3" stroke-width="50" stroke-linecap="round"/>
</g>
<path d="M69.1094 96.2695C86.834 96.2695 98.1133 87.8711 98.1133 74.834V74.7363C98.1133 65.4102 91.3262 59.5508 80.7305 58.4766V58.1348C88.7383 56.5234 95.3301 50.9082 95.3301 42.0703V41.9727C95.3301 30.6934 85.0762 23.2715 68.9629 23.2715C53.3379 23.2715 42.9863 31.4746 42.0586 44.0723L42.0098 44.7559H58.2695L58.3184 44.3164C58.8066 39.7266 62.8105 36.6016 68.9629 36.6016C75.0664 36.6016 78.6797 39.5801 78.6797 44.4141V44.5117C78.6797 49.4922 74.4805 52.7637 67.5957 52.7637H60.0273V64.9219H67.6934C75.5059 64.9219 79.9004 68.0469 79.9004 73.7109V73.8086C79.9004 78.6914 75.75 82.1582 69.0605 82.1582C62.3711 82.1582 58.123 78.9355 57.5371 74.9316L57.4395 74.3945H40.3496L40.3984 74.9805C41.4238 87.6758 52.459 96.2695 69.1094 96.2695Z" fill="#B6C9DE"/>
<defs>
<linearGradient id="paint0_linear" x1="-402" y1="168.395" x2="587.85" y2="812.45" gradientUnits="userSpaceOnUse">
<stop stop-color="#AAC0DA"/>
<stop offset="0.895833" stop-color="#EDF0F3"/>
</linearGradient>
<clipPath id="clip0">
<rect width="270" height="350" fill="white" transform="translate(0 72)"/>
</clipPath>
</defs>
</svg>
