<svg width="270" height="416" viewBox="0 0 270 416" fill="none" xmlns="http://www.w3.org/2000/svg">
<g clip-path="url(#clip0)">
<rect width="270" height="350" transform="translate(0 66)" fill="#FBFBFD"/>
<path d="M-962 162.395C-891.216 175.337 -847.184 209.783 -829.904 265.732C-803.985 349.655 -754.229 391.521 -694.106 375.159C-633.982 358.797 -605.966 300.613 -630.5 228.5C-655.034 156.387 -581.097 108.92 -541.139 110.833C-501.182 112.747 -467.062 132.981 -451.326 162.596C-416.526 228.091 -491.102 316.345 -453.918 374.929C-416.733 433.513 -358.5 431 -308.5 379.5C-308.5 379.5 -281.387 342.802 -280 339.5C-252.111 273.118 -71 87 5 103C85.0368 119.85 111.619 218.769 45 295" stroke="url(#paint0_linear)" stroke-opacity="0.3" stroke-width="50" stroke-linecap="round"/>
<path d="M71.1733 369.97C71.1088 369.97 71.047 369.944 71.0014 369.899C70.9558 369.853 70.9302 369.791 70.9302 369.727V284.993C70.9302 284.928 70.9558 284.866 71.0014 284.821C71.047 284.775 71.1088 284.75 71.1733 284.75C71.2377 284.75 71.2996 284.775 71.3451 284.821C71.3907 284.866 71.4163 284.928 71.4163 284.993V369.727C71.4163 369.791 71.3907 369.853 71.3451 369.899C71.2996 369.944 71.2377 369.97 71.1733 369.97Z" fill="#D1D3D4"/>
<path d="M104.063 369.97C103.998 369.97 103.937 369.944 103.891 369.899C103.845 369.853 103.82 369.791 103.82 369.727V284.993C103.82 284.928 103.845 284.866 103.891 284.821C103.937 284.775 103.998 284.75 104.063 284.75C104.127 284.75 104.189 284.775 104.235 284.821C104.28 284.866 104.306 284.928 104.306 284.993V369.727C104.306 369.791 104.28 369.853 104.235 369.899C104.189 369.944 104.127 369.97 104.063 369.97Z" fill="#D1D3D4"/>
<path d="M136.952 369.97C136.888 369.97 136.826 369.944 136.78 369.899C136.735 369.853 136.709 369.791 136.709 369.727V284.993C136.709 284.928 136.735 284.866 136.78 284.821C136.826 284.775 136.888 284.75 136.952 284.75C137.017 284.75 137.078 284.775 137.124 284.821C137.17 284.866 137.195 284.928 137.195 284.993V369.727C137.195 369.791 137.17 369.853 137.124 369.899C137.078 369.944 137.017 369.97 136.952 369.97Z" fill="#D1D3D4"/>
<path d="M169.841 369.97C169.777 369.97 169.715 369.944 169.669 369.899C169.624 369.853 169.598 369.791 169.598 369.727V284.993C169.598 284.928 169.624 284.866 169.669 284.821C169.715 284.775 169.777 284.75 169.841 284.75C169.906 284.75 169.968 284.775 170.013 284.821C170.059 284.866 170.084 284.928 170.084 284.993V369.727C170.084 369.791 170.059 369.853 170.013 369.899C169.968 369.944 169.906 369.97 169.841 369.97Z" fill="#D1D3D4"/>
<path d="M202.731 369.97C202.667 369.97 202.605 369.944 202.559 369.899C202.514 369.853 202.488 369.791 202.488 369.727V284.993C202.488 284.928 202.514 284.866 202.559 284.821C202.605 284.775 202.667 284.75 202.731 284.75C202.796 284.75 202.858 284.775 202.903 284.821C202.949 284.866 202.974 284.928 202.974 284.993V369.727C202.974 369.791 202.949 369.853 202.903 369.899C202.858 369.944 202.796 369.97 202.731 369.97Z" fill="#D1D3D4"/>
<path d="M202.73 285.236H71.1733C71.1088 285.236 71.047 285.21 71.0014 285.164C70.9558 285.119 70.9302 285.057 70.9302 284.993C70.9302 284.928 70.9558 284.866 71.0014 284.821C71.047 284.775 71.1088 284.75 71.1733 284.75H202.73C202.795 284.75 202.857 284.775 202.902 284.821C202.948 284.866 202.974 284.928 202.974 284.993C202.974 285.057 202.948 285.119 202.902 285.164C202.857 285.21 202.795 285.236 202.73 285.236Z" fill="#D1D3D4"/>
<path d="M202.73 313.263H71.1733C71.1088 313.263 71.047 313.238 71.0014 313.192C70.9558 313.147 70.9302 313.085 70.9302 313.02C70.9302 312.956 70.9558 312.894 71.0014 312.848C71.047 312.803 71.1088 312.777 71.1733 312.777H202.73C202.795 312.777 202.857 312.803 202.902 312.848C202.948 312.894 202.974 312.956 202.974 313.02C202.974 313.085 202.948 313.147 202.902 313.192C202.857 313.238 202.795 313.263 202.73 313.263Z" fill="#D1D3D4"/>
<path d="M202.73 341.267H71.1733C71.1088 341.267 71.047 341.241 71.0014 341.195C70.9558 341.15 70.9302 341.088 70.9302 341.023C70.9302 340.959 70.9558 340.897 71.0014 340.852C71.047 340.806 71.1088 340.78 71.1733 340.78H202.73C202.795 340.78 202.857 340.806 202.902 340.852C202.948 340.897 202.974 340.959 202.974 341.023C202.974 341.088 202.948 341.15 202.902 341.195C202.857 341.241 202.795 341.267 202.73 341.267Z" fill="#D1D3D4"/>
<path d="M210.237 370.213H59.2431C59.1786 370.213 59.1168 370.188 59.0712 370.142C59.0256 370.097 59 370.035 59 369.97C59 369.906 59.0256 369.844 59.0712 369.798C59.1168 369.753 59.1786 369.727 59.2431 369.727H210.237C210.302 369.727 210.364 369.753 210.409 369.798C210.455 369.844 210.48 369.906 210.48 369.97C210.48 370.035 210.455 370.097 210.409 370.142C210.364 370.188 210.302 370.213 210.237 370.213Z" fill="#D1D3D4"/>
<path d="M62.1841 369.97H102.643L191.476 305.018L197.83 313.74L208.205 278.065L171.062 277L177.416 285.722L62.1841 369.97Z" fill="#AAC0DA"/>
<path d="M79.6279 366.649V372.644C79.6279 374.914 86.1134 376.757 94.1158 376.757C102.118 376.757 108.599 374.914 108.599 372.644V366.649H79.6279Z" fill="white"/>
<path d="M94.1162 377C85.8513 377 79.3853 375.085 79.3853 372.625V366.65C79.3853 366.585 79.4109 366.523 79.4565 366.478C79.502 366.432 79.5639 366.406 79.6283 366.406H108.599C108.664 366.406 108.725 366.432 108.771 366.478C108.817 366.523 108.842 366.585 108.842 366.65V372.644C108.842 375.085 102.376 377 94.1162 377ZM79.8714 366.893V372.644C79.8714 374.511 85.5936 376.533 94.1162 376.533C102.639 376.533 108.356 374.53 108.356 372.644V366.893H79.8714Z" fill="#231F20"/>
<path d="M94.1158 370.758C102.117 370.758 108.604 368.918 108.604 366.649C108.604 364.381 102.117 362.541 94.1158 362.541C86.1144 362.541 79.6279 364.381 79.6279 366.649C79.6279 368.918 86.1144 370.758 94.1158 370.758Z" fill="#231F20"/>
<path d="M94.1163 370.976C85.8514 370.976 79.4146 369.075 79.4146 366.649C79.4146 364.223 85.8709 362.327 94.1163 362.327C102.362 362.327 108.813 364.228 108.813 366.649C108.813 369.071 102.357 370.976 94.1163 370.976ZM94.1163 362.755C85.5792 362.755 79.8424 364.768 79.8424 366.645C79.8424 368.521 85.5792 370.534 94.1163 370.534C102.653 370.534 108.385 368.521 108.385 366.645C108.385 364.768 102.653 362.755 94.1163 362.755Z" fill="#231F20"/>
<path d="M83.041 358.433V364.428C83.041 366.698 89.5265 368.536 97.524 368.536C105.521 368.536 112.012 366.698 112.012 364.428V358.433H83.041Z" fill="white"/>
<path d="M97.5244 368.779C89.2595 368.779 82.7983 366.868 82.7983 364.428V358.433C82.7983 358.369 82.824 358.307 82.8695 358.262C82.9151 358.216 82.977 358.19 83.0414 358.19H112.012C112.077 358.19 112.138 358.216 112.184 358.262C112.23 358.307 112.255 358.369 112.255 358.433V364.428C112.255 366.868 105.784 368.779 97.5244 368.779ZM83.2845 358.676V364.428C83.2845 366.295 89.0067 368.293 97.5244 368.293C106.042 368.293 111.769 366.295 111.769 364.428V358.676H83.2845Z" fill="#231F20"/>
<path d="M97.5239 362.541C105.525 362.541 112.012 360.702 112.012 358.433C112.012 356.164 105.525 354.325 97.5239 354.325C89.5225 354.325 83.0361 356.164 83.0361 358.433C83.0361 360.702 89.5225 362.541 97.5239 362.541Z" fill="#231F20"/>
<path d="M97.524 362.755C89.2592 362.755 82.8271 360.859 82.8271 358.433C82.8271 356.007 89.2835 354.101 97.524 354.101C105.765 354.101 112.226 355.998 112.226 358.423C112.226 360.849 105.769 362.755 97.524 362.755ZM97.524 354.539C88.9869 354.539 83.255 356.552 83.255 358.428C83.255 360.305 88.9869 362.318 97.524 362.318C106.061 362.318 111.798 360.305 111.798 358.428C111.798 356.552 106.056 354.539 97.524 354.539Z" fill="#231F20"/>
<path d="M80.0752 349.274V355.268C80.0752 357.539 86.5607 359.376 94.563 359.376C102.565 359.376 109.051 357.539 109.051 355.268V349.274H80.0752Z" fill="white"/>
<path d="M94.5634 359.62C86.2986 359.62 79.8325 357.709 79.8325 355.268V349.274C79.8325 349.209 79.8581 349.148 79.9037 349.102C79.9493 349.056 80.0111 349.031 80.0756 349.031H109.051C109.116 349.031 109.178 349.056 109.223 349.102C109.269 349.148 109.294 349.209 109.294 349.274V355.268C109.294 357.709 102.823 359.62 94.5634 359.62ZM80.3187 349.517V355.268C80.3187 357.135 86.0409 359.133 94.5634 359.133C103.086 359.133 108.808 357.135 108.808 355.268V349.517H80.3187Z" fill="#231F20"/>
<path d="M94.563 353.382C102.564 353.382 109.051 351.543 109.051 349.274C109.051 347.005 102.564 345.166 94.563 345.166C86.5616 345.166 80.0752 347.005 80.0752 349.274C80.0752 351.543 86.5616 353.382 94.563 353.382Z" fill="white"/>
<path d="M94.5634 353.615C86.2986 353.615 79.8325 351.704 79.8325 349.24C79.8325 346.775 86.3034 344.888 94.5634 344.888C102.823 344.888 109.294 346.799 109.294 349.24C109.294 351.68 102.823 353.615 94.5634 353.615ZM94.5634 345.399C86.0409 345.399 80.3187 347.397 80.3187 349.264C80.3187 351.131 86.0409 353.153 94.5634 353.153C103.086 353.153 108.808 351.155 108.808 349.264C108.808 347.373 103.081 345.409 94.5634 345.409V345.399Z" fill="#231F20"/>
<path d="M94.5633 352.006C88.5543 352.006 82.166 351.034 82.166 349.274C82.166 347.514 88.5543 346.536 94.5633 346.536C100.572 346.536 106.956 347.509 106.956 349.274C106.956 351.038 100.572 352.006 94.5633 352.006ZM94.5633 347.023C87.543 347.023 82.6522 348.209 82.6522 349.274C82.6522 350.338 87.543 351.52 94.5633 351.52C101.584 351.52 106.47 350.338 106.47 349.274C106.47 348.209 101.579 347.023 94.5633 347.023Z" fill="#D1D3D4"/>
<path d="M118.944 366.615V372.61C118.944 374.88 125.43 376.723 133.432 376.723C141.434 376.723 147.92 374.88 147.92 372.61V366.615H118.944Z" fill="white"/>
<path d="M133.432 376.951C125.167 376.951 118.701 375.036 118.701 372.576V366.616C118.702 366.551 118.728 366.49 118.774 366.445C118.819 366.4 118.88 366.374 118.944 366.372H147.92C147.984 366.374 148.045 366.4 148.09 366.445C148.136 366.49 148.162 366.551 148.163 366.616V372.61C148.163 375.051 141.692 376.951 133.432 376.951ZM119.182 366.859V372.61C119.182 374.482 124.91 376.499 133.427 376.499C141.945 376.499 147.672 374.501 147.672 372.61V366.859H119.182Z" fill="#231F20"/>
<path d="M133.432 370.724C141.434 370.724 147.92 368.885 147.92 366.616C147.92 364.347 141.434 362.508 133.432 362.508C125.431 362.508 118.944 364.347 118.944 366.616C118.944 368.885 125.431 370.724 133.432 370.724Z" fill="#231F20"/>
<path d="M133.432 370.942C125.167 370.942 118.73 369.041 118.73 366.615C118.73 364.19 125.187 362.293 133.432 362.293C141.678 362.293 148.134 364.194 148.134 366.615C148.134 369.037 141.678 370.942 133.432 370.942ZM133.432 362.721C124.895 362.721 119.158 364.739 119.158 366.611C119.158 368.482 124.895 370.5 133.432 370.5C141.969 370.5 147.706 368.487 147.706 366.611C147.706 364.734 141.969 362.721 133.432 362.721Z" fill="#231F20"/>
<path d="M117.058 359.512V365.507C117.058 367.777 123.548 369.615 131.546 369.615C139.543 369.615 146.034 367.777 146.034 365.507V359.512H117.058Z" fill="white"/>
<path d="M131.546 369.858C123.281 369.858 116.815 367.948 116.815 365.507V359.512C116.815 359.448 116.841 359.386 116.887 359.341C116.932 359.295 116.994 359.269 117.059 359.269H146.034C146.099 359.269 146.16 359.295 146.206 359.341C146.252 359.386 146.277 359.448 146.277 359.512V365.507C146.277 367.948 139.806 369.858 131.546 369.858ZM117.302 359.756V365.507C117.302 367.374 123.029 369.372 131.546 369.372C140.064 369.372 145.791 367.374 145.791 365.507V359.756H117.302Z" fill="#231F20"/>
<path d="M131.546 363.621C139.547 363.621 146.034 361.782 146.034 359.513C146.034 357.244 139.547 355.405 131.546 355.405C123.545 355.405 117.058 357.244 117.058 359.513C117.058 361.782 123.545 363.621 131.546 363.621Z" fill="#231F20"/>
<path d="M131.546 363.825C123.282 363.825 116.845 361.924 116.845 359.503C116.845 357.082 123.306 355.181 131.546 355.181C139.787 355.181 146.248 357.077 146.248 359.503C146.248 361.929 139.792 363.825 131.546 363.825ZM131.546 355.609C123.009 355.609 117.277 357.621 117.277 359.498C117.277 361.375 123.009 363.387 131.546 363.387C140.084 363.387 145.82 361.375 145.82 359.498C145.82 357.621 140.088 355.618 131.546 355.618V355.609Z" fill="#231F20"/>
<path d="M119.397 350.854V356.853C119.397 359.119 125.882 360.961 133.88 360.961C141.877 360.961 148.368 359.119 148.368 356.853V350.854H119.397Z" fill="white"/>
<path d="M133.88 361.204C125.615 361.204 119.154 359.289 119.154 356.829V350.854C119.154 350.789 119.179 350.727 119.225 350.682C119.271 350.636 119.332 350.611 119.397 350.611H148.353C148.418 350.611 148.479 350.636 148.525 350.682C148.571 350.727 148.596 350.789 148.596 350.854V356.853C148.611 359.289 142.14 361.204 133.88 361.204ZM119.64 351.097V356.853C119.64 358.72 125.362 360.742 133.88 360.742C142.398 360.742 148.125 358.744 148.125 356.853V351.097H119.64Z" fill="#231F20"/>
<path d="M133.879 354.962C141.881 354.962 148.367 353.123 148.367 350.854C148.367 348.585 141.881 346.746 133.879 346.746C125.878 346.746 119.392 348.585 119.392 350.854C119.392 353.123 125.878 354.962 133.879 354.962Z" fill="#231F20"/>
<path d="M133.879 355.181C125.639 355.181 119.183 353.28 119.183 350.854C119.183 348.428 125.639 346.532 133.879 346.532C142.12 346.532 148.581 348.433 148.581 350.854C148.581 353.275 142.125 355.181 133.879 355.181ZM133.879 346.96C125.342 346.96 119.61 348.977 119.61 350.849C119.61 352.721 125.342 354.738 133.879 354.738C142.417 354.738 148.153 352.726 148.153 350.849C148.153 348.972 142.417 346.96 133.879 346.96Z" fill="#231F20"/>
<path d="M117.058 342.166V348.161C117.058 350.431 123.548 352.269 131.546 352.269C139.543 352.269 146.034 350.431 146.034 348.161V342.166H117.058Z" fill="white"/>
<path d="M131.546 352.512C123.281 352.512 116.815 350.601 116.815 348.161V342.166C116.817 342.102 116.843 342.041 116.888 341.996C116.933 341.95 116.994 341.924 117.059 341.923H146.034C146.099 341.923 146.16 341.949 146.206 341.994C146.252 342.04 146.277 342.102 146.277 342.166V348.161C146.277 350.601 139.806 352.512 131.546 352.512ZM117.302 342.434V348.185C117.302 350.052 123.029 352.05 131.546 352.05C140.064 352.05 145.791 350.052 145.791 348.185V342.434H117.302Z" fill="#231F20"/>
<path d="M131.546 346.274C139.547 346.274 146.034 344.435 146.034 342.166C146.034 339.897 139.547 338.058 131.546 338.058C123.545 338.058 117.058 339.897 117.058 342.166C117.058 344.435 123.545 346.274 131.546 346.274Z" fill="#231F20"/>
<path d="M131.546 346.488C123.282 346.488 116.845 344.592 116.845 342.166C116.845 339.74 123.306 337.844 131.546 337.844C139.787 337.844 146.248 339.745 146.248 342.166C146.248 344.587 139.792 346.488 131.546 346.488ZM131.546 338.272C123.009 338.272 117.277 340.284 117.277 342.161C117.277 344.038 123.009 346.05 131.546 346.05C140.084 346.05 145.82 344.038 145.82 342.161C145.82 340.284 140.088 338.272 131.546 338.272Z" fill="#231F20"/>
<path d="M121.73 335.063V341.058C121.73 343.323 128.215 345.166 136.218 345.166C144.22 345.166 150.701 343.323 150.701 341.058V335.063H121.73Z" fill="white"/>
<path d="M136.199 345.409C127.934 345.409 121.468 343.498 121.468 341.033V335.063C121.468 334.999 121.493 334.937 121.539 334.891C121.585 334.846 121.646 334.82 121.711 334.82H150.682C150.746 334.82 150.808 334.846 150.854 334.891C150.899 334.937 150.925 334.999 150.925 335.063V341.058C150.944 343.498 144.464 345.409 136.199 345.409ZM121.954 335.306V341.058C121.954 342.924 127.676 344.947 136.199 344.947C144.721 344.947 150.439 342.949 150.439 341.058V335.306H121.954Z" fill="#231F20"/>
<path d="M136.218 339.171C144.219 339.171 150.706 337.332 150.706 335.063C150.706 332.794 144.219 330.955 136.218 330.955C128.216 330.955 121.73 332.794 121.73 335.063C121.73 337.332 128.216 339.171 136.218 339.171Z" fill="#231F20"/>
<path d="M136.199 339.385C127.934 339.385 121.497 337.484 121.497 335.058C121.497 332.632 127.953 330.736 136.199 330.736C144.444 330.736 150.896 332.637 150.896 335.058C150.896 337.479 144.464 339.385 136.199 339.385ZM136.199 331.164C127.662 331.164 121.925 333.181 121.925 335.053C121.925 336.925 127.662 338.942 136.199 338.942C144.736 338.942 150.468 336.925 150.468 335.053C150.468 333.181 144.755 331.164 136.199 331.164Z" fill="#231F20"/>
<path d="M118.551 327.955V333.95C118.551 336.22 125.036 338.058 133.039 338.058C141.041 338.058 147.526 336.22 147.526 333.95V327.955H118.551Z" fill="white"/>
<path d="M133.039 338.301C124.774 338.301 118.308 336.39 118.308 333.95V327.955C118.308 327.891 118.333 327.829 118.379 327.783C118.424 327.738 118.486 327.712 118.551 327.712H147.526C147.591 327.712 147.653 327.738 147.698 327.783C147.744 327.829 147.769 327.891 147.769 327.955V333.95C147.769 336.39 141.299 338.301 133.039 338.301ZM118.794 328.198V333.95C118.794 335.816 124.516 337.815 133.039 337.815C141.561 337.815 147.283 335.816 147.283 333.95V328.198H118.794Z" fill="#231F20"/>
<path d="M133.039 332.063C141.04 332.063 147.526 330.224 147.526 327.955C147.526 325.686 141.04 323.847 133.039 323.847C125.037 323.847 118.551 325.686 118.551 327.955C118.551 330.224 125.037 332.063 133.039 332.063Z" fill="white"/>
<path d="M133.039 332.306C124.774 332.306 118.308 330.396 118.308 327.955C118.308 325.515 124.779 323.604 133.039 323.604C141.299 323.604 147.769 325.515 147.769 327.955C147.769 330.396 141.299 332.306 133.039 332.306ZM133.039 324.09C124.516 324.09 118.794 326.088 118.794 327.955C118.794 329.822 124.516 331.82 133.039 331.82C141.561 331.82 147.283 329.822 147.283 327.955C147.283 326.088 141.546 324.09 133.039 324.09Z" fill="#231F20"/>
<path d="M133.038 330.688C127.029 330.688 120.641 329.715 120.641 327.955C120.641 326.195 127.029 325.218 133.038 325.218C139.047 325.218 145.431 326.19 145.431 327.955C145.431 329.72 139.047 330.688 133.038 330.688ZM133.038 325.704C126.018 325.704 121.127 326.891 121.127 327.955C121.127 329.02 126.018 330.201 133.038 330.201C140.059 330.201 144.95 329.02 144.95 327.955C144.95 326.891 140.054 325.704 133.038 325.704Z" fill="#D1D3D4"/>
<path d="M187.966 366.615V372.61C187.966 374.88 181.48 376.723 173.483 376.723C165.485 376.723 158.995 374.88 158.995 372.61V366.615H187.966Z" fill="white"/>
<path d="M173.483 376.951C165.218 376.951 158.752 375.036 158.752 372.576V366.616C158.752 366.551 158.778 366.489 158.823 366.444C158.869 366.398 158.931 366.372 158.995 366.372H187.966C188.03 366.372 188.092 366.398 188.138 366.444C188.183 366.489 188.209 366.551 188.209 366.616V372.61C188.219 375.051 181.738 376.951 173.483 376.951ZM159.238 366.844V372.595C159.238 374.467 164.96 376.485 173.483 376.485C182.005 376.485 187.723 374.487 187.723 372.595V366.859L159.238 366.844Z" fill="#231F20"/>
<path d="M173.483 370.724C181.484 370.724 187.971 368.885 187.971 366.616C187.971 364.347 181.484 362.508 173.483 362.508C165.482 362.508 158.995 364.347 158.995 366.616C158.995 368.885 165.482 370.724 173.483 370.724Z" fill="#231F20"/>
<path d="M173.483 370.942C165.219 370.942 158.782 369.041 158.782 366.615C158.782 364.19 165.238 362.293 173.483 362.293C181.729 362.293 188.18 364.194 188.18 366.615C188.18 369.037 181.724 370.942 173.483 370.942ZM173.483 362.721C164.942 362.721 159.21 364.739 159.21 366.611C159.21 368.482 164.942 370.5 173.483 370.5C182.025 370.5 187.753 368.487 187.753 366.611C187.753 364.734 182.021 362.721 173.483 362.721Z" fill="#231F20"/>
<path d="M189.852 359.512V365.507C189.852 367.777 183.367 369.615 175.364 369.615C167.362 369.615 160.881 367.777 160.881 365.507V359.512H189.852Z" fill="white"/>
<path d="M175.365 369.858C167.1 369.858 160.639 367.948 160.639 365.507V359.512C160.639 359.448 160.664 359.386 160.71 359.341C160.755 359.295 160.817 359.269 160.882 359.269H189.853C189.917 359.269 189.979 359.295 190.024 359.341C190.07 359.386 190.096 359.448 190.096 359.512V365.507C190.096 367.948 183.625 369.858 175.365 369.858ZM161.125 359.756V365.507C161.125 367.374 166.847 369.372 175.365 369.372C183.882 369.372 189.609 367.374 189.609 365.507V359.756H161.125Z" fill="#231F20"/>
<path d="M175.364 363.621C183.366 363.621 189.852 361.782 189.852 359.513C189.852 357.244 183.366 355.405 175.364 355.405C167.363 355.405 160.876 357.244 160.876 359.513C160.876 361.782 167.363 363.621 175.364 363.621Z" fill="#231F20"/>
<path d="M175.364 363.825C167.124 363.825 160.667 361.924 160.667 359.503C160.667 357.082 167.124 355.181 175.364 355.181C183.605 355.181 190.066 357.077 190.066 359.503C190.066 361.929 183.61 363.825 175.364 363.825ZM175.364 355.609C166.827 355.609 161.095 357.621 161.095 359.498C161.095 361.375 166.827 363.387 175.364 363.387C183.901 363.387 189.638 361.375 189.638 359.498C189.638 357.621 183.901 355.618 175.364 355.618V355.609Z" fill="#231F20"/>
<path d="M187.519 350.854V356.853C187.519 359.119 181.033 360.961 173.031 360.961C165.028 360.961 158.543 359.119 158.543 356.853V350.854H187.519Z" fill="white"/>
<path d="M173.031 361.204C164.766 361.204 158.3 359.289 158.3 356.829V350.854C158.301 350.79 158.327 350.729 158.372 350.683C158.418 350.638 158.479 350.612 158.543 350.611H187.519C187.583 350.611 187.645 350.636 187.69 350.682C187.736 350.727 187.762 350.789 187.762 350.854V356.853C187.762 359.289 181.291 361.204 173.031 361.204ZM158.786 351.097V356.853C158.786 358.72 164.513 360.742 173.031 360.742C181.548 360.742 187.275 358.744 187.275 356.853V351.097H158.786Z" fill="#231F20"/>
<path d="M173.031 354.962C181.032 354.962 187.519 353.123 187.519 350.854C187.519 348.585 181.032 346.746 173.031 346.746C165.029 346.746 158.543 348.585 158.543 350.854C158.543 353.123 165.029 354.962 173.031 354.962Z" fill="#231F20"/>
<path d="M173.031 355.181C164.791 355.181 158.33 353.28 158.33 350.854C158.33 348.428 164.791 346.532 173.031 346.532C181.272 346.532 187.733 348.433 187.733 350.854C187.733 353.275 181.277 355.181 173.031 355.181ZM173.031 346.96C164.494 346.96 158.762 348.977 158.762 350.849C158.762 352.721 164.494 354.738 173.031 354.738C181.568 354.738 187.305 352.726 187.305 350.849C187.305 348.972 181.568 346.96 173.031 346.96Z" fill="#231F20"/>
<path d="M189.852 342.166V348.161C189.852 350.431 183.367 352.269 175.364 352.269C167.362 352.269 160.881 350.431 160.881 348.161V342.166H189.852Z" fill="white"/>
<path d="M175.365 352.512C167.1 352.512 160.639 350.601 160.639 348.161V342.166C160.639 342.102 160.664 342.04 160.71 341.994C160.755 341.949 160.817 341.923 160.882 341.923H189.853C189.917 341.923 189.979 341.949 190.024 341.994C190.07 342.04 190.096 342.102 190.096 342.166V348.161C190.096 350.601 183.625 352.512 175.365 352.512ZM161.125 342.434V348.185C161.125 350.052 166.847 352.05 175.365 352.05C183.882 352.05 189.609 350.052 189.609 348.185V342.434H161.125Z" fill="#231F20"/>
<path d="M175.364 346.274C183.366 346.274 189.852 344.435 189.852 342.166C189.852 339.897 183.366 338.058 175.364 338.058C167.363 338.058 160.876 339.897 160.876 342.166C160.876 344.435 167.363 346.274 175.364 346.274Z" fill="#231F20"/>
<path d="M175.364 346.488C167.124 346.488 160.667 344.592 160.667 342.166C160.667 339.74 167.124 337.844 175.364 337.844C183.605 337.844 190.066 339.745 190.066 342.166C190.066 344.587 183.61 346.488 175.364 346.488ZM175.364 338.272C166.827 338.272 161.095 340.284 161.095 342.161C161.095 344.038 166.827 346.05 175.364 346.05C183.901 346.05 189.638 344.038 189.638 342.161C189.638 340.284 183.901 338.272 175.364 338.272Z" fill="#231F20"/>
<path d="M185.185 335.063V341.058C185.185 343.323 178.7 345.166 170.697 345.166C162.695 345.166 156.209 343.323 156.209 341.058V335.063H185.185Z" fill="white"/>
<path d="M170.717 345.409C162.452 345.409 155.986 343.498 155.986 341.033V335.063C155.986 334.999 156.011 334.937 156.057 334.891C156.103 334.846 156.164 334.82 156.229 334.82H185.205C185.269 334.82 185.331 334.846 185.376 334.891C185.422 334.937 185.448 334.999 185.448 335.063V341.058C185.428 343.498 178.982 345.409 170.717 345.409ZM156.472 335.306V341.058C156.472 342.924 162.194 344.947 170.717 344.947C179.239 344.947 184.962 342.949 184.962 341.058V335.306H156.472Z" fill="#231F20"/>
<path d="M170.697 339.171C178.699 339.171 185.185 337.332 185.185 335.063C185.185 332.794 178.699 330.955 170.697 330.955C162.696 330.955 156.209 332.794 156.209 335.063C156.209 337.332 162.696 339.171 170.697 339.171Z" fill="#231F20"/>
<path d="M170.716 339.385C162.452 339.385 156.015 337.484 156.015 335.058C156.015 332.632 162.452 330.736 170.716 330.736C178.981 330.736 185.418 332.637 185.418 335.058C185.418 337.479 178.942 339.385 170.716 339.385ZM170.716 331.164C162.179 331.164 156.442 333.181 156.442 335.053C156.442 336.925 162.179 338.942 170.716 338.942C179.253 338.942 184.99 336.925 184.99 335.053C184.99 333.181 179.234 331.164 170.716 331.164Z" fill="#231F20"/>
<path d="M188.359 327.955V333.95C188.359 336.22 181.874 338.058 173.876 338.058C165.879 338.058 159.389 336.22 159.389 333.95V327.955H188.359Z" fill="white"/>
<path d="M173.876 338.301C165.612 338.301 159.146 336.39 159.146 333.95V327.955C159.146 327.891 159.171 327.829 159.217 327.783C159.262 327.738 159.324 327.712 159.389 327.712H188.359C188.424 327.712 188.486 327.738 188.531 327.783C188.577 327.829 188.602 327.891 188.602 327.955V333.95C188.602 336.39 182.136 338.301 173.876 338.301ZM159.632 328.198V333.95C159.632 335.816 165.354 337.815 173.876 337.815C182.399 337.815 188.116 335.816 188.116 333.95V328.198H159.632Z" fill="#231F20"/>
<path d="M173.876 332.063C181.878 332.063 188.364 330.224 188.364 327.955C188.364 325.686 181.878 323.847 173.876 323.847C165.875 323.847 159.389 325.686 159.389 327.955C159.389 330.224 165.875 332.063 173.876 332.063Z" fill="#231F20"/>
<path d="M173.877 332.277C165.612 332.277 159.175 330.381 159.175 327.955C159.175 325.529 165.632 323.633 173.877 323.633C182.122 323.633 188.579 325.529 188.579 327.955C188.579 330.381 182.118 332.277 173.877 332.277ZM173.877 324.061C165.34 324.061 159.603 326.074 159.603 327.95C159.603 329.827 165.34 331.84 173.877 331.84C182.414 331.84 188.146 329.827 188.146 327.95C188.146 326.074 182.414 324.061 173.877 324.061Z" fill="#231F20"/>
<path d="M188.87 319.904V325.904C188.87 328.174 182.385 330.012 174.382 330.012C166.38 330.012 159.899 328.174 159.899 325.904V319.904H188.87Z" fill="white"/>
<path d="M174.382 330.25C166.117 330.25 159.656 328.339 159.656 325.899V319.904C159.656 319.84 159.682 319.778 159.727 319.733C159.773 319.687 159.835 319.661 159.899 319.661H188.87C188.935 319.661 188.996 319.687 189.042 319.733C189.088 319.778 189.113 319.84 189.113 319.904V325.904C189.113 328.335 182.642 330.25 174.382 330.25ZM160.142 320.148V325.904C160.142 327.771 165.865 329.769 174.382 329.769C182.9 329.769 188.627 327.771 188.627 325.904V320.148H160.142Z" fill="#231F20"/>
<path d="M174.382 324.012C182.384 324.012 188.87 322.173 188.87 319.904C188.87 317.635 182.384 315.796 174.382 315.796C166.381 315.796 159.895 317.635 159.895 319.904C159.895 322.173 166.381 324.012 174.382 324.012Z" fill="#231F20"/>
<path d="M174.382 324.226C166.118 324.226 159.686 322.33 159.686 319.904C159.686 317.478 166.142 315.582 174.382 315.582C182.623 315.582 189.084 317.483 189.084 319.904C189.084 322.325 182.628 324.226 174.382 324.226ZM174.382 316.01C165.845 316.01 160.113 318.023 160.113 319.899C160.113 321.776 165.845 323.789 174.382 323.789C182.92 323.789 188.656 321.776 188.656 319.899C188.656 318.023 182.92 316.01 174.382 316.01Z" fill="#231F20"/>
<path d="M186.026 312.058V318.052C186.026 320.322 179.54 322.16 171.538 322.16C163.536 322.16 157.055 320.322 157.055 318.052V312.058H186.026Z" fill="white"/>
<path d="M171.539 322.403C163.274 322.403 156.812 320.493 156.812 318.028V312.058C156.812 311.993 156.838 311.931 156.884 311.886C156.929 311.84 156.991 311.815 157.056 311.815H186.026C186.091 311.815 186.153 311.84 186.198 311.886C186.244 311.931 186.269 311.993 186.269 312.058V318.052C186.274 320.493 179.799 322.403 171.539 322.403ZM157.299 312.291V318.042C157.299 319.909 163.021 321.932 171.539 321.932C180.056 321.932 185.783 319.934 185.783 318.042V312.291H157.299Z" fill="#231F20"/>
<path d="M171.538 316.166C179.54 316.166 186.026 314.326 186.026 312.058C186.026 309.789 179.54 307.949 171.538 307.949C163.537 307.949 157.05 309.789 157.05 312.058C157.05 314.326 163.537 316.166 171.538 316.166Z" fill="#231F20"/>
<path d="M171.538 316.38C163.298 316.38 156.841 314.484 156.841 312.058C156.841 309.632 163.298 307.736 171.538 307.736C179.779 307.736 186.24 309.637 186.24 312.058C186.24 314.479 179.784 316.38 171.538 316.38ZM171.538 308.163C163.001 308.163 157.269 310.176 157.269 312.053C157.269 313.929 163.001 315.942 171.538 315.942C180.075 315.942 185.812 313.929 185.812 312.053C185.812 310.176 180.08 308.163 171.538 308.163Z" fill="#231F20"/>
<path d="M189.852 304.026V310.006C189.852 312.271 183.367 314.114 175.364 314.114C167.362 314.114 160.881 312.271 160.881 310.006V304.026H189.852Z" fill="white"/>
<path d="M175.365 314.357C167.1 314.357 160.639 312.446 160.639 309.982V304.026C160.639 303.962 160.664 303.9 160.71 303.854C160.755 303.809 160.817 303.783 160.882 303.783H189.853C189.917 303.783 189.979 303.809 190.024 303.854C190.07 303.9 190.096 303.962 190.096 304.026V310.006C190.096 312.446 183.625 314.357 175.365 314.357ZM161.125 304.255V310.006C161.125 311.873 166.847 313.895 175.365 313.895C183.882 313.895 189.609 311.897 189.609 310.006V304.255H161.125Z" fill="#231F20"/>
<path d="M175.364 308.12C183.366 308.12 189.852 306.28 189.852 304.012C189.852 301.743 183.366 299.903 175.364 299.903C167.363 299.903 160.876 301.743 160.876 304.012C160.876 306.28 167.363 308.12 175.364 308.12Z" fill="white"/>
<path d="M175.365 308.363C167.1 308.363 160.639 306.447 160.639 303.987C160.639 301.527 167.105 299.612 175.365 299.612C183.625 299.612 190.096 301.527 190.096 303.987C190.096 306.447 183.625 308.363 175.365 308.363ZM175.365 300.141C166.847 300.141 161.125 302.14 161.125 304.031C161.125 305.922 166.847 307.92 175.365 307.92C183.882 307.92 189.609 305.922 189.609 304.031C189.609 302.14 183.887 300.137 175.365 300.137V300.141Z" fill="#231F20"/>
<path d="M175.364 306.744C169.355 306.744 162.972 305.771 162.972 304.011C162.972 302.251 169.355 301.274 175.364 301.274C181.373 301.274 187.761 302.247 187.761 304.011C187.761 305.776 181.373 306.744 175.364 306.744ZM175.364 301.76C168.349 301.76 163.458 302.947 163.458 304.011C163.458 305.076 168.349 306.258 175.364 306.258C182.38 306.258 187.275 305.071 187.275 304.011C187.275 302.952 182.384 301.76 175.364 301.76Z" fill="#D1D3D4"/>
</g>
<path d="M36.3301 96.2695C53.1758 96.2695 64.6992 86.1621 64.6992 71.123V71.0254C64.6992 57.8418 55.0801 48.3203 41.7988 48.3203C34.4746 48.3203 28.7129 51.3965 25.9297 56.1328H25.5879L27.0039 38.3105H60.3047V24.541H12.8926L9.86523 66.5332H25.3926C26.125 65.1172 27.2969 63.7988 28.7617 62.7734C30.7637 61.3086 33.3516 60.4785 36.3301 60.4785C43.0195 60.4785 47.8047 64.9219 47.8047 71.3672V71.4648C47.8047 77.959 43.0684 82.5 36.3301 82.5C30.4219 82.5 26.1738 79.0332 25.0508 74.6387L24.9531 74.2969H8.69336L8.74219 75.127C9.52344 87.041 19.9727 96.2695 36.3301 96.2695Z" fill="#B6C9DE"/>
<defs>
<linearGradient id="paint0_linear" x1="-962" y1="162.395" x2="27.8499" y2="806.45" gradientUnits="userSpaceOnUse">
<stop stop-color="#AAC0DA"/>
<stop offset="0.895833" stop-color="#EDF0F3"/>
</linearGradient>
<clipPath id="clip0">
<rect width="270" height="350" fill="white" transform="translate(0 66)"/>
</clipPath>
</defs>
</svg>
