<svg width="270" height="427" viewBox="0 0 270 427" fill="none" xmlns="http://www.w3.org/2000/svg">
<g clip-path="url(#clip0)">
<rect width="270" height="350" transform="translate(0 77)" fill="#FBFBFD"/>
<path d="M158 173.395C228.784 186.337 272.816 220.783 290.096 276.732C316.015 360.655 365.771 402.521 425.894 386.159C486.018 369.797 514.034 311.613 489.5 239.5C464.966 167.387 538.903 119.92 578.861 121.833C618.818 123.747 652.938 143.981 668.674 173.596C703.474 239.091 628.898 327.345 666.082 385.929C703.267 444.513 761.5 442 811.5 390.5C811.5 390.5 838.613 353.802 840 350.5C867.889 284.118 1049 98 1125 114C1205.04 130.85 1231.62 229.769 1165 306" stroke="url(#paint0_linear)" stroke-opacity="0.3" stroke-width="50" stroke-linecap="round"/>
<path d="M76.0421 378.748L111.578 371.237C112.691 371.003 113.584 369.58 113.584 368.06V289.946C113.584 288.426 112.7 287.007 111.578 286.769L76.0421 279.258C74.4781 278.926 73.1968 280.141 73.1968 281.966V376.039C73.1968 377.869 74.4781 379.079 76.0421 378.748Z" fill="#231F20"/>
<path d="M75.5339 379C74.9943 379.009 74.4682 378.831 74.0449 378.496C73.7017 378.193 73.4301 377.817 73.2498 377.396C73.0695 376.975 72.9849 376.519 73.0022 376.062V281.984C72.9849 281.526 73.0695 281.07 73.2498 280.649C73.4301 280.228 73.7017 279.853 74.0449 279.549C74.3287 279.326 74.6595 279.17 75.0124 279.094C75.3653 279.017 75.7309 279.022 76.0817 279.108L111.618 286.597C112.828 286.853 113.778 288.333 113.778 289.963V368.069C113.778 369.699 112.828 371.162 111.618 371.436L76.0817 378.938C75.9018 378.978 75.7182 378.999 75.5339 379ZM76.0022 378.558L76.042 378.748L76.0022 378.558L111.538 371.047C112.559 370.83 113.389 369.492 113.389 368.06V289.946C113.389 288.514 112.559 287.175 111.538 286.959L76.0022 279.448C75.7056 279.379 75.3973 279.378 75.1004 279.445C74.8035 279.513 74.5257 279.647 74.2879 279.837C73.9928 280.105 73.7605 280.434 73.6077 280.803C73.455 281.171 73.3855 281.568 73.4043 281.966V376.039C73.3849 376.438 73.4541 376.835 73.6069 377.204C73.7597 377.572 73.9923 377.902 74.2879 378.169C74.5257 378.359 74.8035 378.493 75.1004 378.56C75.3973 378.628 75.7056 378.627 76.0022 378.558Z" fill="#231F20"/>
<path d="M79.1038 377.939L113.787 370.64C114.878 370.411 115.753 369.01 115.753 367.503V290.237C115.753 288.735 114.869 287.33 113.787 287.1L79.1038 279.757C77.5795 279.435 76.3291 280.641 76.3291 282.439V375.257C76.3291 377.06 77.5795 378.262 79.1038 377.939Z" fill="white"/>
<path d="M78.6179 378.213C78.0838 378.216 77.5654 378.033 77.151 377.696C76.8072 377.393 76.5353 377.016 76.355 376.594C76.1746 376.173 76.0904 375.716 76.1083 375.257V282.439C76.0904 281.981 76.1746 281.524 76.355 281.102C76.5353 280.68 76.8072 280.304 77.151 280C77.429 279.781 77.753 279.627 78.0989 279.55C78.4447 279.474 78.8034 279.476 79.1481 279.558L113.836 286.901C115.033 287.153 115.974 288.629 115.974 290.255V367.503C115.974 369.134 115.033 370.596 113.836 370.857L79.1481 378.156C78.9739 378.194 78.7962 378.213 78.6179 378.213ZM78.6179 279.925C78.1825 279.93 77.7623 280.086 77.4294 280.367C77.136 280.629 76.9045 280.952 76.7517 281.314C76.5989 281.677 76.5285 282.068 76.5457 282.461V375.257C76.5285 375.65 76.5989 376.042 76.7517 376.404C76.9045 376.766 77.136 377.09 77.4294 377.352C77.6542 377.533 77.9175 377.661 78.1993 377.726C78.4811 377.79 78.7739 377.789 79.0553 377.723L113.738 370.424C114.724 370.216 115.528 368.908 115.528 367.503V290.237C115.528 288.832 114.724 287.524 113.738 287.317L79.0553 279.969C78.9114 279.939 78.7648 279.925 78.6179 279.925Z" fill="#231F20"/>
<path d="M81.6314 371.665C81.1913 371.664 80.7659 371.507 80.4296 371.224C80.1543 370.975 79.9368 370.668 79.7925 370.326C79.6483 369.984 79.5807 369.615 79.5945 369.244V288.77C79.5807 288.399 79.6483 288.03 79.7925 287.688C79.9368 287.346 80.1543 287.04 80.4296 286.791C80.6446 286.611 80.897 286.482 81.1684 286.413C81.4397 286.343 81.7232 286.335 81.9981 286.389L111.764 291.898C112.758 292.084 113.531 293.268 113.531 294.598V363.434C113.531 364.76 112.749 365.948 111.764 366.134L81.9981 371.63C81.8774 371.655 81.7545 371.666 81.6314 371.665ZM81.6314 286.795C81.2963 286.795 80.972 286.914 80.7168 287.131C80.4915 287.339 80.3144 287.593 80.1976 287.876C80.0808 288.159 80.0273 288.464 80.0408 288.77V369.253C80.0273 369.559 80.0808 369.864 80.1976 370.147C80.3144 370.43 80.4915 370.685 80.7168 370.892C80.8814 371.031 81.0756 371.131 81.2847 371.184C81.4937 371.237 81.712 371.241 81.923 371.197L111.684 365.683C112.462 365.537 113.098 364.521 113.098 363.416V294.58C113.098 293.476 112.462 292.46 111.684 292.314L81.9274 286.826C81.8287 286.805 81.7279 286.794 81.6269 286.795H81.6314Z" fill="#D1D3D4"/>
<path d="M103.404 288.209H103.36L97.0284 286.963C96.9708 286.951 96.9204 286.916 96.8882 286.866C96.8559 286.817 96.8444 286.757 96.8559 286.699C96.8675 286.641 96.9013 286.59 96.9501 286.557C96.9988 286.524 97.0587 286.511 97.1167 286.521L103.444 287.772C103.501 287.783 103.552 287.816 103.585 287.864C103.618 287.912 103.631 287.971 103.62 288.028C103.61 288.078 103.583 288.124 103.544 288.157C103.505 288.19 103.455 288.208 103.404 288.209Z" fill="#D1D3D4"/>
<path d="M96.1008 286.769H96.0654L94.9078 286.544C94.8502 286.532 94.7994 286.498 94.7664 286.449C94.7333 286.4 94.7207 286.341 94.7311 286.283C94.7363 286.254 94.7473 286.227 94.7634 286.202C94.7795 286.178 94.8003 286.157 94.8247 286.141C94.849 286.125 94.8764 286.114 94.9051 286.109C94.9338 286.104 94.9633 286.104 94.9918 286.111L96.1494 286.336C96.1778 286.342 96.2048 286.353 96.2288 286.369C96.2529 286.385 96.2735 286.406 96.2895 286.431C96.3055 286.455 96.3166 286.482 96.3221 286.51C96.3276 286.539 96.3275 286.568 96.3217 286.597C96.3112 286.647 96.2833 286.692 96.2428 286.723C96.2024 286.755 96.152 286.771 96.1008 286.769Z" fill="#D1D3D4"/>
<path d="M74.6325 301.296C74.5739 301.296 74.5178 301.273 74.4763 301.231C74.4349 301.19 74.4116 301.134 74.4116 301.075V291.408C74.4116 291.349 74.4349 291.293 74.4763 291.252C74.5178 291.21 74.5739 291.187 74.6325 291.187C74.6908 291.188 74.7463 291.212 74.7875 291.253C74.8287 291.294 74.8523 291.35 74.8534 291.408V301.075C74.8523 301.133 74.8287 301.189 74.7875 301.23C74.7463 301.271 74.6908 301.295 74.6325 301.296Z" fill="#D1D3D4"/>
<path d="M193.85 378.748L158.314 371.237C157.201 371.003 156.308 369.58 156.308 368.06V289.946C156.308 288.426 157.192 287.007 158.314 286.769L193.85 279.258C195.414 278.926 196.695 280.141 196.695 281.966V376.039C196.695 377.869 195.414 379.079 193.85 378.748Z" fill="#231F20"/>
<path d="M194.358 379C194.174 378.999 193.99 378.978 193.81 378.938L158.274 371.427C157.064 371.171 156.114 369.69 156.114 368.06V289.946C156.114 288.315 157.064 286.853 158.274 286.579L193.81 279.068C194.161 278.982 194.527 278.978 194.88 279.054C195.232 279.131 195.563 279.286 195.847 279.51C196.19 279.813 196.462 280.189 196.642 280.61C196.822 281.031 196.907 281.486 196.89 281.944V376.039C196.907 376.497 196.822 376.953 196.642 377.374C196.462 377.795 196.19 378.171 195.847 378.474C195.427 378.817 194.9 379.002 194.358 379ZM193.89 378.558C194.186 378.627 194.495 378.628 194.792 378.56C195.088 378.493 195.366 378.359 195.604 378.169C195.9 377.902 196.132 377.572 196.285 377.204C196.438 376.835 196.507 376.438 196.488 376.039V281.984C196.506 281.586 196.437 281.188 196.284 280.82C196.131 280.452 195.899 280.122 195.604 279.854C195.366 279.664 195.088 279.53 194.792 279.463C194.495 279.396 194.186 279.397 193.89 279.466L158.363 286.959C157.342 287.175 156.511 288.514 156.511 289.946V368.069C156.511 369.5 157.342 370.839 158.363 371.056L193.89 378.558Z" fill="#231F20"/>
<path d="M190.788 377.939L156.105 370.64C155.013 370.411 154.139 369.01 154.139 367.503V290.237C154.139 288.735 155.022 287.33 156.105 287.1L190.788 279.757C192.312 279.435 193.563 280.641 193.563 282.439V375.257C193.563 377.06 192.312 378.262 190.788 377.939Z" fill="white"/>
<path d="M191.274 378.213C191.096 378.213 190.918 378.194 190.744 378.156L156.056 370.857C154.859 370.605 153.918 369.134 153.918 367.503V290.237C153.918 288.611 154.859 287.144 156.056 286.884L190.744 279.527C191.089 279.445 191.447 279.442 191.793 279.519C192.139 279.595 192.463 279.749 192.741 279.969C193.085 280.273 193.357 280.649 193.537 281.071C193.717 281.493 193.802 281.95 193.784 282.408V375.257C193.802 375.716 193.717 376.172 193.537 376.594C193.357 377.016 193.085 377.393 192.741 377.696C192.327 378.033 191.808 378.216 191.274 378.213ZM190.832 377.723C191.114 377.789 191.407 377.79 191.688 377.726C191.97 377.661 192.234 377.533 192.458 377.352C192.752 377.09 192.983 376.766 193.136 376.404C193.289 376.042 193.359 375.65 193.342 375.257V282.439C193.359 282.046 193.289 281.655 193.136 281.292C192.983 280.93 192.752 280.606 192.458 280.345C192.234 280.163 191.972 280.034 191.691 279.969C191.41 279.904 191.118 279.904 190.837 279.969L156.154 287.317C155.168 287.524 154.364 288.832 154.364 290.237V367.503C154.364 368.908 155.168 370.216 156.154 370.424L190.832 377.723Z" fill="#231F20"/>
<path d="M188.261 371.665C188.138 371.666 188.015 371.655 187.894 371.63L158.129 366.125C157.135 365.939 156.361 364.755 156.361 363.425V294.58C156.361 293.255 157.143 292.066 158.129 291.881L187.894 286.389C188.169 286.335 188.453 286.343 188.724 286.413C188.995 286.482 189.248 286.611 189.463 286.791C189.738 287.04 189.956 287.346 190.1 287.688C190.244 288.03 190.312 288.399 190.298 288.77V369.253C190.312 369.624 190.244 369.993 190.1 370.335C189.956 370.677 189.738 370.983 189.463 371.232C189.125 371.513 188.7 371.666 188.261 371.665ZM158.217 292.314C157.439 292.46 156.803 293.476 156.803 294.58V363.434C156.803 364.539 157.439 365.555 158.217 365.701L187.965 371.197C188.176 371.241 188.394 371.236 188.603 371.183C188.812 371.131 189.006 371.031 189.171 370.892C189.396 370.685 189.574 370.43 189.69 370.147C189.807 369.864 189.861 369.559 189.847 369.253V288.77C189.861 288.464 189.807 288.159 189.69 287.876C189.574 287.593 189.396 287.339 189.171 287.131C189.006 286.992 188.812 286.893 188.603 286.84C188.394 286.787 188.176 286.782 187.965 286.826L158.208 292.314H158.217Z" fill="#D1D3D4"/>
<path d="M166.488 288.209C166.437 288.208 166.387 288.19 166.348 288.157C166.309 288.124 166.282 288.078 166.272 288.028C166.261 287.971 166.274 287.912 166.307 287.864C166.34 287.816 166.391 287.783 166.448 287.772L172.775 286.521C172.833 286.511 172.893 286.524 172.942 286.557C172.991 286.59 173.024 286.641 173.036 286.699C173.048 286.757 173.036 286.817 173.004 286.866C172.972 286.916 172.921 286.951 172.864 286.963L166.532 288.209H166.488Z" fill="#D1D3D4"/>
<path d="M173.791 286.769C173.74 286.77 173.69 286.752 173.651 286.72C173.611 286.688 173.584 286.642 173.575 286.592C173.569 286.564 173.569 286.534 173.574 286.506C173.58 286.477 173.591 286.45 173.607 286.426C173.623 286.402 173.644 286.381 173.668 286.365C173.692 286.348 173.719 286.337 173.747 286.331L174.905 286.106C174.933 286.1 174.963 286.099 174.991 286.104C175.02 286.109 175.047 286.121 175.072 286.137C175.096 286.153 175.117 286.174 175.133 286.198C175.149 286.222 175.16 286.25 175.165 286.278C175.176 286.336 175.163 286.396 175.13 286.445C175.097 286.493 175.046 286.527 174.989 286.539L173.831 286.764L173.791 286.769Z" fill="#D1D3D4"/>
<path d="M195.259 301.296C195.201 301.295 195.146 301.271 195.105 301.23C195.063 301.189 195.04 301.133 195.039 301.075V291.408C195.04 291.35 195.063 291.294 195.105 291.253C195.146 291.212 195.201 291.188 195.259 291.187C195.318 291.187 195.374 291.21 195.416 291.252C195.457 291.293 195.48 291.349 195.48 291.408V301.075C195.48 301.134 195.457 301.19 195.416 301.231C195.374 301.273 195.318 301.296 195.259 301.296Z" fill="#D1D3D4"/>
<path d="M164.632 355.888C164.632 355.888 162.065 355.808 161.593 350.524C161.12 345.24 162.087 338.917 163.21 338.833C164.332 338.749 167.668 346.115 167.274 348.872C166.881 351.629 168.083 356.047 164.632 355.888Z" fill="#231F20"/>
<path d="M164.8 356.087H164.623C164.482 356.087 161.879 355.91 161.398 350.546C160.987 345.956 161.645 340.199 162.723 338.922C162.779 338.847 162.849 338.783 162.929 338.735C163.01 338.688 163.099 338.656 163.192 338.643C163.336 338.656 163.476 338.7 163.602 338.772C163.727 338.843 163.836 338.941 163.921 339.059C165.374 340.618 167.804 346.486 167.455 348.903C167.372 349.667 167.341 350.436 167.363 351.204C167.363 352.888 167.363 354.629 166.448 355.512C165.995 355.912 165.403 356.118 164.8 356.087ZM163.223 339.028C163.141 339.05 163.069 339.1 163.019 339.169C162.105 340.252 161.354 345.695 161.782 350.506C162.224 355.526 164.61 355.693 164.632 355.693C164.908 355.727 165.188 355.703 165.455 355.623C165.721 355.542 165.968 355.407 166.178 355.225C166.978 354.456 166.974 352.799 166.974 351.2C166.951 350.414 166.984 349.627 167.071 348.845C167.398 346.565 165.008 340.795 163.629 339.324C163.386 339.05 163.262 339.028 163.223 339.028Z" fill="#231F20"/>
<path d="M99.927 321.942C99.927 321.942 103.174 323.361 105.255 318.116C107.336 312.872 108.348 304.15 106.174 303.536C104.001 302.922 94.5147 314.277 99.927 321.942Z" fill="#231F20"/>
<path d="M100.925 322.305C100.554 322.311 100.185 322.247 99.8384 322.115C99.8072 322.099 99.78 322.076 99.7589 322.049C96.5512 317.493 98.4953 311.471 101.367 307.362C103.183 304.778 105.215 303.094 106.227 303.386C106.418 303.449 106.594 303.553 106.741 303.69C106.888 303.827 107.004 303.995 107.08 304.181C108.291 306.611 107.173 313.839 105.441 318.205C104.637 320.228 103.567 321.527 102.264 322.066C101.838 322.234 101.383 322.315 100.925 322.305ZM100.042 321.775C100.721 321.988 101.454 321.952 102.109 321.673C103.311 321.174 104.319 319.95 105.065 318.032C106.93 313.34 107.765 306.426 106.718 304.336C106.666 304.199 106.585 304.074 106.48 303.971C106.376 303.868 106.25 303.789 106.112 303.739C105.419 303.554 103.532 304.959 101.694 307.579C98.9017 311.568 97.0019 317.392 100.042 321.775Z" fill="#231F20"/>
<path d="M169.907 339.289C169.377 339.289 151.616 338.202 147.18 340.172C142.744 342.143 133.872 343.543 130.148 343.543C126.423 343.543 117.905 341.043 116.831 342.266C115.757 343.49 117.852 345.284 118.404 346.879C118.956 348.474 132.737 356.303 143.416 357.73C154.094 359.157 158.049 353.047 161.91 353.648C168.538 354.682 165.812 353.471 165.812 353.471L169.907 339.289Z" fill="white"/>
<path d="M146.548 358.172C145.491 358.17 144.436 358.098 143.389 357.955C132.644 356.528 118.775 348.629 118.205 346.985C117.972 346.423 117.675 345.89 117.321 345.394C116.597 344.268 115.846 343.106 116.663 342.156C117.33 341.378 119.919 341.771 124.112 342.518C126.343 342.911 128.65 343.322 130.139 343.322C133.894 343.322 142.664 341.913 147.083 339.969C149.734 338.802 157.408 338.489 169.289 339.054L169.898 339.085H170.195L166.068 353.36C166.461 353.564 166.629 353.776 166.567 353.988C166.505 354.2 166.395 354.58 161.866 353.877C160.47 353.657 159.025 354.377 157.2 355.291C154.709 356.524 151.435 358.172 146.548 358.172ZM118.232 342.169C117.613 342.169 117.176 342.249 117.008 342.443C116.407 343.146 117.034 344.122 117.701 345.151C118.072 345.679 118.382 346.246 118.625 346.844C119.067 348.169 132.653 356.087 143.446 357.518C150.008 358.402 154.05 356.369 157.01 354.894C158.91 353.948 160.408 353.201 161.941 353.44C164.689 353.882 165.67 353.882 166.019 353.842C165.925 353.781 165.826 353.728 165.723 353.683L165.547 353.604L169.616 339.514H169.276C157.633 338.957 149.835 339.271 147.268 340.397C142.801 342.363 133.938 343.786 130.148 343.786C128.619 343.786 126.29 343.375 124.042 342.973C121.934 342.558 119.628 342.151 118.232 342.151V342.169Z" fill="#231F20"/>
<path d="M155.548 343.835C155.548 343.835 130.17 353.02 111.246 348.337L109.837 339.059L117.896 329.661C117.896 329.661 134.46 333.152 148.51 325.658L157.072 334.64L155.548 343.835Z" fill="#AAC0DA"/>
<path d="M123.229 349.875C119.178 349.919 115.137 349.474 111.194 348.549L111.052 348.514L109.603 339.001L117.812 329.427L117.94 329.454C118.104 329.489 134.593 332.842 148.426 325.477L148.572 325.398L157.329 334.583L155.765 344.003L155.641 344.047C155.42 344.118 139.276 349.875 123.229 349.875ZM111.445 348.156C129.401 352.526 153.419 344.343 155.354 343.671L156.838 334.724L148.444 325.941C135.189 332.94 119.535 330.213 117.958 329.917L110.049 339.147L111.445 348.156Z" fill="#231F20"/>
<path d="M127.475 341.383C121.511 341.344 115.57 340.64 109.762 339.284L109.873 338.842C110.018 338.882 124.365 342.523 136.965 340.097C150.507 337.486 156.896 334.468 156.962 334.437L157.152 334.835C157.09 334.866 150.657 337.905 137.049 340.53C133.892 341.113 130.686 341.399 127.475 341.383Z" fill="#231F20"/>
<path d="M128.054 339.456C123.046 339.47 118.046 339.08 113.102 338.29C113.063 338.283 113.027 338.266 112.996 338.24C112.966 338.214 112.943 338.181 112.93 338.144C112.917 338.106 112.914 338.066 112.923 338.027C112.932 337.988 112.951 337.952 112.978 337.923L119.283 331.04C119.31 331.012 119.343 330.992 119.379 330.98C119.415 330.969 119.454 330.966 119.491 330.973C133.709 333.832 149.575 329.891 149.734 329.851C149.765 329.842 149.799 329.841 149.831 329.847C149.863 329.853 149.893 329.867 149.919 329.886L155.221 333.832C155.252 333.854 155.277 333.884 155.292 333.919C155.308 333.954 155.314 333.993 155.31 334.031C155.307 334.069 155.294 334.105 155.273 334.136C155.251 334.168 155.221 334.192 155.186 334.207C146.575 338.391 136.294 339.456 128.054 339.456ZM113.579 337.936C116.774 338.458 138.538 341.599 154.669 333.982L149.738 330.337C148.351 330.673 133.21 334.176 119.526 331.459L113.579 337.936Z" fill="white"/>
<path d="M153.153 344.533C153.153 344.533 147.516 346.897 143.433 345.951C142.408 345.713 134.093 345.147 134.067 347.016C134.014 351.156 146.667 353.52 151.161 351.629" fill="white"/>
<path d="M146.783 352.521C142.921 352.521 138.216 351.47 135.688 349.769C134.442 348.929 133.819 348.001 133.828 347.012C133.834 346.869 133.873 346.73 133.942 346.605C134.011 346.48 134.108 346.372 134.226 346.291C135.834 345.028 142.621 345.54 143.469 345.735C147.445 346.654 153.017 344.352 153.07 344.325C153.097 344.314 153.126 344.308 153.155 344.308C153.184 344.308 153.213 344.313 153.24 344.325C153.267 344.336 153.292 344.352 153.313 344.373C153.333 344.393 153.35 344.418 153.361 344.445C153.373 344.472 153.378 344.501 153.379 344.53C153.379 344.559 153.373 344.588 153.362 344.615C153.351 344.642 153.335 344.667 153.314 344.688C153.293 344.708 153.269 344.725 153.242 344.736C153.008 344.833 147.498 347.113 143.367 346.168C142.378 345.938 135.887 345.549 134.495 346.64C134.432 346.682 134.379 346.737 134.34 346.802C134.301 346.868 134.277 346.941 134.27 347.016C134.27 347.851 134.822 348.651 135.936 349.402C139.448 351.766 147.644 352.861 151.059 351.425C151.086 351.414 151.115 351.408 151.144 351.408C151.173 351.408 151.201 351.413 151.228 351.424C151.255 351.435 151.279 351.452 151.3 351.472C151.32 351.493 151.336 351.518 151.347 351.545C151.369 351.598 151.369 351.658 151.348 351.712C151.326 351.765 151.285 351.809 151.232 351.832C149.805 352.34 148.296 352.574 146.783 352.521Z" fill="#231F20"/>
<path d="M113.831 321.103C113.831 321.103 128.071 327.766 129.321 324.991C123.816 322.848 118.863 315.024 118.863 315.024" fill="white"/>
<path d="M127.669 325.884C123.582 325.884 114.18 321.51 113.738 321.302L113.928 320.904C114.043 320.957 125.716 326.392 128.628 325.323C128.761 325.276 128.883 325.203 128.986 325.106C123.587 322.835 118.877 315.474 118.678 315.156L119.049 314.918C119.098 314.997 124.028 322.707 129.401 324.801L129.617 324.885L129.52 325.097C129.448 325.249 129.345 325.384 129.218 325.494C129.091 325.605 128.943 325.687 128.782 325.738C128.422 325.85 128.046 325.9 127.669 325.884Z" fill="#231F20"/>
<path d="M127.956 315.814L116.54 324.567C116.54 324.567 130.612 339.368 159.688 329.453L154.55 319.733C154.55 319.733 144.463 323.71 136.316 321.536C129.71 319.755 127.956 315.814 127.956 315.814Z" fill="#AAC0DA"/>
<path d="M140.65 333.081C136.058 333.122 131.492 332.397 127.139 330.938C120.017 328.486 116.416 324.752 116.38 324.722L116.212 324.54L128.044 315.47L128.159 315.722C128.159 315.761 129.962 319.592 136.373 321.306C144.361 323.44 154.368 319.539 154.488 319.512L154.669 319.437L160.037 329.599L159.79 329.683C152.407 332.184 146.022 333.081 140.65 333.081ZM116.875 324.593C117.67 325.349 121.156 328.42 127.311 330.536C133.766 332.745 144.542 334.336 159.383 329.347L154.443 319.998C153.025 320.52 143.778 323.745 136.258 321.739C130.514 320.197 128.389 317.065 127.863 316.155L116.875 324.593Z" fill="#231F20"/>
<path d="M141.98 330.987C137.942 330.997 133.924 330.424 130.051 329.286C123.657 327.39 119.889 324.549 119.889 324.523C119.862 324.501 119.841 324.474 119.826 324.444C119.812 324.413 119.804 324.38 119.805 324.346C119.805 324.312 119.813 324.279 119.827 324.248C119.842 324.218 119.863 324.191 119.889 324.169L128.35 317.674C128.39 317.64 128.441 317.621 128.493 317.621C128.546 317.621 128.597 317.64 128.637 317.674C139.241 328.141 153.255 321.956 153.379 321.889C153.431 321.866 153.489 321.864 153.543 321.883C153.596 321.902 153.64 321.94 153.666 321.991L156.918 328.177C156.931 328.206 156.938 328.237 156.938 328.269C156.938 328.301 156.931 328.333 156.918 328.362C156.906 328.392 156.887 328.418 156.864 328.44C156.84 328.461 156.812 328.477 156.781 328.486C152.015 330.113 147.016 330.957 141.98 330.987ZM120.392 324.359C122.363 325.729 136.417 334.751 156.423 328.19L153.388 322.384C151.647 323.096 138.569 327.964 128.464 318.134L120.392 324.359Z" fill="white"/>
<path d="M115.661 321.943C113.893 322.694 111.927 323.197 108.591 322.623C103.263 321.708 97.7622 317.374 97.7622 317.374C97.7622 317.374 99.2379 307.707 103.506 303.545C103.506 303.545 107.2 306.138 110.531 303.806C112.89 302.153 122.977 296.096 125.5 294.187C126.719 293.264 128.067 291.784 129.516 291.249C130.475 290.896 131.602 291.249 131.35 292.446C130.955 294.111 130.117 295.638 128.924 296.865C127.739 298.084 126.445 299.194 125.058 300.178C128.637 298.65 131.685 296.308 134.858 294.09C135.058 293.919 135.307 293.814 135.569 293.79C136.926 293.816 136.011 296.847 135.741 297.465C134.416 300.333 131.61 302.043 128.902 303.408C131.805 303.046 134.204 301.225 136.74 299.904C137.893 299.299 139.174 298.915 138.971 300.788C138.83 302.069 137.522 302.997 136.546 303.673C133.356 305.856 129.764 307.65 126.688 309.956C127.015 310.804 129.247 311.047 130.082 311.546C130.633 311.855 131.112 312.278 131.487 312.787C131.861 313.296 132.121 313.879 132.251 314.498C133.113 318.854 131.5 322.566 129.419 321.982C127.338 321.399 128.093 315.072 124.528 313.919C122.5 313.261 121.095 314.56 119.937 316.49" fill="white"/>
<path d="M111.255 323.069C110.348 323.063 109.444 322.979 108.551 322.817C103.249 321.903 97.6734 317.568 97.6204 317.515C97.5906 317.491 97.5672 317.46 97.5526 317.424C97.5379 317.389 97.5324 317.35 97.5365 317.312C97.5983 316.914 99.074 307.521 103.324 303.355C103.364 303.322 103.414 303.304 103.466 303.304C103.517 303.304 103.567 303.322 103.607 303.355C103.642 303.381 107.212 305.829 110.376 303.616C111.374 302.913 113.796 301.406 116.358 299.803C119.893 297.594 123.869 295.097 125.34 294.001C125.698 293.728 126.069 293.409 126.463 293.069C127.395 292.261 128.363 291.421 129.414 291.032C129.699 290.909 130.011 290.861 130.321 290.892C130.63 290.923 130.926 291.032 131.181 291.209C131.353 291.368 131.477 291.572 131.538 291.798C131.599 292.024 131.595 292.262 131.526 292.486C131.126 294.189 130.269 295.75 129.047 297.001C128.344 297.748 127.586 298.442 126.781 299.078C129.058 297.819 131.247 296.408 133.333 294.854L134.694 293.895C134.934 293.702 135.226 293.583 135.533 293.555C135.679 293.554 135.823 293.59 135.951 293.66C136.079 293.731 136.186 293.833 136.262 293.957C136.819 294.841 136.134 297.05 135.904 297.545C134.8 299.957 132.692 301.548 130.399 302.847C131.929 302.308 133.393 301.6 134.765 300.735C135.365 300.39 135.988 300.028 136.611 299.705C137.234 299.383 138.198 298.95 138.763 299.339C139.112 299.577 139.245 300.05 139.165 300.783C139.006 302.215 137.53 303.227 136.647 303.832C135.246 304.786 133.748 305.688 132.299 306.554C130.497 307.636 128.632 308.763 126.949 309.991C127.249 310.349 128.097 310.61 128.796 310.817C129.27 310.939 129.729 311.112 130.165 311.334C130.746 311.654 131.25 312.097 131.643 312.631C132.036 313.165 132.308 313.777 132.441 314.427C133.037 317.431 132.502 320.414 131.115 321.673C130.887 321.91 130.599 322.08 130.282 322.167C129.964 322.254 129.63 322.255 129.312 322.168C128.287 321.881 127.903 320.493 127.461 318.889C126.927 316.932 126.312 314.714 124.413 314.096C122.76 313.561 121.426 314.325 120.078 316.57C120.048 316.62 119.999 316.657 119.942 316.672C119.885 316.687 119.825 316.679 119.773 316.649C119.724 316.618 119.688 316.569 119.674 316.512C119.66 316.455 119.669 316.395 119.698 316.345C120.613 314.82 122.111 312.885 124.558 313.694C126.684 314.383 127.329 316.725 127.899 318.792C128.305 320.264 128.654 321.54 129.436 321.757C129.681 321.824 129.939 321.823 130.184 321.755C130.428 321.686 130.649 321.552 130.824 321.368C131.884 320.387 132.626 317.723 131.994 314.529C131.872 313.94 131.624 313.384 131.267 312.9C130.91 312.416 130.453 312.014 129.927 311.723C129.519 311.524 129.093 311.368 128.654 311.255C127.687 310.963 126.688 310.658 126.445 310.026C126.428 309.981 126.427 309.931 126.44 309.884C126.454 309.837 126.482 309.796 126.52 309.766C128.261 308.471 130.192 307.309 132.061 306.191C133.505 305.308 134.999 304.424 136.386 303.479C137.446 302.754 138.595 301.884 138.714 300.748C138.759 300.373 138.754 299.864 138.502 299.714C138.317 299.586 137.871 299.551 136.806 300.107C136.192 300.43 135.573 300.788 134.977 301.133C133.086 302.224 131.133 303.342 128.893 303.633C128.841 303.641 128.788 303.629 128.745 303.601C128.701 303.572 128.669 303.529 128.654 303.479C128.639 303.429 128.643 303.375 128.664 303.327C128.685 303.28 128.722 303.241 128.769 303.218C131.513 301.835 134.23 300.169 135.507 297.381C135.741 296.873 136.315 294.89 135.891 294.214C135.854 294.152 135.801 294.101 135.737 294.067C135.673 294.032 135.601 294.016 135.529 294.019C135.314 294.046 135.113 294.137 134.95 294.28L133.62 295.203C130.969 297.085 128.221 299.034 125.137 300.355C125.087 300.377 125.031 300.381 124.979 300.364C124.927 300.347 124.883 300.312 124.855 300.265C124.828 300.217 124.819 300.162 124.83 300.108C124.841 300.055 124.872 300.007 124.916 299.975C126.29 298.996 127.574 297.896 128.751 296.688C129.921 295.496 130.742 294.006 131.124 292.38C131.173 292.234 131.181 292.077 131.145 291.927C131.11 291.778 131.034 291.641 130.925 291.532C130.729 291.407 130.506 291.333 130.275 291.316C130.043 291.299 129.811 291.34 129.6 291.434C128.628 291.797 127.691 292.605 126.79 293.387C126.388 293.732 126.012 294.059 125.641 294.342C124.178 295.451 120.167 297.956 116.628 300.165C114.07 301.76 111.657 303.258 110.663 303.965C107.641 306.081 104.301 304.269 103.545 303.806C99.7544 307.672 98.2434 316.115 98.0313 317.259C98.8089 317.847 103.841 321.558 108.662 322.384C112.028 322.963 113.994 322.406 115.612 321.717C115.638 321.706 115.667 321.7 115.696 321.699C115.725 321.699 115.754 321.705 115.78 321.716C115.807 321.727 115.831 321.743 115.852 321.764C115.872 321.785 115.888 321.809 115.899 321.836C115.921 321.89 115.921 321.95 115.9 322.003C115.878 322.057 115.837 322.1 115.784 322.124C114.36 322.762 112.815 323.085 111.255 323.069Z" fill="#231F20"/>
<path d="M106.175 303.545C106.175 303.545 102.234 305.41 99.9272 312.823C98.9843 315.79 98.9843 318.976 99.9272 321.943L91.3249 319.323C91.3249 319.323 87.6312 313.137 88.8418 306.249C90.3219 297.731 98.2748 298.464 98.2748 298.464C99.1849 298.694 106.175 303.545 106.175 303.545Z" fill="#231F20"/>
<path d="M99.9267 322.133H99.8693L91.267 319.508C91.2204 319.494 91.181 319.462 91.1565 319.42C91.1212 319.358 87.4408 313.115 88.647 306.214C90.1536 297.629 98.2169 298.261 98.3008 298.261C99.2419 298.526 105.564 302.887 106.285 303.386C106.313 303.405 106.335 303.432 106.349 303.463C106.363 303.494 106.368 303.529 106.364 303.563C106.362 303.597 106.35 303.629 106.331 303.657C106.311 303.685 106.285 303.708 106.254 303.722C106.218 303.722 102.366 305.652 100.112 312.876C99.1944 315.803 99.1944 318.941 100.112 321.867C100.126 321.901 100.129 321.937 100.122 321.973C100.115 322.008 100.098 322.041 100.073 322.066C100.055 322.088 100.033 322.105 100.007 322.116C99.9821 322.128 99.9545 322.133 99.9267 322.133ZM91.4526 319.15L99.6263 321.642C98.8076 318.731 98.8475 315.646 99.7412 312.757C101.716 306.421 104.844 304.111 105.803 303.527C103.704 302.074 98.915 298.826 98.2346 298.667C97.9474 298.641 90.4761 298.058 89.0314 306.289C87.9136 312.664 91.0726 318.479 91.4526 319.15Z" fill="#231F20"/>
<path d="M175.859 335.418C175.501 335.303 163.329 338.816 163.209 338.833C163.09 338.851 168.538 344.533 164.632 355.888L176.561 359.082C176.561 359.082 179.955 354.58 180.339 347.365C180.723 340.15 175.859 335.418 175.859 335.418Z" fill="#231F20"/>
<path d="M176.57 359.277H176.522L164.592 356.082C164.567 356.076 164.543 356.065 164.523 356.049C164.502 356.033 164.485 356.013 164.473 355.99C164.462 355.965 164.457 355.939 164.457 355.912C164.457 355.886 164.462 355.859 164.473 355.835C165.529 352.769 167.513 345.001 163.183 339.112C163.055 338.944 163.011 338.882 163.055 338.772C163.067 338.74 163.088 338.712 163.116 338.691C163.143 338.67 163.175 338.656 163.209 338.652L164.645 338.246C174.785 335.365 175.762 335.18 175.947 335.246C175.974 335.254 175.999 335.269 176.018 335.29C176.071 335.339 180.953 340.15 180.569 347.383C180.184 354.616 176.787 359.162 176.756 359.206C176.734 359.233 176.705 359.254 176.673 359.267C176.64 359.279 176.605 359.283 176.57 359.277ZM164.879 355.742L176.491 358.835C178.703 355.396 179.966 351.433 180.153 347.348C180.507 340.72 176.309 336.161 175.775 335.613C174.927 335.71 167.548 337.822 164.729 338.608L163.527 338.948C167.804 344.856 165.966 352.517 164.879 355.751V355.742Z" fill="#231F20"/>
<path d="M124.554 343.247C119.711 343.284 114.879 342.771 110.151 341.718C110.092 341.704 110.042 341.667 110.011 341.615C109.98 341.563 109.971 341.501 109.985 341.442C110 341.384 110.037 341.333 110.089 341.302C110.141 341.271 110.203 341.262 110.261 341.277C110.416 341.316 125.606 345.169 141.843 340.433C141.871 340.425 141.9 340.422 141.929 340.425C141.958 340.428 141.986 340.437 142.011 340.451C142.037 340.465 142.059 340.484 142.077 340.507C142.095 340.529 142.109 340.555 142.117 340.583C142.132 340.639 142.125 340.699 142.097 340.75C142.069 340.801 142.022 340.84 141.967 340.857C136.304 342.469 130.442 343.274 124.554 343.247Z" fill="#231F20"/>
<path d="M129.321 345.306C129.263 345.306 129.207 345.283 129.165 345.241C129.124 345.2 129.101 345.144 129.101 345.085C129.101 345.027 129.124 344.97 129.165 344.929C129.207 344.888 129.263 344.864 129.321 344.864C143.124 344.864 155.981 337.548 156.109 337.477C156.134 337.459 156.163 337.446 156.193 337.44C156.223 337.433 156.255 337.433 156.285 337.439C156.315 337.446 156.344 337.458 156.369 337.477C156.394 337.495 156.415 337.518 156.43 337.545C156.446 337.571 156.456 337.601 156.459 337.632C156.462 337.662 156.459 337.694 156.45 337.723C156.44 337.752 156.425 337.78 156.404 337.803C156.384 337.826 156.358 337.844 156.33 337.857C156.202 337.932 143.243 345.293 129.321 345.306Z" fill="#231F20"/>
<path d="M123.936 348.266C119.484 348.238 115.063 347.541 110.818 346.199C110.763 346.18 110.718 346.14 110.693 346.088C110.667 346.035 110.663 345.975 110.681 345.92C110.701 345.865 110.742 345.82 110.795 345.794C110.848 345.769 110.908 345.765 110.964 345.783C111.052 345.814 119.747 348.805 128.699 347.489C128.757 347.48 128.817 347.495 128.865 347.53C128.912 347.565 128.944 347.618 128.953 347.677C128.962 347.735 128.947 347.795 128.912 347.842C128.876 347.89 128.824 347.922 128.765 347.931C127.166 348.159 125.552 348.271 123.936 348.266Z" fill="#231F20"/>
</g>
<path d="M22.0215 95H39.8438V24.541H21.9727L4.05273 36.748V52.0801L21.6797 40.2637H22.0215V95Z" fill="#B6C9DE"/>
<defs>
<linearGradient id="paint0_linear" x1="158" y1="173.395" x2="1147.85" y2="817.45" gradientUnits="userSpaceOnUse">
<stop stop-color="#AAC0DA"/>
<stop offset="0.895833" stop-color="#EDF0F3"/>
</linearGradient>
<clipPath id="clip0">
<rect width="270" height="350" fill="white" transform="translate(0 77)"/>
</clipPath>
</defs>
</svg>
